<svg xmlns="http://www.w3.org/2000/svg" width="350" height="350" xmlns:v="https://vecta.io/nano"><defs><clipPath id="A"><path d="M0 0h350v350H0z"/></clipPath></defs><g clip-path="url(#A)"><path fill="#fff" d="M0 0h350v350H0z"/><g clip-path="url(#A)"><path fill="#fff" d="M0 0h350v350H0z"/><path d="M291.66 253.32c-17.852 20.311-45.491 39.038-73.375 36.855-42.115-3.288-58.618 25.947-124.974-3.378a143.52 143.52 0 0 1-27.476-15.81c-4.185-3.085-8.164-6.44-11.913-10.042-33.097-31.753-39.771-75.693-26.961-113.874 16.912-50.288 59.734-60.581 86.997-65.76s74.354-48.212 139.792-19.878c10.019 4.291 19.502 9.739 28.254 16.235 19.923 14.94 37.346 37.464 42.809 62.585q.633 2.818 1.064 5.705c5.822 37.47-9.871 79.667-34.217 107.361z" fill="#b3dafe"/><text transform="translate(14.325 37)" font-size="20" font-family="SegoeUI, Segoe UI" letter-spacing="0.02em"><tspan x="0" y="0">mernfa</tspan><tspan font-family="FarAdell, Far\.Adell" y="0">.</tspan><tspan y="0">ir</tspan></text></g><path d="M114.306 191.261a4.4 4.4 0 0 1-4.393-4.393V95.587a4.4 4.4 0 0 1 4.393-4.394h99.35V70.64c0-6.98-5.659-12.639-12.639-12.64H96.528c-6.981 0-12.64 5.659-12.64 12.64v205.609a12.64 12.64 0 0 0 12.64 12.64h104.49c6.981 0 12.64-5.659 12.64-12.64v-84.988z" fill="#596ca9"/><path d="M104.132 276.249V70.64c0-6.98 5.659-12.639 12.639-12.64H96.528c-6.981 0-12.64 5.659-12.64 12.64v205.609a12.64 12.64 0 0 0 12.64 12.64h20.243c-6.98-.001-12.639-5.66-12.639-12.64z" fill="#465a94"/><path d="M114.308 191.261a4.4 4.4 0 0 1-4.393-4.393V95.586a4.4 4.4 0 0 1 4.393-4.393h86.71v-16.34c0-2.327-1.886-4.213-4.213-4.213h-16.423c-1.688 0-3.213 1.007-3.875 2.56l-1.072 2.513c-1.324 3.106-4.375 5.121-7.751 5.121h-37.821c-3.376 0-6.427-2.015-7.751-5.121L121.04 73.2c-.662-1.553-2.187-2.56-3.875-2.56h-16.424c-2.327 0-4.213 1.886-4.213 4.213v197.182c0 1.118.443 2.189 1.234 2.98s1.862 1.234 2.979 1.234h96.063c1.118 0 2.189-.444 2.979-1.234s1.234-1.862 1.234-2.98v-80.774z" fill="#fff"/><path d="M111.839 272.035v-19.543a4.39 4.39 0 0 1-1.924-3.631v-38.563a4.39 4.39 0 0 1 1.924-3.631v-16.168a4.39 4.39 0 0 1-1.924-3.631V95.586a4.39 4.39 0 0 1 1.924-3.631v-17.1c.002-2.326 1.887-4.21 4.213-4.21h-15.311c-2.327 0-4.213 1.886-4.213 4.213v197.177c0 1.118.443 2.189 1.234 2.98s1.862 1.234 2.979 1.234h15.311c-2.327-.001-4.213-1.887-4.213-4.214z" fill="#f5f8f9"/><circle cx="165.798" cy="71.423" r="3.661" fill="#8d9cdb"/><path d="M153.107 75.084h-19.812a3.66 3.66 0 0 1-3.171-5.492 3.66 3.66 0 0 1 3.171-1.83h19.812a3.66 3.66 0 1 1 0 7.322z" fill="#fff"/><path d="M261.726 191.749H114.307a4.88 4.88 0 0 1-4.881-4.881V95.586a4.88 4.88 0 0 1 4.881-4.881h147.419a4.88 4.88 0 0 1 4.881 4.881v91.282a4.88 4.88 0 0 1-4.881 4.881z" fill="#8d9cdb"/><path d="M128.951 186.868V95.586a4.88 4.88 0 0 1 4.882-4.881h-19.526a4.88 4.88 0 0 0-4.881 4.881v91.282a4.88 4.88 0 0 0 4.881 4.881h19.525a4.88 4.88 0 0 1-4.881-4.881z" fill="#7a8ccb"/><ellipse cx="188.122" cy="131.046" rx="27.494" ry="28.411" fill="#fed300"/><path d="M171.814 131.708a28.32 28.32 0 0 1 22.257-27.656c-11.316-2.479-23 2.185-29.498 11.775s-6.498 22.171 0 31.761 18.182 14.255 29.498 11.775a28.32 28.32 0 0 1-22.257-27.656z" fill="#fbc42b"/><path d="M201.015 129.945l-21.274-10.224c-.606-.293-1.321-.254-1.891.104s-.917.984-.917 1.657v20.45c.001.672.346 1.296.914 1.654s1.28.399 1.886.109l21.274-10.224c.678-.326 1.109-1.011 1.109-1.763s-.431-1.437-1.109-1.763z" fill="#349aff"/><path d="M185.09 122.291l-5.35-2.571c-.606-.293-1.321-.253-1.891.105s-.916.984-.916 1.657v20.45c.001.672.346 1.296.914 1.654s1.28.399 1.886.109l5.35-2.571z" fill="#0080ff"/><path d="M228.209 172.838v6.708h20.336a3.66 3.66 0 1 0 0-7.322h-20.367l.031.614z" fill="#fff"/><path d="M206.077 172.224h-78.59a3.66 3.66 0 1 0 0 7.322h78.59z" fill="#eaff58"/><path d="M208.03 182.231h5.284v-9.392a7.39 7.39 0 0 1 .781-3.3h-6.065a2.44 2.44 0 0 0-2.441 2.441v7.81a2.44 2.44 0 0 0 2.441 2.441z" fill="#f3cc04"/><path d="M184.599 253.743h-70.292a4.88 4.88 0 0 1-4.881-4.882v-38.563a4.88 4.88 0 0 1 4.881-4.881h70.292a4.88 4.88 0 0 1 4.881 4.881v38.563a4.88 4.88 0 0 1-4.881 4.882z" fill="#4367ff"/><path d="M124.07 248.861v-38.563a4.88 4.88 0 0 1 4.881-4.881h-14.644a4.88 4.88 0 0 0-4.881 4.881v38.563a4.88 4.88 0 0 0 4.881 4.881h14.644a4.88 4.88 0 0 1-4.881-4.881z" fill="#4d6bff"/><path d="M163.355 227.358l-23.609-11.346a2.17 2.17 0 0 0-3.111 1.956v22.693a2.17 2.17 0 0 0 3.111 1.956l23.609-11.346a2.17 2.17 0 0 0 0-3.913z" fill="#fff"/><path d="M145.683 218.865l-5.937-2.853a2.17 2.17 0 0 0-3.111 1.957v22.692a2.17 2.17 0 0 0 3.111 1.957l5.937-2.853z" fill="#f5f8f9"/><path d="M268.378 204.002a7.94 7.94 0 0 0-7.936 7.936v-4.577c.038-4.318-3.334-7.899-7.647-8.121-2.154-.079-4.247.722-5.798 2.218s-2.428 3.558-2.428 5.713v-5.069c.038-4.318-3.334-7.899-7.647-8.121-2.154-.078-4.246.722-5.798 2.218s-2.428 3.558-2.427 5.713v-29.075a7.94 7.94 0 0 0-7.936-7.936 7.94 7.94 0 0 0-7.936 7.936v54.83a1.33 1.33 0 0 1-2.27.94l-6.126-6.126c-1.479-1.493-3.491-2.337-5.592-2.344s-4.119.823-5.608 2.306c-2.926 3.038-2.881 7.859.1 10.843l31.01 31a12.63 12.63 0 0 1 2.394 3.4h35.433a12.63 12.63 0 0 1 2.438-3.418l7.985-7.959c2.379-2.371 3.716-5.591 3.716-8.95v-35.42c.002-4.38-3.547-7.933-7.927-7.937z" fill="#ffe5c2"/><path d="M203.32 233.286c-2.982-2.983-3.026-7.805-.1-10.843a7.45 7.45 0 0 1 .573-.534 7.89 7.89 0 0 0-10.554.534c-2.926 3.038-2.881 7.859.1 10.843l31.01 31c.98.993 1.789 2.142 2.394 3.4h9.981c-.605-1.258-1.414-2.407-2.394-3.4z" fill="#fed2a4"/><g fill="#4753fd"><path d="M276.312 269.683v-1.411c0-.857-1.263-1.552-2.821-1.552h-54.496c-1.558 0-2.821.7-2.821 1.552v21.526c23.164-3.775 43.792-10.798 60.138-20.115z"/><path d="M216.17 268.272v21.526c5.209-.981 10.274-2.176 15.16-3.58v-17.946c0-.857 1.093-1.552 2.441-1.552h-15.16c-1.349 0-2.441.695-2.441 1.552z"/></g><g fill="#fff"><ellipse cx="228.906" cy="103.552" rx="3.208" ry="3.666"/><circle cx="240.362" cy="103.552" r="3.666"/><circle cx="252.276" cy="103.552" r="3.666"/></g></g></svg>