<svg xmlns="http://www.w3.org/2000/svg" width="350" height="350" xmlns:v="https://vecta.io/nano"><defs><clipPath id="A"><path d="M0 0h350v350H0z"/></clipPath></defs><g clip-path="url(#A)"><path fill="#fff" d="M0 0h350v350H0z"/><g clip-path="url(#A)"><path fill="#fff" d="M0 0h350v350H0z"/><path d="M291.66 253.32c-17.852 20.311-45.491 39.038-73.375 36.855-42.115-3.288-58.618 25.947-124.974-3.378a143.52 143.52 0 0 1-27.476-15.81c-4.185-3.085-8.164-6.44-11.913-10.042-33.097-31.753-39.771-75.693-26.961-113.874 16.912-50.288 59.734-60.581 86.997-65.76s74.354-48.212 139.792-19.878c10.019 4.291 19.502 9.739 28.254 16.235 19.923 14.94 37.346 37.464 42.809 62.585q.633 2.818 1.064 5.705c5.822 37.47-9.871 79.667-34.217 107.361z" fill="#e4e4e4"/><text transform="translate(14.325 37)" font-size="20" font-family="SegoeUI, Segoe UI" letter-spacing="0.02em"><tspan x="0" y="0">mernfa</tspan><tspan font-family="FarAdell, Far\.Adell" y="0">.</tspan><tspan y="0">ir</tspan></text></g><path d="M127.776 89.87v48.412H84.894c-4.524 0-8.192-3.668-8.192-8.192V98.062c0-4.524 3.668-8.192 8.192-8.192z" fill="#0ebcff"/><path d="M127.776 140.412H84.894a10.24 10.24 0 0 1-10.24-10.322V98.061a10.24 10.24 0 0 1 10.24-10.239h42.882a2.05 2.05 0 0 1 2.048 2.048v48.412a2.05 2.05 0 0 1-2.048 2.13zM84.894 91.918c-3.391.002-6.139 2.752-6.14 6.143v32.029c0 3.393 2.751 6.144 6.144 6.144h40.956V91.918z"/><path d="M273.298 98.062v32.028a8.19 8.19 0 0 1-8.192 8.192h-137.33V89.87h137.33c4.524 0 8.192 3.668 8.192 8.192z" fill="#dbe2eb"/><path d="M265.107 140.412H127.776a2.05 2.05 0 0 1-1.926-2.13V89.87a2.05 2.05 0 0 1 2.048-2.048h137.209a10.24 10.24 0 0 1 10.243 10.239v32.029a10.24 10.24 0 0 1-10.243 10.322zm-135.157-4.096h135.16c1.644 0 3.219-.658 4.374-1.828a6.14 6.14 0 0 0 1.77-4.398V98.061a6.14 6.14 0 0 0-1.8-4.344c-1.153-1.152-2.715-1.8-4.344-1.8H129.95zm-30.639-15.85a9.3 9.3 0 0 1-6.594-15.851 9.5 9.5 0 0 1 13.147 0 9.28 9.28 0 0 1 2.028 10.118c-1.435 3.472-4.823 5.736-8.581 5.733zm0-14.5a5.2 5.2 0 0 0-3.686 8.888c2.068 1.956 5.304 1.956 7.372 0a5.2 5.2 0 0 0-3.686-8.888z"/><path d="M112.417 126.363c-.541-.003-1.058-.224-1.434-.614l-8.192-8.192a2.05 2.05 0 0 1 0-2.908c.372-.396.89-.621 1.434-.621a1.96 1.96 0 0 1 1.433.621l8.192 7.987a2.3 2.3 0 0 1-1.434 3.727zm56.071-22.24h-14.335a2.05 2.05 0 1 1 0-4.1h14.335a2.05 2.05 0 0 1 0 4.1zm0 24.083h-14.335a2.05 2.05 0 0 1 0-4.1h14.335a2.05 2.05 0 1 1 0 4.1z"/><path d="M161.32 128.206a2.05 2.05 0 0 1-2.048-2.048v-24.083a2.05 2.05 0 0 1 4.1 0v23.919a2.05 2.05 0 0 1-2.048 2.212z"/><path d="M84.197 168.795h30.432v30.432H84.197z" fill="#deff0c"/><path d="M114.628 201.315H84.197a2.05 2.05 0 0 1-2.048-2.048v-30.47a2.05 2.05 0 0 1 2.048-2.048h30.431a2.05 2.05 0 0 1 2.048 2.048v30.47a2.05 2.05 0 0 1-2.048 2.048zm-28.384-4.1h26.337v-26.167H86.245z"/><path d="M84.197 229.699h30.432v30.432H84.197z" fill="#deff0c"/><path d="M114.628 262.178H84.197a2.05 2.05 0 0 1-2.048-2.047v-30.432a2.05 2.05 0 0 1 2.048-2.048h30.431a2.05 2.05 0 0 1 2.048 2.048v30.432a2.05 2.05 0 0 1-2.048 2.047zm-28.384-4.1h26.337v-26.331H86.245zm187.055-71.998H140.678a2.05 2.05 0 0 1 0-4.1h132.621a2.05 2.05 0 0 1 0 4.1zm0 60.863H140.678a2.05 2.05 0 0 1 0-4.1h132.621a2.05 2.05 0 0 1 0 4.1z"/></g></svg>