<svg xmlns="http://www.w3.org/2000/svg" xmlns:xlink="http://www.w3.org/1999/xlink" width="350" height="350" viewBox="0 0 350 350">
  <defs>
    <clipPath id="clip-path">
      <rect id="Rectangle_2" data-name="Rectangle 2" width="350" height="350"/>
    </clipPath>
  </defs>
  <g id="SPRK_default_preset_name_custom_1" data-name="SPRK_default_preset_name_custom – 1" clip-path="url(#clip-path)">
    <rect width="350" height="350" fill="#fff"/>
    <g id="SPRK_default_preset_name_custom_1-2" data-name="SPRK_default_preset_name_custom – 1" clip-path="url(#clip-path)">
      <rect id="Rectangle_1" data-name="Rectangle 1" width="350" height="350" fill="#fff"/>
      <g id="Group_1" data-name="Group 1" transform="translate(-21.905 -21.76)">
        <g id="_6502421" data-name="6502421" transform="translate(0 0)">
          <g id="Background_Simple" data-name="Background Simple" transform="translate(0 0)">
            <path id="Path_1" data-name="Path 1" d="M281.886,138.351c-2.962,26.879-14.848,58.077-38.934,72.293-36.375,21.479-33.11,54.891-104.28,68.961a143.52,143.52,0,0,1-31.574,2.823,119.866,119.866,0,0,1-15.519-1.386c-45.327-7.007-76.011-39.159-87.435-77.778-15.013-50.887,14.147-83.893,33.5-103.782S70.862,17.327,140.711,2.973A139.667,139.667,0,0,1,173.166.052c24.89.8,52.085,9.245,70.976,26.682q2.136,1.944,4.146,4.061C274.561,58.138,285.928,101.7,281.886,138.351Z" transform="translate(162.132 0) rotate(35.025)" fill="#ececec"/>
          </g>
        </g>
      </g>
      <text id="mernfa.ir" transform="translate(14.325 37)" font-size="20" font-family="SegoeUI, Segoe UI" letter-spacing="0.02em"><tspan x="0" y="0">mernfa</tspan><tspan y="0" font-family="FarAdell, 'Far\.Adell'">.</tspan><tspan y="0">ir</tspan></text>
    </g>
    <g id="_1" data-name="1" transform="translate(92.609 83.985)">
      <path id="Path_1-2" data-name="Path 1" d="M164.3,45.669a5.111,5.111,0,0,0-7.228,0l-4.053,4.054V33.644a15.011,15.011,0,0,0-14.995-14.993h-9.158a5.112,5.112,0,0,0,0,10.224h9.158a4.776,4.776,0,0,1,4.771,4.77V49.724l-4.052-4.05a5.112,5.112,0,0,0-7.228,7.23L144.289,65.68a5.111,5.111,0,0,0,7.228,0L164.295,52.9a5.111,5.111,0,0,0,0-7.23ZM113.623,28.861a5.1,5.1,0,0,1-3.6-8.715,5.261,5.261,0,0,1,7.207,0,5.1,5.1,0,0,1-3.6,8.715ZM45.764,158.975H36.606a4.77,4.77,0,0,1-4.77-4.771v-16.08l4.052,4.052a5.112,5.112,0,1,0,7.228-7.229l-12.78-12.777a5.113,5.113,0,0,0-7.23,0L10.33,134.949a5.112,5.112,0,0,0,7.231,7.228l4.051-4.051V154.2a14.992,14.992,0,0,0,14.993,15h9.159a5.111,5.111,0,1,0,0-10.223ZM60.487,169.2a5.105,5.105,0,0,1-5.112-5.112,5.209,5.209,0,0,1,1.483-3.629,5.318,5.318,0,0,1,7.232,0A5.235,5.235,0,0,1,65.6,164.09a5.176,5.176,0,0,1-1.509,3.6A5.063,5.063,0,0,1,60.487,169.2Z" transform="translate(-5.627 -12.676)" fill="#263238"/>
      <path id="Path_2" data-name="Path 2" d="M287.773,190.85H213.666a12.692,12.692,0,0,0-12.677,12.677v60.462a12.69,12.69,0,0,0,12.677,12.675H219.7l22.468,16.115a5.112,5.112,0,0,0,8.09-4.155V276.664h37.513a12.69,12.69,0,0,0,12.677-12.675V203.527a12.691,12.691,0,0,0-12.677-12.677Z" transform="translate(-136.222 -129.707)" fill="#fec007"/>
      <path id="Path_3" data-name="Path 3" d="M439.345,190.85H424.01a12.692,12.692,0,0,1,12.677,12.677v60.462a12.69,12.69,0,0,1-12.677,12.675h15.335a12.69,12.69,0,0,0,12.677-12.675V203.527A12.692,12.692,0,0,0,439.345,190.85Z" transform="translate(-287.794 -129.707)" fill="#fe9700"/>
      <path id="Path_4" data-name="Path 4" d="M87.338,17.073H81.3L58.834.958a5.112,5.112,0,0,0-8.091,4.153V17.072H13.231A12.69,12.69,0,0,0,.554,29.747v60.46a12.69,12.69,0,0,0,12.675,12.677H87.337a12.692,12.692,0,0,0,12.677-12.677V29.749A12.689,12.689,0,0,0,87.338,17.073Z" transform="translate(0 0)" fill="#5570fc"/>
      <path id="Path_5" data-name="Path 5" d="M193.81,17.073h-6.035L165.307.958a5.112,5.112,0,0,0-8.091,4.153v.126l16.5,11.834h6.035A12.69,12.69,0,0,1,192.43,29.749v60.46a12.692,12.692,0,0,1-12.674,12.677H193.81a12.692,12.692,0,0,0,12.677-12.677V29.749A12.69,12.69,0,0,0,193.81,17.073Z" transform="translate(-106.472 0)" fill="#015ce4"/>
      <path id="Path_6" data-name="Path 6" d="M124.721,121.36H107.949v-7.131a3.834,3.834,0,0,0-7.667,0v7.131H83.828a3.834,3.834,0,0,0,0,7.667h5.6a51.25,51.25,0,0,0,8.676,15.057A25.794,25.794,0,0,1,86.853,149a3.834,3.834,0,0,0,1.3,7.557,33.45,33.45,0,0,0,15.485-7.073,33.449,33.449,0,0,0,15.485,7.073,3.915,3.915,0,0,0,.654.055,3.834,3.834,0,0,0,.644-7.613,25.679,25.679,0,0,1-11.24-4.934,51.252,51.252,0,0,0,8.663-15.043h6.88a3.834,3.834,0,0,0,0-7.667Zm-21.067,17.323a43.768,43.768,0,0,1-5.932-9.656h11.842A43.3,43.3,0,0,1,103.654,138.682Zm81.237,56.225-12.3-35.633a3.832,3.832,0,0,0-3.579-2.582,3.773,3.773,0,0,0-3.638,2.5l-13.255,35.632a3.833,3.833,0,1,0,7.186,2.673l3.144-8.45h12.31l2.888,8.365a3.834,3.834,0,1,0,7.248-2.5ZM165.3,181.377l3.532-9.494,3.279,9.494Z" transform="translate(-53.99 -75.028)" fill="#263238"/>
    </g>
    <text id="Next_JS" data-name="Next JS" transform="translate(175 274)" fill="#263238" stroke="#000" stroke-width="2" font-size="28" font-family="Consolas-Bold, Consolas" font-weight="700" letter-spacing="-0.01em"><tspan x="-53.049" y="0">Next JS</tspan></text>
  </g>
</svg>
