<svg xmlns="http://www.w3.org/2000/svg" width="270" height="270"><defs><clipPath id="a"><path d="M0 0h270v270H0z" data-name="Rectangle 2"/></clipPath></defs><g clip-path="url(#a)" data-name="SPRK_default_preset_name_custom – 1"><path fill="#fff" d="M0 0h270v270H0z"/><g clip-path="url(#a)" data-name="SPRK_default_preset_name_custom – 1"><path fill="#fff" d="M0 0h270v270H0z" data-name="Rectangle 1"/><g data-name="Group 1"><g data-name="6502421"><g data-name="Background Simple"><path fill="#3bc9ee" d="M224.995 195.419c-13.771 15.668-35.093 30.114-56.605 28.433-32.489-2.536-45.219 20.016-96.41-2.604a110.715 110.715 0 0 1-21.196-12.196 92.47 92.47 0 0 1-9.184-7.753c-25.535-24.491-30.685-58.385-20.796-87.845C33.846 74.662 66.88 66.722 87.912 62.726S145.27 25.534 195.75 47.392a107.743 107.743 0 0 1 21.796 12.524c15.369 11.525 28.81 28.901 33.024 48.28q.489 2.175.822 4.403c4.486 28.901-7.617 61.456-26.398 82.82Z" data-name="Path 1"/></g></g></g><text font-family="SegoeUI, Segoe UI" font-size="16" letter-spacing=".02em" transform="translate(11.051 28.571)"><tspan x="0" y="0">mernfa</tspan><tspan y="0" font-family="FarAdell, 'Far\.Adell'">.</tspan><tspan y="0">ir</tspan></text></g><g data-name="Group 9"><path fill="#fff" d="M215.269 90.553v112.325a10.823 10.823 0 0 1-10.823 10.823H65.554a10.823 10.823 0 0 1-10.823-10.823V90.553Z" data-name="Path 13"/><g data-name="Group 5"><path fill="#fff" d="M61.951 116.896a1.127 1.127 0 0 1-1.127-1.127v-2.976a1.127 1.127 0 0 1 2.255 0v2.976a1.127 1.127 0 0 1-1.128 1.127Z" data-name="Path 14"/></g><g data-name="Group 6"><path fill="#fff" d="M61.951 135.258a1.127 1.127 0 0 1-1.127-1.127v-12.627a1.147 1.147 0 0 1 1.127-1.15 1.108 1.108 0 0 1 1.127 1.1v12.672a1.127 1.127 0 0 1-1.127 1.132Z" data-name="Path 15"/></g><path fill="#5b4ff8" d="M215.273 90.553V73.801a10.823 10.823 0 0 0-10.823-10.823H65.557a10.823 10.823 0 0 0-10.823 10.823v16.752Z" data-name="Path 16"/><g fill="#fff" data-name="Group 7"><path d="M135.887 77.206a5.628 5.628 0 0 1-5.628 5.628H70.734a5.628 5.628 0 1 1 0-11.256h59.525a5.628 5.628 0 0 1 5.628 5.628Z" data-name="Path 17"/><path d="M168.509 75.896a5.2 5.2 0 1 1-5.2-5.2 5.2 5.2 0 0 1 5.2 5.2Z" data-name="Path 18"/><path d="M186.705 75.896a5.2 5.2 0 1 1-5.2-5.2 5.2 5.2 0 0 1 5.2 5.2Z" data-name="Path 19"/><path d="M204.901 75.896a5.2 5.2 0 1 1-5.2-5.2 5.2 5.2 0 0 1 5.2 5.2Z" data-name="Path 20"/></g><path fill="#a1d51c" d="M118.875 148.192v43.871a5.772 5.772 0 0 1-5.772 5.772H73.06a5.772 5.772 0 0 1-5.772-5.772v-43.871a5.772 5.772 0 0 1 5.772-5.772h40.042a5.772 5.772 0 0 1 5.773 5.772Z" data-name="Path 21"/><g data-name="Group 8"><path d="M222.484 156.104a1.127 1.127 0 0 0-1.127 1.127v3.148a1.127 1.127 0 0 0 2.255 0v-3.148a1.127 1.127 0 0 0-1.128-1.127Z" data-name="Path 22"/><path d="M222.484 165.24a1.127 1.127 0 0 0-1.127 1.127v17.208a1.127 1.127 0 0 0 2.255 0v-17.208a1.127 1.127 0 0 0-1.128-1.127Z" data-name="Path 23"/><path d="M47.515 74.364a1.127 1.127 0 0 0-1.127 1.127v4.528a1.127 1.127 0 0 0 2.255 0v-4.527a1.127 1.127 0 0 0-1.127-1.128Z" data-name="Path 24"/><path d="M62.319 56.03a1.128 1.128 0 0 0-1.368-.826 19.294 19.294 0 0 0-13.5 12.335 1.127 1.127 0 1 0 2.131.736 17.019 17.019 0 0 1 11.911-10.881 1.128 1.128 0 0 0 .826-1.364Z" data-name="Path 25"/><path d="M204.449 61.851H65.556a11.963 11.963 0 0 0-11.95 11.95v129.078a11.964 11.964 0 0 0 11.95 11.95H204.45a11.964 11.964 0 0 0 11.95-11.95V73.801a11.964 11.964 0 0 0-11.95-11.95Zm0 150.724H65.556a9.706 9.706 0 0 1-9.7-9.7V91.681h158.289v111.2a9.707 9.707 0 0 1-9.696 9.694Zm9.7-123.148H55.861V73.801a9.706 9.706 0 0 1 9.7-9.7h138.888a9.706 9.706 0 0 1 9.7 9.7Z" data-name="Path 26"/><path d="M130.259 70.448H70.733a6.755 6.755 0 1 0 0 13.51h59.525a6.755 6.755 0 0 0 0-13.51Zm0 11.256H70.733a4.5 4.5 0 1 1 0-9h59.525a4.5 4.5 0 0 1 0 9Z" data-name="Path 27"/><path d="M163.305 69.573a6.327 6.327 0 1 0 6.331 6.322 6.334 6.334 0 0 0-6.331-6.322Zm0 10.4a4.072 4.072 0 1 1 4.076-4.077 4.082 4.082 0 0 1-4.076 4.076Z" data-name="Path 28"/><path d="M181.5 69.573a6.327 6.327 0 1 0 6.332 6.322 6.334 6.334 0 0 0-6.332-6.322Zm0 10.4a4.072 4.072 0 1 1 4.077-4.077 4.081 4.081 0 0 1-4.077 4.076Z" data-name="Path 29"/><path d="M199.696 69.573a6.327 6.327 0 1 0 6.332 6.322 6.334 6.334 0 0 0-6.332-6.322Zm0 10.4a4.072 4.072 0 1 1 4.077-4.077 4.081 4.081 0 0 1-4.077 4.076Z" data-name="Path 30"/><path d="M87.319 128.755h8.631a6.7 6.7 0 0 0 6.7-7.031 6.618 6.618 0 0 0-3.19-5.244 6.184 6.184 0 0 0 2.208-7.21 6.393 6.393 0 0 0-6.071-3.977h-8.278a1.127 1.127 0 0 0-1.127 1.127v21.207a1.128 1.128 0 0 0 1.127 1.128Zm8.631-2.255h-7.5v-8.879h7.141a4.687 4.687 0 0 1 4.808 4.208 4.45 4.45 0 0 1-4.449 4.671Zm-7.5-18.952h7.149a4.135 4.135 0 0 1 3.957 2.509 3.919 3.919 0 0 1-3.644 5.31H88.45Z" data-name="Path 31"/><path d="M124.111 126.5h-11.363v-20.08a1.127 1.127 0 0 0-2.255 0v21.207a1.127 1.127 0 0 0 1.127 1.127h12.491a1.127 1.127 0 1 0 0-2.255Z" data-name="Path 32"/><path d="M156.539 117.024a11.731 11.731 0 1 0-11.731 11.731 11.744 11.744 0 0 0 11.731-11.731Zm-21.208 0a9.476 9.476 0 1 1 9.477 9.476 9.487 9.487 0 0 1-9.477-9.476Z" data-name="Path 33"/><path d="M171.016 127.582a11.613 11.613 0 0 0 12.368-1.415 1.127 1.127 0 0 0 .425-.882v-6.125a1.127 1.127 0 0 0-1.127-1.127h-6.311a1.127 1.127 0 1 0 0 2.255h5.183v4.437a9.228 9.228 0 0 1-9.559.826 9.46 9.46 0 0 1 0-17.053 9.253 9.253 0 0 1 9.981 1.148 1.128 1.128 0 1 0 1.406-1.763 11.706 11.706 0 1 0-12.368 19.7Z" data-name="Path 34"/><path d="M113.103 141.293H73.061a6.907 6.907 0 0 0-6.9 6.9v43.871a6.908 6.908 0 0 0 6.9 6.9h40.042a6.907 6.907 0 0 0 6.9-6.9v-43.871a6.908 6.908 0 0 0-6.9-6.9Zm4.645 50.771a4.651 4.651 0 0 1-4.645 4.645H73.061a4.651 4.651 0 0 1-4.645-4.645v-43.871a4.651 4.651 0 0 1 4.645-4.645h40.042a4.651 4.651 0 0 1 4.645 4.645Z" data-name="Path 35"/><path d="M202.711 143.979h-60.265a1.127 1.127 0 0 0 0 2.255h60.265a1.127 1.127 0 1 0 0-2.255Z" data-name="Path 36"/><path d="M202.711 160.66h-60.265a1.127 1.127 0 0 0 0 2.255h60.265a1.127 1.127 0 1 0 0-2.255Z" data-name="Path 37"/><path d="M202.711 177.34h-60.265a1.127 1.127 0 0 0 0 2.255h60.265a1.127 1.127 0 1 0 0-2.255Z" data-name="Path 38"/><path d="M202.711 194.021h-60.265a1.127 1.127 0 0 0 0 2.255h60.265a1.127 1.127 0 1 0 0-2.255Z" data-name="Path 39"/></g></g></g></svg>