<svg xmlns="http://www.w3.org/2000/svg" width="350" height="350" xmlns:v="https://vecta.io/nano"><defs><clipPath id="A"><path d="M0 0h350v350H0z"/></clipPath><clipPath id="B"><path d="M0-682.665H187.123v187.123H0Z" transform="translate(0 682.665)"/></clipPath></defs><g clip-path="url(#A)"><path fill="#fff" d="M0 0h350v350H0z"/><g clip-path="url(#A)"><path fill="#fff" d="M0 0h350v350H0z"/><path d="M291.66 253.32c-17.852 20.311-45.491 39.038-73.375 36.855-42.115-3.288-58.618 25.947-124.974-3.378a143.52 143.52 0 0 1-27.476-15.81c-4.185-3.085-8.164-6.44-11.913-10.042-33.097-31.753-39.771-75.693-26.961-113.874 16.912-50.288 59.734-60.581 86.997-65.76s74.354-48.212 139.792-19.878c10.019 4.291 19.502 9.739 28.254 16.235 19.923 14.94 37.346 37.464 42.809 62.585q.633 2.818 1.064 5.705c5.822 37.47-9.871 79.667-34.217 107.361z" fill="#e9e900"/><text transform="translate(14.325 37)" font-size="20" font-family="SegoeUI, Segoe UI" letter-spacing="0.02em"><tspan x="0" y="0">mernfa</tspan><tspan font-family="FarAdell, Far\.Adell" y="0">.</tspan><tspan y="0">ir</tspan></text></g><g transform="translate(81.439 81.439)" clip-path="url(#B)"><path d="M172.822 16.864H73.134a11.56 11.56 0 0 0-11.56 11.56V48.5a11.56 11.56 0 0 0 11.56 11.564 11.56 11.56 0 0 0 11.56-11.56v-8.519h26.578v107.152h-5.338a11.56 11.56 0 0 0-11.56 11.56 11.56 11.56 0 0 0 11.56 11.56h34.838a11.56 11.56 0 0 0 11.56-11.56 11.56 11.56 0 0 0-11.56-11.56h-6.383V39.985h26.869v8.516a11.56 11.56 0 0 0 11.56 11.56 11.56 11.56 0 0 0 11.56-11.56V28.424c0-6.383-5.173-11.558-11.556-11.56" fill="#91dafa"/><path d="M83.798 78.112H12.125c-2.489 0-4.876.989-6.635 2.749s-2.749 4.147-2.749 6.635v16.3c0 2.489.989 4.876 2.749 6.635s4.147 2.749 6.635 2.749 4.876-.989 6.635-2.749 2.749-4.147 2.749-6.635V96.88h17.413v54.61h-8.954c-2.489 0-4.876.989-6.635 2.749s-2.749 4.147-2.749 6.635.989 4.876 2.749 6.635 4.147 2.749 6.635 2.749h37.528c5.183 0 9.384-4.201 9.384-9.384 0-2.489-.989-4.876-2.749-6.635s-4.147-2.749-6.635-2.749H57.69V96.88h16.724v6.912c0 5.183 4.201 9.384 9.384 9.384 2.489 0 4.876-.989 6.635-2.749s2.749-4.147 2.749-6.635V87.496c0-5.183-4.201-9.384-9.384-9.384" fill="#ea7b45"/><g fill="#6ec2fc"><path d="M140.535 147.137h-6.143V39.985h-7.73c-2.371.001-4.293 1.923-4.293 4.294v98.565c0 1.139.452 2.231 1.257 3.036s1.897 1.257 3.036 1.257a11.72 11.72 0 0 1 11.77 10.709 11.56 11.56 0 0 1-11.53 12.412h13.872a11.56 11.56 0 0 0 11.556-11.885 11.72 11.72 0 0 0-11.8-11.235m32.291-130.274h-13.872a11.56 11.56 0 0 1 11.56 11.56V48.5a11.54 11.54 0 0 1-4.624 9.248 11.51 11.51 0 0 0 6.936 2.316 11.56 11.56 0 0 0 11.56-11.56v-20.08a11.56 11.56 0 0 0-11.56-11.56"/></g><g fill="#e76833"><path d="M67.496 151.49h-8.421v.166c4.427.842 7.631 4.711 7.632 9.218 0 5.183-4.201 9.384-9.384 9.384h10.173c5.183 0 9.384-4.201 9.384-9.384s-4.201-9.384-9.384-9.384m16.302-73.378H73.625c5.183 0 9.384 4.201 9.384 9.384v16.3a9.37 9.37 0 0 1-4.3 7.878 9.33 9.33 0 0 0 5.087 1.505c5.183 0 9.384-4.201 9.384-9.384V87.496c0-5.182-4.2-9.383-9.382-9.384"/></g><g fill="none" stroke="#000" stroke-linecap="round" stroke-linejoin="round" stroke-miterlimit="10" stroke-width="6"><path d="M60.939 170.258h6.557c5.183 0 9.384-4.201 9.384-9.384a9.38 9.38 0 0 0-2.749-6.635 9.39 9.39 0 0 0-6.635-2.749H57.69V96.881h16.724v6.912c0 5.183 4.201 9.384 9.384 9.384a9.38 9.38 0 0 0 6.635-2.749 9.39 9.39 0 0 0 2.749-6.635v-16.3a9.38 9.38 0 0 0-2.749-6.635 9.39 9.39 0 0 0-6.635-2.749H12.125a9.38 9.38 0 0 0-6.635 2.749 9.39 9.39 0 0 0-2.749 6.635v16.3a9.38 9.38 0 0 0 2.749 6.635 9.39 9.39 0 0 0 6.635 2.749c2.488 0 4.876-.989 6.635-2.749a9.39 9.39 0 0 0 2.749-6.635v-6.912h17.413v54.61h-8.954a9.38 9.38 0 0 0-6.635 2.749 9.39 9.39 0 0 0-2.749 6.635c0 2.488.989 4.876 2.749 6.635a9.39 9.39 0 0 0 6.635 2.749h20.006M82.218 16.864h-9.085c-6.384 0-11.56 5.176-11.56 11.56V48.5a11.56 11.56 0 0 0 11.56 11.564A11.56 11.56 0 0 0 84.691 48.5v-8.515h26.578v107.152h-5.334a11.56 11.56 0 1 0 0 23.12h34.841c6.385 0 11.561-5.176 11.561-11.561s-5.176-11.56-11.561-11.56h-6.385V39.985h26.87v8.516c0 6.385 5.176 11.56 11.56 11.56s11.56-5.176 11.561-11.56V28.424a11.56 11.56 0 0 0-11.56-11.56h-79.64"/></g></g></g></svg>