<svg xmlns="http://www.w3.org/2000/svg" width="350" height="350"><defs><clipPath id="a"><path data-name="Rectangle 2" d="M0 0h350v350H0z"/></clipPath></defs><g data-name="SPRK_default_preset_name_custom – 1" clip-path="url(#a)"><path fill="#fff" d="M0 0h350v350H0z"/><g data-name="SPRK_default_preset_name_custom – 1" clip-path="url(#a)"><path data-name="Rectangle 1" fill="#fff" d="M0 0h350v350H0z"/><g data-name="Group 1"><g data-name="6502421"><g data-name="Background Simple"><path data-name="Path 1" d="M291.66 253.32c-17.853 20.311-45.492 39.037-73.375 36.855-42.115-3.288-58.618 25.947-124.974-3.377a143.52 143.52 0 0 1-27.476-15.81 119.866 119.866 0 0 1-11.913-10.042C20.825 229.193 14.15 185.253 26.96 147.072c16.912-50.288 59.734-60.581 86.998-65.76s74.353-48.213 139.791-19.879a139.667 139.667 0 0 1 28.254 16.235c19.923 14.94 37.347 37.464 42.809 62.586q.633 2.818 1.064 5.705c5.822 37.47-9.871 79.667-34.216 107.36Z" fill="#efefef"/></g></g></g><text transform="translate(14.325 37)" font-size="20" font-family="SegoeUI, Segoe UI" letter-spacing=".02em"><tspan x="0" y="0">mernfa.ir</tspan></text></g><g data-name="Group 2"><path data-name="Path 1" d="M208.847 232.638h-15.973v-19.719a2.176 2.176 0 0 1 2.176-2.176h11.621a2.176 2.176 0 0 1 2.176 2.176Z" fill="#ffe27a"/><path data-name="Path 2" d="M233.408 232.637h-15.973v-31.593a2.176 2.176 0 0 1 2.176-2.176h11.621a2.176 2.176 0 0 1 2.176 2.176Z" fill="#ffba57"/><path data-name="Path 3" d="M257.97 232.636h-15.973v-43.47a2.176 2.176 0 0 1 2.176-2.176h11.622a2.176 2.176 0 0 1 2.176 2.176Z" fill="#98db7c"/><path data-name="Path 4" d="M282.531 232.637h-15.973V177.29a2.176 2.176 0 0 1 2.176-2.176h11.622a2.176 2.176 0 0 1 2.176 2.176Z" fill="#8bcaff"/><path data-name="Path 5" d="M192.874 228.72h15.973v3.917h-15.973Z" fill="#f9cf58"/><path data-name="Path 6" d="M217.435 228.72h15.973v3.917h-15.973Z" fill="#ffac3e"/><path data-name="Path 7" d="M241.997 228.72h15.973v3.917h-15.973Z" fill="#82d361"/><path data-name="Path 8" d="M266.558 228.72h15.973v3.917h-15.973Z" fill="#6cc4ff"/><path data-name="Path 9" d="m267.181 153.351 6.8 4.725-2.28-22.709-22.1 5.756 6.8 4.725s-12.46 24.283-57.446 38.165a2.036 2.036 0 0 0 .738 3.978c18.024-1.252 47.788-7.686 67.488-34.64Z" fill="#ff4755"/><path data-name="Path 10" d="M265.232 151.978a1.09 1.09 0 0 0-1.5.244c-20.236 27.193-46.2 30.617-64.035 31.856a2.185 2.185 0 0 1-.722-.067l-.016.005a2.038 2.038 0 0 0 .75 3.977c18.025-1.254 47.78-7.691 67.475-34.64Z" fill="#fc2b3a"/><path data-name="Path 11" d="M291.663 231.005h-7.5v-30.543a1.632 1.632 0 1 0-3.264 0V231H268.19v-53.71a.545.545 0 0 1 .544-.544h11.621a.545.545 0 0 1 .544.544v16.649a1.632 1.632 0 1 0 3.264 0V177.29a3.812 3.812 0 0 0-3.808-3.808h-11.621a3.812 3.812 0 0 0-3.808 3.808v53.715h-5.324v-41.843a3.812 3.812 0 0 0-3.808-3.8h-11.622a3.812 3.812 0 0 0-3.807 3.8v41.839h-5.325v-29.959a3.812 3.812 0 0 0-3.808-3.808H219.61a3.812 3.812 0 0 0-3.808 3.808v14.27a1.632 1.632 0 0 0 3.264 0v-14.27a.545.545 0 0 1 .544-.544h11.623a.544.544 0 0 1 .544.544v29.963h-12.71v-9.165a1.632 1.632 0 0 0-3.264 0v9.165h-5.324v-18.087a3.812 3.812 0 0 0-3.808-3.808H195.05a3.812 3.812 0 0 0-3.808 3.808v18.086h-7.5a1.632 1.632 0 1 0 0 3.264h107.921a1.632 1.632 0 1 0 0-3.264Zm-48.035-41.843a.545.545 0 0 1 .544-.544h11.622a.545.545 0 0 1 .544.544v41.839h-12.71Zm-49.118 23.756a.545.545 0 0 1 .544-.544h11.617a.545.545 0 0 1 .544.544v18.086H194.51Zm5.03-23.289c.089 0 .18 0 .27-.009a104.921 104.921 0 0 0 33.638-7.806 82.49 82.49 0 0 0 34.1-26.221l5.5 3.824a1.643 1.643 0 0 0 2.555-1.5l-2.28-22.709a1.642 1.642 0 0 0-2.035-1.416l-22.1 5.756a1.643 1.643 0 0 0-.52 2.919l5.55 3.859a55.9 55.9 0 0 1-7.779 9.383 1.632 1.632 0 0 0 2.3 2.317c6.54-6.487 9.009-11.231 9.111-11.429a1.632 1.632 0 0 0-.52-2.084l-3.884-2.7 16.825-4.382L272 154.714l-3.89-2.703a1.632 1.632 0 0 0-2.249.377 79.2 79.2 0 0 1-33.69 26.418 103.726 103.726 0 0 1-32.591 7.556c-.469.12-.611-.741-.144-.791 17.88-5.518 32.812-13.275 44.382-23.055a1.632 1.632 0 0 0-2.108-2.491c-11.231 9.495-25.778 17.037-43.236 22.429a3.668 3.668 0 0 0 1.062 7.175Z"/><g data-name="Group 1" stroke="#000" font-size="35" font-family="NotoSans-Bold, Noto Sans" font-weight="700"><text data-name="Next js" transform="translate(56.705 168)" fill="#727272" stroke-width="2"><tspan x="0" y="0">Next js</tspan></text><text transform="translate(83.705 228)" fill="#4385f5" stroke-width="1.5"><tspan x="0" y="0">S</tspan><tspan y="0" fill="#fabc05">E</tspan><tspan y="0" fill="#ea4235">O</tspan></text></g></g></g></svg>