<svg xmlns="http://www.w3.org/2000/svg" width="350" height="350" xmlns:v="https://vecta.io/nano"><defs><clipPath id="A"><path d="M0 0h350v350H0z"/></clipPath></defs><g clip-path="url(#A)"><path fill="#fff" d="M0 0h350v350H0z"/><g clip-path="url(#A)"><path fill="#fff" d="M0 0h350v350H0z"/><path d="M291.66 253.32c-17.852 20.311-45.491 39.038-73.375 36.855-42.115-3.288-58.618 25.947-124.974-3.378a143.52 143.52 0 0 1-27.476-15.81c-4.185-3.085-8.164-6.44-11.913-10.042-33.097-31.753-39.771-75.693-26.961-113.874 16.912-50.288 59.734-60.581 86.997-65.76s74.354-48.212 139.792-19.878c10.019 4.291 19.502 9.739 28.254 16.235 19.923 14.94 37.346 37.464 42.809 62.585q.633 2.818 1.064 5.705c5.822 37.47-9.871 79.667-34.217 107.361z" fill="#8870db"/><text transform="translate(14.325 37)" font-size="20" font-family="SegoeUI, Segoe UI" letter-spacing="0.02em"><tspan x="0" y="0">mernfa</tspan><tspan font-family="FarAdell, Far\.Adell" y="0">.</tspan><tspan y="0">ir</tspan></text></g><path d="M81.667 224.732h186.665c5.766 0 10.44-4.674 10.44-10.44V110.693c0-5.766-4.674-10.44-10.44-10.44H139.817l-5.97-17.88a10.44 10.44 0 0 0-9.9-7.133h-42.28c-5.766 0-10.44 4.674-10.44 10.44v128.615c.002 5.765 4.675 10.437 10.44 10.437z" fill="#fd8087"/><path d="M203.627 107.386c-1.067 3.196-4.059 5.351-7.429 5.351H71.227v101.559c0 5.766 4.674 10.44 10.44 10.44h186.665c5.766 0 10.44-4.674 10.44-10.44V110.693a10.44 10.44 0 0 0-10.44-10.445h-54.805a10.44 10.44 0 0 0-9.9 7.133z" fill="#fe646f"/><path d="M264.156 249.748H81.667c-5.766 0-10.44-4.674-10.44-10.44v-103.6c0-5.766 4.674-10.44 10.44-10.44h128.515l5.97-17.879a10.44 10.44 0 0 1 9.9-7.133h38.1c5.766 0 10.44 4.674 10.44 10.44v128.612c0 5.764-4.672 10.438-10.436 10.44z" fill="#8ac9fe"/><path d="M278.772 239.308c0 5.766-4.674 10.44-10.44 10.44H81.667c-5.766 0-10.44-4.674-10.44-10.44v-101.56h184.577c5.766 0 10.44-4.674 10.44-10.44v-16.615a10.44 10.44 0 0 0-10.44-10.445h12.528c5.766 0 10.44 4.674 10.44 10.44z" fill="#60b7ff"/><path d="M81.667 274.763h182.489c5.766 0 10.44-4.674 10.44-10.44v-103.6c0-5.766-4.674-10.44-10.44-10.44H139.817l-5.97-17.879a10.44 10.44 0 0 0-9.9-7.133h-42.28c-5.764 0-10.437 4.67-10.44 10.434V264.32a10.44 10.44 0 0 0 10.44 10.443z" fill="#fed402"/><path d="M268.332 150.279h-12.528c5.766 0 10.44 4.674 10.44 10.44v103.6c0 5.766-4.674 10.44-10.44 10.44h12.528c5.766 0 10.44-4.674 10.44-10.44v-103.6a10.44 10.44 0 0 0-10.44-10.44z" fill="#fac600"/><path d="M140.688 224.737H95.316c-2.306 0-4.176 1.87-4.176 4.176v21.945c0 2.306 1.87 4.176 4.176 4.176h45.372c2.306 0 4.176-1.87 4.176-4.176v-21.947c-.001-2.306-1.87-4.174-4.176-4.174z" fill="#efedef"/><path d="M278.772 127.801a3.13 3.13 0 0 0 3.132-3.132v-13.976a13.59 13.59 0 0 0-13.572-13.572h-86.508a3.13 3.13 0 1 0 0 6.264h32.791a13.69 13.69 0 0 0-1.434 3.01l-5.255 15.739H81.667c-2.59.004-5.125.746-7.308 2.14V85.68a7.32 7.32 0 0 1 7.308-7.308h42.278a7.3 7.3 0 0 1 6.932 4.993l5.97 17.879a3.13 3.13 0 0 0 2.971 2.14h28.357a3.13 3.13 0 1 0 0-6.264h-26.1l-5.257-15.739c-1.845-5.541-7.032-9.278-12.873-9.273H81.667A13.59 13.59 0 0 0 68.095 85.68v92.557a3.13 3.13 0 1 0 6.264 0v-42.536a7.32 7.32 0 0 1 7.308-7.3h42.278a7.3 7.3 0 0 1 6.932 4.993l5.97 17.879a3.13 3.13 0 0 0 2.971 2.14h128.514a7.32 7.32 0 0 1 7.308 7.308v103.6a7.32 7.32 0 0 1-7.308 7.308H81.667a7.32 7.32 0 0 1-7.308-7.308v-72.434a3.13 3.13 0 1 0-6.264 0v72.434a13.59 13.59 0 0 0 13.572 13.572h186.665a13.59 13.59 0 0 0 13.572-13.572v-126a3.13 3.13 0 1 0-6.264 0v10.965c-2.183-1.394-4.718-2.136-7.308-2.14H142.073l-5.255-15.739c-.354-1.057-.836-2.066-1.434-3.006h74.8a3.13 3.13 0 0 0 2.971-2.14l5.97-17.879a7.3 7.3 0 0 1 6.932-4.993h42.278a7.32 7.32 0 0 1 7.308 7.308v13.976a3.13 3.13 0 0 0 3.132 3.132zM140.688 258.165a7.32 7.32 0 0 0 7.308-7.308v-21.945a7.32 7.32 0 0 0-7.308-7.308H95.316a7.32 7.32 0 0 0-7.308 7.308v21.945a7.32 7.32 0 0 0 7.308 7.308zm-46.416-7.308v-21.945c.001-.576.468-1.043 1.044-1.044h45.372c.576.001 1.043.468 1.044 1.044v21.945c-.001.576-.468 1.043-1.044 1.044H95.316c-.576-.001-1.043-.468-1.044-1.044zm10.626-7.841h26.321a3.13 3.13 0 1 0 0-6.264h-26.321a3.13 3.13 0 1 0 0 6.264z"/></g></svg>