<?xml version="1.0" encoding="UTF-8"?>
<!DOCTYPE svg PUBLIC "-//W3C//DTD SVG 1.1//EN" "http://www.w3.org/Graphics/SVG/1.1/DTD/svg11.dtd">
<svg xmlns="http://www.w3.org/2000/svg" version="1.1" width="225px" height="225px" style="shape-rendering:geometricPrecision; text-rendering:geometricPrecision; image-rendering:optimizeQuality; fill-rule:evenodd; clip-rule:evenodd" xmlns:xlink="http://www.w3.org/1999/xlink">
<g><path style="opacity:1" fill="#fefefe" d="M -0.5,-0.5 C 74.5,-0.5 149.5,-0.5 224.5,-0.5C 224.5,74.5 224.5,149.5 224.5,224.5C 149.5,224.5 74.5,224.5 -0.5,224.5C -0.5,149.5 -0.5,74.5 -0.5,-0.5 Z"/></g>
<g><path style="opacity:1" fill="#3e3e3e" d="M 40.5,14.5 C 41.2674,15.172 41.9341,16.0053 42.5,17C 41.7362,19.0693 41.2362,21.236 41,23.5C 40.1222,20.3556 39.9555,17.3556 40.5,14.5 Z"/></g>
<g><path style="opacity:1" fill="#7d7d7d" d="M 57.5,16.5 C 58.8734,16.3433 60.2068,16.51 61.5,17C 60.0361,18.864 59.0361,21.0306 58.5,23.5C 57.5258,21.2573 57.1924,18.924 57.5,16.5 Z"/></g>
<g><path style="opacity:1" fill="#696969" d="M 17.5,17.5 C 15.9642,19.0251 14.9642,21.0251 14.5,23.5C 12.9774,15.6788 11.4774,15.6788 10,23.5C 9.50335,21.1902 9.33669,18.8568 9.5,16.5C 12.3854,16.1936 15.0521,16.5269 17.5,17.5 Z"/></g>
<g><path style="opacity:1" fill="#888888" d="M 27.5,16.5 C 30.8499,16.335 34.1832,16.5017 37.5,17C 38.7691,19.1385 38.7691,21.3052 37.5,23.5C 36.0398,15.7212 34.3731,15.7212 32.5,23.5C 31.1667,16.8333 29.8333,16.8333 28.5,23.5C 27.5258,21.2573 27.1924,18.924 27.5,16.5 Z"/></g>
<g><path style="opacity:1" fill="#6a6a6a" d="M 44.5,16.5 C 49.2129,16.4676 50.7129,18.8009 49,23.5C 47.4173,23.507 45.7506,23.1737 44,22.5C 43.3333,21.8333 43.3333,21.1667 44,20.5C 48.5187,18.3673 48.3521,17.5339 43.5,18C 44.056,17.6174 44.3893,17.1174 44.5,16.5 Z"/></g>
<g><path style="opacity:1" fill="#606060" d="M 17.5,17.5 C 18.4959,17.4142 19.3292,17.7476 20,18.5C 23.2768,15.6481 25.4435,16.3148 26.5,20.5C 24.8008,20.3398 23.1341,20.5065 21.5,21C 22.6492,22.7441 23.9825,22.9108 25.5,21.5C 26.6956,21.8457 26.6956,22.3457 25.5,23C 23.2992,23.8249 21.4659,23.3249 20,21.5C 19.6924,22.3081 19.1924,22.9747 18.5,23.5C 17.5344,21.604 17.2011,19.604 17.5,17.5 Z"/></g>
<g><path style="opacity:1" fill="#77c409" d="M 172.5,43.5 C 172.305,47.1924 170.305,49.0258 166.5,49C 163.919,52.173 163.919,55.3397 166.5,58.5C 165.533,60.7617 164.866,63.095 164.5,65.5C 143.5,65.5 122.5,65.5 101.5,65.5C 100.131,58.9348 97.7972,52.7682 94.5,47C 98.0247,44.302 101.358,41.4686 104.5,38.5C 121.962,31.1693 139.628,30.6693 157.5,37C 162.521,39.1789 167.521,41.3456 172.5,43.5 Z"/></g>
<g><path style="opacity:1" fill="#484646" d="M 103.5,37.5 C 91.3763,46.4508 79.3763,55.6175 67.5,65C 55.2231,67.364 42.8897,69.364 30.5,71C 27.8333,71.6667 25.1667,72.3333 22.5,73C 24.1341,73.4935 25.8008,73.6602 27.5,73.5C 27.5,73.8333 27.5,74.1667 27.5,74.5C 25.1667,74.5 22.8333,74.5 20.5,74.5C 20.7077,70.8561 22.7077,68.6895 26.5,68C 37.3673,62.8211 48.7006,58.8211 60.5,56C 63.8083,55.3272 65.6416,53.4939 66,50.5C 63.5023,49.4018 61.0023,49.5684 58.5,51C 47.6747,57.2222 36.3414,62.3889 24.5,66.5C 34.764,58.3529 45.0973,50.1862 55.5,42C 70.1174,39.5082 84.7841,37.3416 99.5,35.5C 101.333,35.5854 102.666,36.2521 103.5,37.5 Z"/></g>
<g><path style="opacity:1" fill="#fae122" d="M 198.5,68.5 C 197.448,68.3505 196.448,68.5172 195.5,69C 193.473,71.0939 191.806,73.4272 190.5,76C 187.695,76.4415 185.028,75.9415 182.5,74.5C 181.584,74.5427 180.917,74.8761 180.5,75.5C 179.609,76.1098 178.609,76.4431 177.5,76.5C 173.891,76.225 171.891,74.225 171.5,70.5C 168.668,69.3633 166.334,67.6967 164.5,65.5C 164.866,63.095 165.533,60.7617 166.5,58.5C 163.919,55.3397 163.919,52.173 166.5,49C 170.305,49.0258 172.305,47.1924 172.5,43.5C 173.857,42.3146 175.357,41.3146 177,40.5C 180.667,43.1667 184.333,43.1667 188,40.5C 191.32,41.1531 193.32,43.1531 194,46.5C 195.828,48.0814 197.828,49.4147 200,50.5C 199.436,54.8413 199.603,59.1747 200.5,63.5C 200.563,65.5139 199.897,67.1806 198.5,68.5 Z"/></g>
<g><path style="opacity:1" fill="#ff6b18" d="M 175.5,43.5 C 177.905,43.8664 180.238,44.5331 182.5,45.5C 187.181,42.0054 190.348,43.0054 192,48.5C 194.527,49.7256 196.694,51.3923 198.5,53.5C 197.553,55.059 196.887,56.7257 196.5,58.5C 199.877,62.9089 198.877,65.7422 193.5,67C 191.919,68.828 190.585,70.828 189.5,73C 185.512,72.2724 181.512,72.4391 177.5,73.5C 175.402,71.5112 173.402,69.3446 171.5,67C 170.234,66.6905 169.067,66.1905 168,65.5C 168.825,60.8363 168.659,56.1696 167.5,51.5C 172.371,51.1224 175.038,48.4557 175.5,43.5 Z"/></g>
<g><path style="opacity:1" fill="#474646" d="M 69.5,92.5 C 68.8333,92.5 68.1667,92.5 67.5,92.5C 64.7131,91.5233 61.7131,91.19 58.5,91.5C 53.8189,91.6686 49.1522,92.0019 44.5,92.5C 42.8297,92.2488 41.3297,91.5822 40,90.5C 37.5344,85.5945 35.3678,80.5945 33.5,75.5C 44.8306,73.7783 56.164,71.945 67.5,70C 76.4222,63.6221 85.2556,57.1221 94,50.5C 97.5979,55.6284 98.9312,61.2951 98,67.5C 90.1593,74.3411 82.9926,81.8411 76.5,90C 74.0731,90.9023 71.7397,91.7356 69.5,92.5 Z"/></g>
<g><path style="opacity:1" fill="#ffd9c6" d="M 185.5,55.5 C 184.504,55.4142 183.671,55.7476 183,56.5C 182.808,58.5767 182.308,60.5767 181.5,62.5C 180.516,59.5719 180.183,56.5719 180.5,53.5C 182.781,53.0773 184.448,53.744 185.5,55.5 Z"/></g>
<g><path style="opacity:1" fill="#ffdccc" d="M 185.5,55.5 C 191.774,52.2545 194.274,54.2545 193,61.5C 187.477,63.487 184.977,61.487 185.5,55.5 Z"/></g>
<g><path style="opacity:1" fill="#ff6615" d="M 187.5,55.5 C 188.833,55.5 190.167,55.5 191.5,55.5C 191.949,57.9775 191.283,59.9775 189.5,61.5C 187.717,59.9775 187.051,57.9775 187.5,55.5 Z"/></g>
<g><path style="opacity:1" fill="#ffebe2" d="M 174.5,53.5 C 177.585,53.418 179.252,54.918 179.5,58C 179.099,61.5624 177.099,63.0624 173.5,62.5C 173.649,63.552 173.483,64.552 173,65.5C 172.019,61.1827 172.519,57.1827 174.5,53.5 Z"/></g>
<g><path style="opacity:1" fill="#ff691f" d="M 174.5,55.5 C 175.5,55.5 176.5,55.5 177.5,55.5C 177.949,57.9775 177.283,59.9775 175.5,61.5C 173.261,59.8669 172.928,57.8669 174.5,55.5 Z"/></g>
<g><path style="opacity:1" fill="#5f5eee" d="M 101.5,65.5 C 122.5,65.5 143.5,65.5 164.5,65.5C 166.334,67.6967 168.668,69.3633 171.5,70.5C 171.891,74.225 173.891,76.225 177.5,76.5C 176.676,101.428 176.176,126.428 176,151.5C 174.5,157 171,160.5 165.5,162C 141.167,162.333 116.833,162.667 92.5,163C 84.1086,168.853 75.7752,174.686 67.5,180.5C 67.8168,176.298 67.4834,172.298 66.5,168.5C 56.0597,170.363 48.893,166.363 45,156.5C 44.5,135.169 44.3334,113.836 44.5,92.5C 49.1522,92.0019 53.8189,91.6686 58.5,91.5C 58.1698,110.008 58.5032,128.341 59.5,146.5C 59.5,146.833 59.5,147.167 59.5,147.5C 60.2775,150.112 61.9441,151.945 64.5,153C 97.9186,153.986 131.252,153.652 164.5,152C 166.487,150.681 167.654,148.848 168,146.5C 168.667,126.167 168.667,105.833 168,85.5C 166.841,82.5066 164.675,80.8399 161.5,80.5C 137.672,79.5024 113.672,79.1691 89.5,79.5C 92.4989,75.6684 95.9989,72.3351 100,69.5C 100.41,68.0993 100.91,66.766 101.5,65.5 Z"/></g>
<g><path style="opacity:1" fill="#77c508" d="M 198.5,68.5 C 207.514,81.3855 211.014,95.7189 209,111.5C 205.435,141.375 190.935,164.209 165.5,180C 154.751,184.902 143.417,186.902 131.5,186C 118.916,188.696 106.249,190.863 93.5,192.5C 86.0183,191.809 78.6849,190.476 71.5,188.5C 79.9197,181.777 88.5864,175.277 97.5,169C 121.833,168.667 146.167,168.333 170.5,168C 177.739,166.362 181.906,161.862 183,154.5C 183.667,129.167 183.667,103.833 183,78.5C 182.764,76.8807 181.931,75.8807 180.5,75.5C 180.917,74.8761 181.584,74.5427 182.5,74.5C 185.028,75.9415 187.695,76.4415 190.5,76C 191.806,73.4272 193.473,71.0939 195.5,69C 196.448,68.5172 197.448,68.3505 198.5,68.5 Z"/></g>
<g><path style="opacity:1" fill="#2a2929" d="M 103.5,37.5 C 104.167,37.5 104.5,37.8333 104.5,38.5C 101.358,41.4686 98.0247,44.302 94.5,47C 97.7972,52.7682 100.131,58.9348 101.5,65.5C 100.91,66.766 100.41,68.0993 100,69.5C 95.9989,72.3351 92.4989,75.6684 89.5,79.5C 85.3584,82.6068 82.025,86.4402 79.5,91C 76.3117,92.3158 72.9783,92.8158 69.5,92.5C 71.7397,91.7356 74.0731,90.9023 76.5,90C 82.9926,81.8411 90.1593,74.3411 98,67.5C 98.9312,61.2951 97.5979,55.6284 94,50.5C 85.2556,57.1221 76.4222,63.6221 67.5,70C 56.164,71.945 44.8306,73.7783 33.5,75.5C 32.0101,73.7202 30.0101,73.0535 27.5,73.5C 25.8008,73.6602 24.1341,73.4935 22.5,73C 25.1667,72.3333 27.8333,71.6667 30.5,71C 42.8897,69.364 55.2231,67.364 67.5,65C 79.3763,55.6175 91.3763,46.4508 103.5,37.5 Z"/></g>
<g><path style="opacity:1" fill="#8d8df3" d="M 118.5,70.5 C 120.833,70.5 123.167,70.5 125.5,70.5C 126.245,73.9304 124.911,75.597 121.5,75.5C 117.712,75.4562 116.712,73.7895 118.5,70.5 Z"/></g>
<g><path style="opacity:1" fill="#8e8ef3" d="M 132.5,70.5 C 142.172,70.3335 151.839,70.5002 161.5,71C 162.833,72.3333 162.833,73.6667 161.5,75C 151.839,75.4998 142.172,75.6665 132.5,75.5C 132.5,73.8333 132.5,72.1667 132.5,70.5 Z"/></g>
<g><path style="opacity:1" fill="#77c40d" d="M 27.5,73.5 C 30.0101,73.0535 32.0101,73.7202 33.5,75.5C 35.3678,80.5945 37.5344,85.5945 40,90.5C 41.3297,91.5822 42.8297,92.2488 44.5,92.5C 44.3334,113.836 44.5,135.169 45,156.5C 48.893,166.363 56.0597,170.363 66.5,168.5C 66.8293,174.537 66.4959,180.537 65.5,186.5C 25.4413,171.056 8.60801,142.056 15,99.5C 16.5177,93.7516 18.6844,88.4182 21.5,83.5C 23.7012,85.4746 24.0346,87.808 22.5,90.5C 24.0875,94.6538 25.2542,98.9871 26,103.5C 29.1927,103.77 32.1927,102.77 35,100.5C 32.5405,96.9147 30.5405,92.9147 29,88.5C 25.457,87.0811 23.6237,84.4145 23.5,80.5C 24.4411,78.2279 25.7745,76.2279 27.5,74.5C 27.5,74.1667 27.5,73.8333 27.5,73.5 Z"/></g>
<g><path style="opacity:1" fill="#f3f6ea" d="M 20.5,74.5 C 22.8333,74.5 25.1667,74.5 27.5,74.5C 25.7745,76.2279 24.4411,78.2279 23.5,80.5C 22.1302,78.7496 21.1302,76.7496 20.5,74.5 Z"/></g>
<g><path style="opacity:1" fill="#4848de" d="M 180.5,75.5 C 181.931,75.8807 182.764,76.8807 183,78.5C 183.667,103.833 183.667,129.167 183,154.5C 181.906,161.862 177.739,166.362 170.5,168C 146.167,168.333 121.833,168.667 97.5,169C 88.5864,175.277 79.9197,181.777 71.5,188.5C 70.1667,188.5 68.8333,188.5 67.5,188.5C 67.5,185.833 67.5,183.167 67.5,180.5C 75.7752,174.686 84.1086,168.853 92.5,163C 116.833,162.667 141.167,162.333 165.5,162C 171,160.5 174.5,157 176,151.5C 176.176,126.428 176.676,101.428 177.5,76.5C 178.609,76.4431 179.609,76.1098 180.5,75.5 Z"/></g>
<g><path style="opacity:1" fill="#fbfbfc" d="M 89.5,79.5 C 113.672,79.1691 137.672,79.5024 161.5,80.5C 161.667,100.503 161.5,120.503 161,140.5C 160.167,144 158,146.167 154.5,147C 122.835,147.5 91.1684,147.667 59.5,147.5C 59.5,147.167 59.5,146.833 59.5,146.5C 59.5,128.5 59.5,110.5 59.5,92.5C 62.1667,92.5 64.8333,92.5 67.5,92.5C 68.1667,92.5 68.8333,92.5 69.5,92.5C 72.9783,92.8158 76.3117,92.3158 79.5,91C 82.025,86.4402 85.3584,82.6068 89.5,79.5 Z"/></g>
<g><path style="opacity:1" fill="#e3e1fe" d="M 161.5,80.5 C 164.675,80.8399 166.841,82.5066 168,85.5C 168.667,105.833 168.667,126.167 168,146.5C 167.654,148.848 166.487,150.681 164.5,152C 131.252,153.652 97.9186,153.986 64.5,153C 61.9441,151.945 60.2775,150.112 59.5,147.5C 91.1684,147.667 122.835,147.5 154.5,147C 158,146.167 160.167,144 161,140.5C 161.5,120.503 161.667,100.503 161.5,80.5 Z"/></g>
<g><path style="opacity:1" fill="#eeb437" d="M 20.5,74.5 C 21.1302,76.7496 22.1302,78.7496 23.5,80.5C 23.6237,84.4145 25.457,87.0811 29,88.5C 30.5405,92.9147 32.5405,96.9147 35,100.5C 32.1927,102.77 29.1927,103.77 26,103.5C 25.2542,98.9871 24.0875,94.6538 22.5,90.5C 24.0346,87.808 23.7012,85.4746 21.5,83.5C 20.806,79.9175 19.806,76.4175 18.5,73C 18.6667,72.1667 18.8333,71.3333 19,70.5C 20.8121,69.0229 22.6455,67.6896 24.5,66.5C 36.3414,62.3889 47.6747,57.2222 58.5,51C 61.0023,49.5684 63.5023,49.4018 66,50.5C 65.6416,53.4939 63.8083,55.3272 60.5,56C 48.7006,58.8211 37.3673,62.8211 26.5,68C 22.7077,68.6895 20.7077,70.8561 20.5,74.5 Z"/></g>
<g><path style="opacity:1" fill="#cdcdef" d="M 58.5,91.5 C 61.7131,91.19 64.7131,91.5233 67.5,92.5C 64.8333,92.5 62.1667,92.5 59.5,92.5C 59.5,110.5 59.5,128.5 59.5,146.5C 58.5032,128.341 58.1698,110.008 58.5,91.5 Z"/></g>
<g><path style="opacity:1" fill="#60c25d" d="M 108.5,94.5 C 120.705,94.5334 125.871,100.533 124,112.5C 119.68,119.91 113.513,122.076 105.5,119C 99.888,114.824 98.0547,109.324 100,102.5C 102.074,98.9231 104.907,96.2565 108.5,94.5 Z"/></g>
<g><path style="opacity:1" fill="#f5f7f9" d="M 108.5,101.5 C 112.547,102.195 115.881,104.195 118.5,107.5C 115.881,110.805 112.547,112.805 108.5,113.5C 108.5,109.5 108.5,105.5 108.5,101.5 Z"/></g>
<g><path style="opacity:1" fill="#8b8af3" d="M 49.5,121.5 C 51.1439,121.286 52.6439,121.62 54,122.5C 54.6667,129.167 54.6667,135.833 54,142.5C 52.5421,143.747 51.0421,143.747 49.5,142.5C 48.2056,135.443 48.2056,128.443 49.5,121.5 Z"/></g>
<g><path style="opacity:1" fill="#555454" d="M 81.5,121.5 C 83.0174,121.511 84.1841,122.177 85,123.5C 86.7519,126.672 88.7519,129.672 91,132.5C 91.1747,128.789 91.6747,125.122 92.5,121.5C 93.4941,126.456 93.8275,131.456 93.5,136.5C 92.325,136.719 91.325,136.386 90.5,135.5C 88.5823,131.996 86.4157,128.663 84,125.5C 83.8265,129.541 83.3265,133.541 82.5,137.5C 81.5052,132.208 81.1718,126.875 81.5,121.5 Z"/></g>
<g><path style="opacity:1" fill="#4c4c4c" d="M 131.5,125.5 C 132.809,127.571 133.475,130.071 133.5,133C 133.333,135.5 133.167,138 133,140.5C 131.817,141.731 130.651,141.731 129.5,140.5C 131.37,135.739 132.037,130.739 131.5,125.5 Z"/></g>
<g><path style="opacity:1" fill="#686767" d="M 119.5,122.5 C 121.057,123.466 122.39,124.8 123.5,126.5C 120.881,129.748 120.881,132.915 123.5,136C 122.216,136.684 121.049,136.517 120,135.5C 119.064,131.089 118.898,126.755 119.5,122.5 Z"/></g>
<g><path style="opacity:1" fill="#4c4c4c" d="M 99.5,125.5 C 104.186,124.984 106.519,126.984 106.5,131.5C 103.833,131.5 101.167,131.5 98.5,131.5C 99.4608,135.996 101.794,136.663 105.5,133.5C 105.833,133.833 106.167,134.167 106.5,134.5C 103.338,138.415 100.171,138.415 97,134.5C 95.9271,130.9 96.7605,127.9 99.5,125.5 Z"/></g>
<g><path style="opacity:1" fill="#ededed" d="M 99.5,127.5 C 101.665,127.116 103.332,127.783 104.5,129.5C 102.5,130.833 100.5,130.833 98.5,129.5C 98.8627,128.817 99.1961,128.15 99.5,127.5 Z"/></g>
<g><path style="opacity:1" fill="#535252" d="M 137.5,125.5 C 139.827,125.247 141.827,125.914 143.5,127.5C 141.576,127.567 139.576,127.9 137.5,128.5C 138.714,130.069 140.381,130.902 142.5,131C 145.52,134.744 144.52,136.911 139.5,137.5C 136.982,137.16 135.815,135.826 136,133.5C 137.789,135.229 139.956,135.896 142.5,135.5C 142.5,134.5 142.5,133.5 142.5,132.5C 139.145,132.632 136.811,131.299 135.5,128.5C 135.942,127.261 136.609,126.261 137.5,125.5 Z"/></g>
<g><path style="opacity:1" fill="#545454" d="M 108.5,125.5 C 110.193,126.475 111.693,127.808 113,129.5C 113.732,127.077 115.232,125.91 117.5,126C 116.484,127.677 115.484,129.343 114.5,131C 118.955,137.96 118.288,138.793 112.5,133.5C 111.725,135.475 110.391,136.309 108.5,136C 109.376,134.414 110.376,132.914 111.5,131.5C 110.441,129.466 109.441,127.466 108.5,125.5 Z"/></g>
</svg>
