<svg xmlns="http://www.w3.org/2000/svg" xmlns:xlink="http://www.w3.org/1999/xlink" width="350" height="350"><style>.B{fill:#fff}.C{fill:#abe751}.D{fill:#b5f0ff}.E{clip-path:url(#A)}</style><defs><path id="G" d="M203.864 129.587h-1.779a.8.8 0 0 1-.75-1.217.8.8 0 0 1 .75-.377h1.779a.8.8 0 0 1 0 1.594z"/><path id="M" d="M203.864 127.994h-1.779a.8.8 0 0 0 0 1.594h1.779a.8.8 0 0 0 .75-1.217.8.8 0 0 0-.75-.377z"/><path id="C" d="M210.867 120.206h-6.648a.8.8 0 0 1 0-1.594h6.648a.8.8 0 0 1 .75 1.217.8.8 0 0 1-.75.377z"/><path id="D" d="M201.585 120.206h-1.782a.8.8 0 0 1 0-1.594h1.782a.8.8 0 0 1 0 1.594z"/><path id="E" d="M210.866 125.134h-11.017a.8.8 0 0 1-.75-1.217.8.8 0 0 1 .75-.377h11.017a.8.8 0 0 1 .75 1.217.8.8 0 0 1-.75.377z"/><path id="F" d="M210.866 129.587h-4.363a.8.8 0 0 1-.75-1.217.8.8 0 0 1 .75-.377h4.368a.8.8 0 0 1 0 1.594z"/><path id="B" d="M210.867 115.753h-13.293a.8.8 0 0 1-.75-1.217.8.8 0 0 1 .75-.377h13.3a.8.8 0 0 1 .75 1.217.8.8 0 0 1-.75.377z"/><path id="H" d="m223.73 121.762 8.845 5.67 21.71-13.913v-3.1a2.092 2.092 0 0 0-2.092-2.092H212.96a2.09 2.09 0 0 0-2.093 2.093v3.1l12.863 8.243z"/><path id="I" d="m232.576 127.432-8.846-5.67-12.865 8.4v3.169a2.09 2.09 0 0 0 2.093 2.092h39.235a2.092 2.092 0 0 0 2.092-2.092v-3.169l-12.864-8.4z"/><path id="J" d="M222.611 134.626h-1.666a.8.8 0 0 0 0 1.594h1.666a.8.8 0 0 0 .75-1.217.8.8 0 0 0-.75-.377z"/><path id="K" d="M252.192 107.528h-39.233a2.892 2.892 0 0 0-2.885 2.893v3.742h-12.5a.8.8 0 0 0 0 1.594h12.5v2.859h-5.855a.8.8 0 0 0-.75 1.217.8.8 0 0 0 .75.377h5.855v3.331h-10.223a.8.8 0 0 0-.75 1.217.8.8 0 0 0 .75.377h10.223v2.859h-3.575a.8.8 0 0 0 0 1.594h3.575v3.742a2.894 2.894 0 0 0 2.89 2.89h3.972a.8.8 0 0 0 .75-1.217.8.8 0 0 0-.75-.377h-3.977a1.3 1.3 0 0 1-1.3-1.3v-2.733l12.072-7.881 8.41 5.389a.8.8 0 0 0 .86 0l8.41-5.39 12.072 7.881v2.737a1.3 1.3 0 0 1-1.3 1.3h-25.558a.8.8 0 0 0 0 1.594h25.567a2.893 2.893 0 0 0 2.89-2.889v-22.913a2.893 2.893 0 0 0-2.89-2.889zm-40.528 21.161v-13.711l10.6 6.791zm31.224-6.921 4.391-2.814a.8.8 0 0 0-.025-1.43.8.8 0 0 0-.835.088l-5.445 3.488-8.4 5.38-20.91-13.398v-2.661a1.3 1.3 0 0 1 1.3-1.3h39.228a1.3 1.3 0 0 1 1.3 1.3v2.664l-3.351 2.147a.8.8 0 0 0 .025 1.43.8.8 0 0 0 .835-.088l2.49-1.594v13.709z"/><path id="L" d="M199.803 120.207h1.782a.8.8 0 0 0 0-1.594h-1.782a.8.8 0 0 0 0 1.594z"/><clipPath id="A"><path d="M0 0h350v350H0z"/></clipPath></defs><g class="E"><path d="M0 0h350v350H0z" class="B"/><g class="E"><path d="M0 0h350v350H0z" class="B"/><path fill="#3392ff" d="M291.66 253.32c-17.852 20.311-45.491 39.038-73.375 36.855-42.115-3.288-58.618 25.947-124.974-3.378a143.52 143.52 0 0 1-27.476-15.81 119.778 119.778 0 0 1-11.913-10.042c-33.097-31.753-39.771-75.693-26.961-113.874 16.912-50.288 59.734-60.581 86.997-65.76s74.354-48.212 139.792-19.878a139.66 139.66 0 0 1 28.254 16.235c19.923 14.94 37.346 37.464 42.809 62.585q.633 2.818 1.064 5.705c5.822 37.47-9.871 79.667-34.217 107.361z"/><text font-family="SegoeUI, Segoe UI" font-size="20" letter-spacing=".02em" transform="translate(14.325 37)"><tspan x="0" y="0">mernfa</tspan><tspan y="0" font-family="FarAdell, Far\.Adell">.</tspan><tspan y="0">ir</tspan></text></g><path fill="#f2f2f2" d="M130.78 175c.004 25.679-20.632 46.592-46.309 46.93s-46.856-20.024-47.529-45.694 19.412-47.113 45.071-48.12 47.362 18.797 48.703 44.441q.065 1.215.064 2.443z"/><path fill="#3b8739" d="M81.995 178.731v-12.08l-10.461-6.04-10.461 6.04v12.08l10.461 6.04z"/><path fill="#333" d="m123.195 176.898 6.818 3.937-6.818 3.937-10.461-6.04v-12.08l10.461-6.04 6.34 3.662a46.2 46.2 0 0 1 1.182 8.283l-3.876 2.238v-4.206l-3.645-2.1-3.645 2.1v4.208z"/><path fill="#66a060" d="M125.225 173.863v-2.345l-2.031-1.172-2.031 1.172v2.345l2.031 1.173z"/><path fill="#333" d="M56.131 166.652v15.93l-6.977-3.98v-8.166l-3.484-2.012-3.484 2.012v8.166l-3.961 2.26a46.889 46.889 0 0 1 .84-16.436l6.605-3.814z"/><path fill="#6da75d" d="m71.532 160.611 10.461 18.118-10.46 6.04-10.461-18.118z"/><path fill="#55a344" d="m61.072 178.731 3.592-5.858-3.592-6.222z"/><path fill="#639d57" d="m78.507 172.69 3.488-6.039-10.461-6.04z"/><path fill="#333" d="M100.753 146.611v16.026l-3.506-2.025-10.462 6.04v12.08l10.462 6.04 10.461-6.04v-28.4zm-.019 28.093-3.488 2.014-3.488-2.014v-4.026l3.488-2.014 3.488 2.014z"/><path fill="#66a060" d="M89.064 193.642a2.034 2.034 0 0 0-2.094-1.766c-1.889 0-3.182.246-3.182 1.293s3.675 1.047 5.071 1.458 2.628 1.478 2.012 3.367-2.5 2.094-5.42 2.094a3.39 3.39 0 0 1-3.573-3.367h1.646s-.205 1.478 1.725 1.725 3.775.385 4.024-1.109c.329-1.971-6.242-.986-6.817-2.915-.486-1.631-.205-3.778 3.08-4.106s5.092 1.122 5.092 3.285zm-15.867 7.697 3.631 2.1c.847.489 1.89.489 2.736 0a2.74 2.74 0 0 0 1.369-2.37v-10.438h-1.48v10.023a1.493 1.493 0 0 1-2.242 1.294l-2.535-1.463v-10.7l9.264-5.348 9.264 5.348v10.7l-9.264 5.348-2.669-1.541-1.743.7 4.411 2.547 10.744-6.2v-12.408l-10.744-6.2-10.744 6.2v12.405z"/><g class="C"><use xlink:href="#B"/><use xlink:href="#C"/><use xlink:href="#D"/><use xlink:href="#E"/></g><use xlink:href="#F" class="B"/><use xlink:href="#G" class="C"/><path d="M210.867 113.518v16.644l12.863-8.4z" class="D"/><use xlink:href="#H" class="B"/><g class="D"><use xlink:href="#I"/><path d="m241.42 121.762 12.864 8.4v-16.644z"/></g><use xlink:href="#J"/><use xlink:href="#K"/><use xlink:href="#L"/><use xlink:href="#M"/><path d="M210.867 222.005h-13.293a.8.8 0 1 1 0-1.594h13.3a.8.8 0 1 1 0 1.594zm0 4.453h-6.648a.8.8 0 0 1 0-1.594h6.648a.8.8 0 1 1 0 1.594zm-9.282 0h-1.782a.8.8 0 0 1 0-1.594h1.782a.8.8 0 0 1 0 1.594zm9.281 4.928h-11.017a.8.8 0 1 1 0-1.594h11.017a.8.8 0 1 1 0 1.594z" class="C"/><path d="M210.866 235.839h-4.363a.8.8 0 0 1-.75-1.217.8.8 0 0 1 .75-.377h4.368a.8.8 0 0 1 0 1.594z" class="B"/><path d="M203.864 235.839h-1.779a.8.8 0 0 1-.75-1.217.8.8 0 0 1 .75-.377h1.779a.8.8 0 0 1 0 1.594z" class="C"/><path d="M210.867 219.77v16.644l12.863-8.4z" class="D"/><path d="m223.73 228.014 8.845 5.67 21.71-13.913v-3.1a2.092 2.092 0 0 0-2.092-2.092H212.96a2.09 2.09 0 0 0-2.093 2.093v3.1l12.863 8.243z" class="B"/><g class="D"><path d="m232.576 233.684-8.846-5.67-12.865 8.4v3.169a2.09 2.09 0 0 0 2.093 2.092h39.235a2.092 2.092 0 0 0 2.092-2.092v-3.169l-12.864-8.4z"/><path d="m241.42 228.014 12.864 8.4V219.77z"/></g><path d="M222.611 240.878h-1.666a.8.8 0 0 0 0 1.594h1.666a.8.8 0 1 0 0-1.594zm29.581-27.098h-39.233a2.892 2.892 0 0 0-2.885 2.893v3.742h-12.5a.8.8 0 0 0 0 1.594h12.5v2.859h-5.855a.8.8 0 1 0 0 1.594h5.855v3.331h-10.223a.8.8 0 1 0 0 1.594h10.223v2.859h-3.575a.8.8 0 0 0 0 1.594h3.575v3.742a2.894 2.894 0 0 0 2.89 2.89h3.972a.8.8 0 1 0 0-1.594h-3.977a1.3 1.3 0 0 1-1.3-1.3v-2.733l12.072-7.881 8.41 5.389a.8.8 0 0 0 .86 0l8.41-5.39 12.072 7.881v2.737a1.3 1.3 0 0 1-1.3 1.3h-25.558a.8.8 0 0 0 0 1.594h25.567a2.893 2.893 0 0 0 2.89-2.889v-22.913a2.893 2.893 0 0 0-2.89-2.889zm-40.528 21.161V221.23l10.6 6.791zm31.224-6.921 4.391-2.814a.8.8 0 1 0-.86-1.342l-5.445 3.488-8.4 5.38-20.91-13.398v-2.661a1.3 1.3 0 0 1 1.3-1.3h39.228a1.3 1.3 0 0 1 1.3 1.3v2.664l-3.351 2.147a.8.8 0 1 0 .86 1.342l2.49-1.594v13.709zm-43.085-1.561h1.782a.8.8 0 0 0 0-1.594h-1.782a.8.8 0 0 0 0 1.594zm4.061 7.787h-1.779a.8.8 0 0 0 0 1.594h1.779a.8.8 0 1 0 0-1.594z"/><path d="M248.867 168.879h-13.293a.8.8 0 1 1 0-1.594h13.3a.8.8 0 1 1 0 1.594zm0 4.453h-6.648a.8.8 0 0 1 0-1.594h6.648a.8.8 0 1 1 0 1.594zm-9.282 0h-1.782a.8.8 0 0 1 0-1.594h1.782a.8.8 0 0 1 0 1.594zm9.281 4.928h-11.017a.8.8 0 1 1 0-1.594h11.017a.8.8 0 1 1 0 1.594z" class="C"/><path d="M248.866 182.713h-4.363a.8.8 0 0 1-.75-1.217.8.8 0 0 1 .75-.377h4.368a.8.8 0 0 1 0 1.594z" class="B"/><path d="M241.864 182.713h-1.779a.8.8 0 0 1-.75-1.217.8.8 0 0 1 .75-.377h1.779a.8.8 0 0 1 0 1.594z" class="C"/><path d="M248.867 166.644v16.644l12.863-8.4z" class="D"/><path d="m261.73 174.888 8.845 5.67 21.71-13.913v-3.1a2.092 2.092 0 0 0-2.092-2.092H250.96a2.09 2.09 0 0 0-2.093 2.093v3.1l12.863 8.243z" class="B"/><g class="D"><path d="m270.576 180.558-8.846-5.67-12.865 8.4v3.169a2.09 2.09 0 0 0 2.093 2.092h39.235a2.092 2.092 0 0 0 2.092-2.092v-3.169l-12.864-8.4z"/><path d="m279.42 174.888 12.864 8.4v-16.644z"/></g><path d="M260.611 187.752h-1.666a.8.8 0 0 0 0 1.594h1.666a.8.8 0 1 0 0-1.594zm29.581-27.098h-39.233a2.892 2.892 0 0 0-2.885 2.893v3.742h-12.5a.8.8 0 0 0 0 1.594h12.5v2.859h-5.855a.8.8 0 1 0 0 1.594h5.855v3.331h-10.223a.8.8 0 1 0 0 1.594h10.223v2.859h-3.575a.8.8 0 0 0 0 1.594h3.575v3.742a2.894 2.894 0 0 0 2.89 2.89h3.972a.8.8 0 1 0 0-1.594h-3.977a1.3 1.3 0 0 1-1.3-1.3v-2.733l12.072-7.881 8.41 5.389a.8.8 0 0 0 .86 0l8.41-5.39 12.072 7.881v2.737a1.3 1.3 0 0 1-1.3 1.3h-25.558a.8.8 0 0 0 0 1.594h25.567a2.893 2.893 0 0 0 2.89-2.889v-22.913a2.893 2.893 0 0 0-2.89-2.889zm-40.528 21.161v-13.711l10.6 6.791zm31.224-6.921 4.391-2.814a.8.8 0 1 0-.86-1.342l-5.445 3.488-8.4 5.38-20.91-13.398v-2.661a1.3 1.3 0 0 1 1.3-1.3h39.228a1.3 1.3 0 0 1 1.3 1.3v2.664l-3.351 2.147a.8.8 0 1 0 .86 1.342l2.49-1.594v13.709zm-43.085-1.561h1.782a.8.8 0 0 0 0-1.594h-1.782a.8.8 0 0 0 0 1.594zm4.061 7.787h-1.779a.8.8 0 0 0 0 1.594h1.779a.8.8 0 1 0 0-1.594z"/><path d="M163.42 194.667c.058.807-.29 1.59-.929 2.087a2.952 2.952 0 0 1-2.013.775l-8.874-.2a1.68 1.68 0 0 1-1.7-1.799l-1.626-23.031 9.725.161.761 17.015a1.891 1.891 0 0 0 1.874 1.878 3.152 3.152 0 0 1 2.088.93 6.56 6.56 0 0 1 .694 2.185z" class="B"/><path fill="#fff700" d="M190.209 153.233a3.342 3.342 0 0 0-1.18.308c-11.312 6.219-23.653 10.521-36.627 10.164l-.85.038-.417 15.448 1.025.039c12.972.357 24.957 5.277 35.992 11.859a2.42 2.42 0 0 0 1.121.29c3.325.023 6.193-8.29 6.49-18.788.374-10.677-2.054-19.258-5.554-19.358z"/><path d="M195.843 172.414c-.295 10.499-3.243 18.984-6.49 18.789a2.42 2.42 0 0 1-1.122-.292c-10.957-6.751-23.194-11.575-35.994-11.855l-1.025-.039.215-4.696c12.722.454 24.532 5.296 35.316 11.974a2.42 2.42 0 0 0 1.12.291c3.326.022 6.194-8.29 6.491-18.789a54.558 54.558 0 0 0-.938-11.468c1.68 3.25 2.545 9.263 2.427 16.085z" opacity=".07"/><path fill="#14e7ff" d="M161.334 163.304a50.126 50.126 0 0 1-8.757.482l-3.499-.1a2.871 2.871 0 0 0-2.945 2.855l-.336 9.648a2.871 2.871 0 0 0 2.864 2.939l3.5.1a45.594 45.594 0 0 1 8.565.894z"/><path d="M160.974 180.03a58.82 58.82 0 0 0-8.565-.896l-3.494-.101a2.871 2.871 0 0 1-2.859-2.941l-.024-.424 3.325.022a8.494 8.494 0 0 0 8.84-8.155l.156-4.098c1.103-.135 2.124-.097 3.23-.23z" opacity=".07"/><path fill="#bbfaff" d="M202.409 173.513a1.56 1.56 0 0 0 1.102.454h8.927a1.564 1.564 0 0 0 0-3.126h-8.927c-.631 0-1.2.38-1.443.962a1.56 1.56 0 0 0 .334 1.702zm1.03-11.097a1.56 1.56 0 0 0 1.19-.054l8.09-3.773a1.563 1.563 0 0 0-1.321-2.833l-8.09 3.773a1.564 1.564 0 0 0-.901 1.482 1.56 1.56 0 0 0 1.022 1.401zm-1.031 22.07a1.56 1.56 0 0 0 .88.803l8.388 3.053a1.563 1.563 0 0 0 1.069-2.937l-8.388-3.053a1.56 1.56 0 0 0-1.685.411 1.562 1.562 0 0 0-.268 1.713z"/></g></svg>