<svg xmlns="http://www.w3.org/2000/svg" width="350" height="350"><style>.B{font-family:Consolas-Bold,Consolas}.C{font-weight:700}.D{clip-path:url(#A)}</style><defs><clipPath id="A"><path d="M0 0h350v350H0z"/></clipPath></defs><g class="D"><path fill="#fff" d="M0 0h350v350H0z"/><g class="D"><path fill="#fff" d="M0 0h350v350H0z"/><path fill="#2ad299" d="M291.66 253.32c-17.852 20.311-45.491 39.038-73.375 36.855-42.115-3.288-58.618 25.947-124.974-3.378a143.52 143.52 0 0 1-27.476-15.81 119.778 119.778 0 0 1-11.913-10.042c-33.097-31.753-39.771-75.693-26.961-113.874 16.912-50.288 59.734-60.581 86.997-65.76s74.354-48.212 139.792-19.878a139.66 139.66 0 0 1 28.254 16.235c19.923 14.94 37.346 37.464 42.809 62.585q.633 2.818 1.064 5.705c5.822 37.47-9.871 79.667-34.217 107.361z"/><text font-family="SegoeUI, Segoe UI" font-size="20" letter-spacing=".02em" transform="translate(14.325 37)"><tspan x="0" y="0">mernfa</tspan><tspan y="0" font-family="FarAdell, Far\.Adell">.</tspan><tspan y="0">ir</tspan></text></g><path fill="#efefef" d="M263.2 94.467v133.237a7.316 7.316 0 0 1-7.316 7.316h-38.515v-43.779a3.66 3.66 0 0 0-3.658-3.658h-81.319a3.66 3.66 0 0 0-3.658 3.658v43.778H94.145a7.316 7.316 0 0 1-7.316-7.316V94.467a7.32 7.32 0 0 1 7.316-7.316h161.74a7.316 7.316 0 0 1 7.316 7.316z"/><path fill="#13bf6d" d="M153.748 164.209c7.544-11.44 5.201-26.734-5.42-35.393s-26.073-7.87-35.759 1.824-10.459 25.147-1.791 35.761 23.964 12.941 35.398 5.387l11.94 4.39z"/><path fill="#efefef" d="m123.708 160.407-6.336-6.336a4.316 4.316 0 1 1 6.109-6.1l3.285 3.285 12.671-12.675a4.315 4.315 0 0 1 6.1 6.1l-15.72 15.726a4.318 4.318 0 0 1-6.11 0z"/><path fill="#afafaf" d="M252.029 160.243v24.662a7.8 7.8 0 0 1-7.8 7.8h-9.284a7.79 7.79 0 0 1-7.791-7.8v-24.662a10.892 10.892 0 0 0-11.435-10.864 11.09 11.09 0 0 0-10.336 11.186v21.9h8.333a8.78 8.78 0 0 1 8.779 8.779v43.778h-5.122v-43.781a3.66 3.66 0 0 0-3.658-3.658h-81.323a3.66 3.66 0 0 0-3.658 3.658v43.778h-5.121v-43.778a8.78 8.78 0 0 1 8.779-8.779h48.117v-21.619c0-19.577 15.488-35.98 35.065-36.353a35.8 35.8 0 0 1 36.455 35.753z"/><path fill="#fff" d="M255.884 229.533h-30a1.83 1.83 0 0 1-1.829-1.829 1.83 1.83 0 0 1 1.829-1.829h28.137V119.107a1.83 1.83 0 0 1 2.744-1.584 1.83 1.83 0 0 1 .914 1.584v108.6a1.83 1.83 0 0 1-1.8 1.829z"/><path fill="#72c2e9" d="M255.88 87.144H129.32l8.047 19.49a7.317 7.317 0 0 0 6.767 4.529h119.067v-16.7a7.318 7.318 0 0 0-7.321-7.319z"/><circle cx="247.398" cy="99.156" r="4.192" fill="#fc5d3d"/><circle cx="226.562" cy="99.156" r="4.192" fill="#f0c020"/><circle cx="205.719" cy="99.156" r="4.192" fill="#13bf6d"/><rect width="88.639" height="75.244" x="128.734" y="187.583" fill="#72c2e9" rx="5"/><path fill="#c5e5fe" d="M210.058 257.34h-64.489a1.83 1.83 0 0 1-1.829-1.829 1.83 1.83 0 0 1 1.829-1.829h62.66v-58.783a1.83 1.83 0 0 1 2.744-1.584 1.83 1.83 0 0 1 .914 1.584v60.612a1.83 1.83 0 0 1-1.829 1.829zm-71.805 0h-2.195a1.83 1.83 0 0 1-1.584-2.744 1.83 1.83 0 0 1 1.584-.914h2.195a1.83 1.83 0 0 1 1.584 2.744 1.83 1.83 0 0 1-1.584.914z"/><path fill="#f0c020" d="M246.908 160.785v22.679a4.134 4.134 0 0 1-4.141 4.133h-6.357a4.135 4.135 0 0 1-4.133-4.133v-22.825c0-8.677-6.738-16.095-15.4-16.388a16.012 16.012 0 0 0-16.614 15.993v27.339H185.63v-27.339c.026-16.694 13.399-30.3 30.09-30.615 17.149-.324 31.188 14.008 31.188 31.156z"/><path fill="#e8a61e" d="M185.63 182.462h14.632v5.121H185.63z"/><path fill="#878787" d="M183.552 216.92a11.26 11.26 0 0 0-21.528-4.618 11.26 11.26 0 0 0 3.604 13.69c.568.411.905 1.069.907 1.77v11.815a5.854 5.854 0 0 0 5.37 5.94 5.76 5.76 0 0 0 6.138-5.743v-12.012a2.195 2.195 0 0 1 .9-1.763 11.23 11.23 0 0 0 4.609-9.079z"/><path fill="#fff" d="M117.219 229.533h-12.437a1.83 1.83 0 0 1-1.584-2.744 1.83 1.83 0 0 1 1.584-.914h12.437a1.83 1.83 0 0 1 1.584 2.744 1.83 1.83 0 0 1-1.584.914zm-19.753 0h-3.321a1.83 1.83 0 0 1-1.584-2.744 1.83 1.83 0 0 1 1.584-.914h3.321a1.83 1.83 0 0 1 1.584 2.744 1.83 1.83 0 0 1-1.584.914z"/><path d="m138.142 137.287-11.376 11.361-2-1.975a6.15 6.15 0 0 0-8.578.113 6.144 6.144 0 0 0-.106 8.578l6.336 6.336a6.14 6.14 0 0 0 8.684 0l15.731-15.723a6.144 6.144 0 0 0-2.724-10.346 6.146 6.146 0 0 0-5.967 1.655zm6.1 6.1-15.72 15.73a2.552 2.552 0 0 1-3.519 0l-6.321-6.34a2.49 2.49 0 0 1 .056-3.462 2.49 2.49 0 0 1 3.463-.05l3.285 3.285a1.83 1.83 0 0 0 2.583 0l12.656-12.681a2.49 2.49 0 0 1 4.163 1.115 2.49 2.49 0 0 1-.644 2.404zm7.362-14.075c-10.534-10.525-27.391-11.178-38.708-1.5s-13.289 26.431-4.528 38.472 25.309 15.319 37.999 7.529l11.091 4.053a1.83 1.83 0 0 0 2.341-2.347l-4.049-11.089a28.61 28.61 0 0 0-4.148-35.116zm.4 35.526 3.007 8.245-8.245-3.014a1.82 1.82 0 0 0-1.631.19c-10.655 7.032-24.903 4.856-32.974-5.036s-7.343-24.286 1.684-33.313 23.422-9.755 33.313-1.684a24.88 24.88 0 0 1 5.036 32.974 1.807 1.807 0 0 0-.161 1.639zm-33.688-65.045h-15.158a1.83 1.83 0 0 0-1.829 1.829 1.83 1.83 0 0 0 1.829 1.829h15.158a1.83 1.83 0 0 0 1.584-2.744 1.83 1.83 0 0 0-1.584-.914zm135.1-.636a6.02 6.02 0 1 0-6.021 6.014 6.02 6.02 0 0 0 6.021-6.014zm-8.384 0a2.363 2.363 0 0 1 4.032-1.68 2.36 2.36 0 0 1 .515 2.576 2.363 2.363 0 0 1-4.547-.896zm-12.459 0a6.02 6.02 0 1 0-6.014 6.014 6.021 6.021 0 0 0 6.017-6.015zm-8.377 0a2.363 2.363 0 0 1 4.032-1.68 2.36 2.36 0 0 1 .515 2.576 2.363 2.363 0 0 1-4.547-.896zm-12.459 0a6.02 6.02 0 1 0-6 6.014 6.022 6.022 0 0 0 6-6.014zm-8.377 0a2.363 2.363 0 1 1 .701 1.671 2.363 2.363 0 0 1-.696-1.672z"/><circle cx="168.094" cy="111.169" r="1.829"/><path d="M265 227.704V94.467a9.16 9.16 0 0 0-9.145-9.145H94.14a9.16 9.16 0 0 0-9.116 9.145v19.8a1.83 1.83 0 0 0 2.743 1.584 1.83 1.83 0 0 0 .915-1.584V94.511a5.5 5.5 0 0 1 5.487-5.487h33.936l7.565 18.3a9.117 9.117 0 0 0 8.457 5.67h16.651a1.83 1.83 0 0 0 1.584-2.744 1.83 1.83 0 0 0-1.584-.914h-16.651a5.47 5.47 0 0 1-5.077-3.409l-6.987-16.945h123.821a5.5 5.5 0 0 1 5.487 5.487v14.871H175.41a1.83 1.83 0 0 0-1.829 1.829 1.83 1.83 0 0 0 1.829 1.829h85.93v114.706a5.51 5.51 0 0 1-5.487 5.487h-36.65v-41.95a5.49 5.49 0 0 0-5.487-5.487h-11.633v-25.51c0-7.316 5.684-14.171 14.712-14.171a13.9 13.9 0 0 1 9.064 3.848 1.866 1.866 0 0 0 2.582-.051 1.844 1.844 0 0 0-.059-2.59 17.56 17.56 0 0 0-11.449-4.865 17.86 17.86 0 0 0-18.509 17.829v25.51h-10.972v-25.51c.065-15.681 12.613-28.455 28.291-28.8 14.368-.936 29.329 12.1 29.329 29.344v22.679a2.32 2.32 0 0 1-2.312 2.312h-6.358a2.313 2.313 0 0 1-2.3-2.312v-21.65a1.83 1.83 0 0 0-2.744-1.584 1.83 1.83 0 0 0-.914 1.584v21.633a5.98 5.98 0 0 0 5.962 5.97h6.358a5.98 5.98 0 0 0 5.97-5.97v-22.679c0-18.977-16.036-33.653-33.053-33-17.702.327-31.882 14.77-31.883 32.475v25.51h-51.4a5.49 5.49 0 0 0-5.487 5.487v41.949H94.14a5.51 5.51 0 0 1-5.487-5.487v-98.81a1.83 1.83 0 0 0-1.829-1.829 1.83 1.83 0 0 0-1.829 1.829v98.838a9.16 9.16 0 0 0 9.145 9.149h32.765v22.313a5.5 5.5 0 0 0 5.487 5.487h81.323a5.5 5.5 0 0 0 5.487-5.487v-22.313h36.682a9.16 9.16 0 0 0 9.116-9.178zm-49.485 31.458a1.83 1.83 0 0 1-1.829 1.829h-81.294a1.83 1.83 0 0 1-1.829-1.829v-67.921a1.83 1.83 0 0 1 1.829-1.829h81.323a1.83 1.83 0 0 1 1.829 1.829z"/><circle cx="86.829" cy="121.55" r="1.829"/><path d="M230.498 152.928a1.83 1.83 0 0 0 .6 3.537 1.83 1.83 0 0 0 .8-3.497 1.83 1.83 0 0 0-1.4-.04zm-58.834 50.919a13.205 13.205 0 0 0-12.437 12.305 13.06 13.06 0 0 0 5.326 11.31.39.39 0 0 1 .161.3v11.815a7.7 7.7 0 0 0 7.082 7.762 7.587 7.587 0 0 0 8.047-7.565v-12.012a.367.367 0 0 1 .154-.293 13.08 13.08 0 0 0-8.362-23.623zm6.2 20.675a4.03 4.03 0 0 0-1.646 3.241v12.013a3.914 3.914 0 0 1-4.185 3.914 4.04 4.04 0 0 1-3.658-4.112v-11.816a4.055 4.055 0 0 0-1.653-3.248 9.416 9.416 0 0 1-3.841-8.15 9.44 9.44 0 0 1 18.107-3.152 9.44 9.44 0 0 1-3.117 11.309z"/><text fill="#6d72ff" stroke="rgba(8,0,255,0.72)" class="B C" font-size="28" letter-spacing="-.01em"><tspan x="13.068" y="327" stroke-linejoin="round">Phone</tspan></text><text fill="#3e004d" stroke="#9100ff" class="B C" font-size="28" letter-spacing="-.01em"><tspan x="101.834" y="327" stroke-width="2">Next Auth</tspan></text><text fill="#68a0ff" stroke="rgba(8,0,255,0.69)" class="B C" font-size="28" letter-spacing="-.01em"><tspan x="251.068" y="327">Email</tspan></text></g></svg>