<svg xmlns="http://www.w3.org/2000/svg" xmlns:xlink="http://www.w3.org/1999/xlink" width="350" height="350"><defs><path id="b" d="M176.223 200.284h-4.581a2.4 2.4 0 0 1-2.078-3.6 2.4 2.4 0 0 1 2.078-1.2h4.582a2.4 2.4 0 0 1 2.078 3.6 2.4 2.4 0 0 1-2.078 1.2z"/><path id="c" d="M228.807 200.284h-39.294a2.4 2.4 0 0 1-2.078-3.6 2.4 2.4 0 0 1 2.078-1.2h39.294a2.4 2.4 0 0 1 0 4.8z"/><clipPath id="a"><path d="M0 0h350v350H0z"/></clipPath></defs><g clip-path="url(#a)"><path fill="#fff" d="M0 0h350v350H0z"/><g clip-path="url(#a)"><path fill="#fff" d="M0 0h350v350H0z"/><path fill="#efb326" d="M291.66 253.32c-17.852 20.311-45.491 39.038-73.375 36.855-42.115-3.288-58.618 25.947-124.974-3.378a143.52 143.52 0 0 1-27.476-15.81 119.778 119.778 0 0 1-11.913-10.042c-33.097-31.753-39.771-75.693-26.961-113.874 16.912-50.288 59.734-60.581 86.997-65.76s74.354-48.212 139.792-19.878a139.66 139.66 0 0 1 28.254 16.235c19.923 14.94 37.346 37.464 42.809 62.585q.633 2.818 1.064 5.705c5.822 37.47-9.871 79.667-34.217 107.361z"/><text font-family="SegoeUI, Segoe UI" font-size="20" letter-spacing=".02em" transform="translate(14.325 37)"><tspan x="0" y="0">mernfa</tspan><tspan y="0" font-family="FarAdell, Far\.Adell">.</tspan><tspan y="0">ir</tspan></text></g><rect width="167.251" height="225.496" x="103.369" y="62.252" fill="#737ec5" rx="3.36"/><rect width="167.251" height="225.496" x="92.598" y="62.252" fill="#b4c9e8" rx="3.36"/><path fill="#fff" d="M247.518 70.312v66.713h12.33V70.312a8.039 8.039 0 0 0-8.084-8.06h-12.282a8.039 8.039 0 0 1 8.036 8.06z"/><rect width="154.92" height="225.496" x="92.598" y="62.252" fill="#737ec5" rx="3.36"/><path fill="#91b0e8" d="M247.518 243.32v36.367a8.036 8.036 0 0 1-8.06 8.06h-36.319a10.314 10.314 0 0 0 3.047-2.111c42.412-42.436 40.229-39.845 41.332-42.316z"/><path fill="#737ec5" d="M247.518 257.425v22.262a8.036 8.036 0 0 1-8.06 8.06h-22.214z"/><g fill="#302d3d"><path d="M262.559 290.146H111.43a10.46 10.46 0 0 1-10.46-10.459V70.312a10.46 10.46 0 0 1 10.46-10.459h151.13c5.771.013 10.446 4.688 10.459 10.459v209.375c-.013 5.771-4.688 10.446-10.459 10.459zM111.43 64.653a5.66 5.66 0 0 0-5.661 5.661v209.373a5.66 5.66 0 0 0 5.661 5.666h151.13a5.66 5.66 0 0 0 5.661-5.661V70.312a5.66 5.66 0 0 0-5.662-5.659z"/><path d="M251.764 290.146H100.635c-5.771-.013-10.447-4.688-10.46-10.459V70.312c.013-5.771 4.689-10.446 10.46-10.459h151.13c5.771.013 10.446 4.688 10.459 10.459v209.375c-.013 5.771-4.689 10.446-10.46 10.459zM100.635 64.653a5.66 5.66 0 0 0-5.661 5.661v209.373a5.66 5.66 0 0 0 5.661 5.666h151.13a5.66 5.66 0 0 0 5.661-5.661V70.312a5.66 5.66 0 0 0-5.662-5.659z"/></g><path fill="#e6ecf2" d="m247.566 70.936-.936 172.384c-1.056 2.4 1.151-.192-40.493 41.429a10.245 10.245 0 0 1-7.149 3h-110.9a8.71 8.71 0 0 1-8.708-8.684V70.936a8.71 8.71 0 0 1 8.708-8.684h150.794a8.684 8.684 0 0 1 8.684 8.684z"/><path fill="#fff" d="M163.917 83.245v110.466a6.6 6.6 0 0 0 6.573 6.6h23.989a6.6 6.6 0 0 0 4.654-1.919l32.145-32.121a6.691 6.691 0 0 0 1.919-4.8V83.245a6.6 6.6 0 0 0-6.621-6.6H170.49a6.6 6.6 0 0 0-6.573 6.6z"/><path fill="#f1ea24" d="M154.417 62.252v225.5H88.088a8.71 8.71 0 0 1-8.708-8.684V70.936a8.71 8.71 0 0 1 8.708-8.684z"/><path fill="#bec9d9" d="M246.631 243.32c-1.056 2.4 1.151-.192-40.493 41.429a9.19 9.19 0 0 1-3 2.063v-34.808a8.68 8.68 0 0 1 8.684-8.684z"/><path fill="#8ad7ff" d="M141.272 78.828v54.983a5.565 5.565 0 0 1-5.541 5.565H96.268a5.566 5.566 0 0 1-5.565-5.565V78.828a5.54 5.54 0 0 1 5.565-5.541h39.462a5.54 5.54 0 0 1 5.541 5.541z"/><circle cx="115.987" cy="100.01" r="13.146" fill="#fcfcfc" stroke="#302d3d" stroke-width="3"/><path fill="#a382ff" d="M141.272 133.811a5.59 5.59 0 0 1-5.565 5.565H96.268a5.566 5.566 0 0 1-5.565-5.565 12.93 12.93 0 0 1 1.247-5.589 26.725 26.725 0 0 1 47.978 0 12.91 12.91 0 0 1 1.344 5.589z"/><path fill="#302d3d" d="M184.595 105.576a15.473 15.473 0 1 1 12.518-24.66 2.42 2.42 0 0 1 .315 2.413 2.422 2.422 0 0 1-4.177.514 10.65 10.65 0 1 0 .288 12.306 2.4 2.4 0 1 1 3.958 2.687 15.4 15.4 0 0 1-12.903 6.74zm20.991-1.368-6.837-14.393a2.402 2.402 0 1 1 4.342-2.062l4.654 9.763 4.654-9.763a2.4 2.4 0 0 1 4.317 2.063l-6.812 14.393a2.4 2.4 0 0 1-4.318 0z"/><rect width="50.569" height="15.521" x="90.703" y="202.515" fill="#8ad7ff" rx="1.77"/><rect width="50.569" height="15.521" x="90.703" y="230.558" fill="#53cd88" rx="1.77"/><g fill="#ffca6e"><rect width="17.8" height="15.521" x="90.703" y="258.577" rx="1.77"/><rect width="17.8" height="15.521" x="123.471" y="258.577" rx="1.77"/></g><g fill="#302d3d"><path d="M198.988 290.146h-110.9a11.11 11.11 0 0 1-11.107-11.083V70.936a11.11 11.11 0 0 1 11.107-11.083h150.794c6.121 0 11.083 4.962 11.083 11.083v168.138a12.28 12.28 0 0 1-1.151 5.278c-1.223 2.759.744.384-40.973 42.1a12.64 12.64 0 0 1-8.852 3.694zM88.088 64.653a6.31 6.31 0 0 0-6.309 6.285v208.125a6.31 6.31 0 0 0 6.309 6.285h110.9a7.89 7.89 0 0 0 5.565-2.4l40.013-40.589c1.056-2.4.72 8.348.72-171.425a6.287 6.287 0 0 0-6.404-6.281z"/><path d="M154.417 290.146H88.088a11.11 11.11 0 0 1-11.107-11.083V70.936a11.11 11.11 0 0 1 11.107-11.083h66.329a2.4 2.4 0 0 1 2.4 2.4v225.5a2.4 2.4 0 0 1-2.4 2.4zM88.088 64.653a6.31 6.31 0 0 0-6.309 6.285v208.125a6.31 6.31 0 0 0 6.309 6.285h63.93V64.653zm115.051 224.558a2.4 2.4 0 0 1-2.4-2.4v-34.807a11.11 11.11 0 0 1 11.084-11.083h34.808a2.4 2.4 0 0 1 2.207 3.382 13.05 13.05 0 0 1-2.567 3.718c-38.166 38.143-40.421 41.19-43.132 41.19zm8.684-43.492a6.31 6.31 0 0 0-6.285 6.285v29.962l36.247-36.247zM135.73 141.775H96.268a7.965 7.965 0 0 1-7.964-7.964V78.828a7.964 7.964 0 0 1 7.964-7.94h39.462a7.94 7.94 0 0 1 7.94 7.94v54.983a7.964 7.964 0 0 1-7.94 7.964zM96.268 75.688a3.17 3.17 0 0 0-3.167 3.143v54.98a3.19 3.19 0 0 0 3.167 3.167h39.462a3.17 3.17 0 0 0 3.143-3.167V78.828a3.143 3.143 0 0 0-3.143-3.14z"/><path d="M135.706 141.775H96.268a7.965 7.965 0 0 1-7.964-7.964c0-10.075 11.994-23.029 27.683-23.029s27.683 12.977 27.683 23.028a7.965 7.965 0 0 1-7.964 7.964zm-19.719-26.2c-12.834 0-22.885 10.531-22.885 18.232a3.19 3.19 0 0 0 3.167 3.167h39.437a3.166 3.166 0 0 0 3.167-3.167c0-7.745-10.1-18.228-22.886-18.228zm21.038 104.86H94.944a6.67 6.67 0 0 1-6.645-6.645v-7.029a6.67 6.67 0 0 1 6.645-6.645h42.081a6.645 6.645 0 0 1 6.645 6.645v7.029a6.645 6.645 0 0 1-6.645 6.645zm-42.081-15.521a1.87 1.87 0 0 0-1.847 1.847v7.029a1.85 1.85 0 0 0 1.847 1.847h42.081a1.85 1.85 0 0 0 1.847-1.847v-7.029a1.87 1.87 0 0 0-1.847-1.847zm42.081 43.564H94.944a6.67 6.67 0 0 1-6.645-6.645v-7.034a6.67 6.67 0 0 1 6.645-6.64h42.081a6.645 6.645 0 0 1 6.645 6.64v7.029a6.67 6.67 0 0 1-6.645 6.645zm-42.081-15.521a1.85 1.85 0 0 0-1.842 1.842v7.029a1.87 1.87 0 0 0 1.842 1.852h42.081a1.87 1.87 0 0 0 1.847-1.847v-7.034a1.85 1.85 0 0 0-1.847-1.847zm9.313 43.54h-9.313a6.67 6.67 0 0 1-6.645-6.645v-7.029a6.67 6.67 0 0 1 6.645-6.645h9.308a6.646 6.646 0 0 1 6.645 6.645v7.029a6.645 6.645 0 0 1-6.645 6.645zm-9.313-15.521a1.87 1.87 0 0 0-1.847 1.847v7.029a1.85 1.85 0 0 0 1.847 1.847h9.308a1.85 1.85 0 0 0 1.847-1.847v-7.029a1.87 1.87 0 0 0-1.847-1.847zm42.082 15.521h-9.308a6.67 6.67 0 0 1-6.645-6.645v-7.029a6.67 6.67 0 0 1 6.645-6.645h9.308a6.645 6.645 0 0 1 6.645 6.645v7.029a6.645 6.645 0 0 1-6.645 6.645zm-9.308-15.521a1.87 1.87 0 0 0-1.847 1.847v7.029a1.85 1.85 0 0 0 1.847 1.847h9.308a1.85 1.85 0 0 0 1.847-1.847v-7.029a1.87 1.87 0 0 0-1.847-1.847zm13.553-102.409H90.703a2.4 2.4 0 1 1 0-4.8h50.568a2.4 2.4 0 1 1 0 4.8zm0 12.379H90.703a2.4 2.4 0 0 1 0-4.8h50.568a2.4 2.4 0 1 1 0 4.8zm-13.577 12.402H90.703a2.4 2.4 0 0 1 0-4.8h36.991a2.4 2.4 0 0 1 0 4.8zm101.112-58.723h-57.164a2.4 2.4 0 0 1 0-4.8h57.166a2.4 2.4 0 0 1 0 4.8zm0 11.609h-57.164a2.4 2.4 0 1 1 0-4.8h57.166a2.4 2.4 0 1 1 0 4.8zm0 11.66h-57.164a2.4 2.4 0 1 1 0-4.8h57.166a2.4 2.4 0 1 1 0 4.8zm-36.871 11.633h-20.293a2.4 2.4 0 0 1 0-4.8h20.293a2.4 2.4 0 0 1 0 4.8zm19.048 0h-6.093a2.4 2.4 0 0 1 0-4.8h6.093a2.4 2.4 0 0 1 0 4.8zm-34.76 24.805h-4.581a2.4 2.4 0 0 1 0-4.8h4.582a2.4 2.4 0 0 1 0 4.8z"/><use xlink:href="#b"/><path d="M176.223 216.237h-4.581a2.4 2.4 0 0 1 0-4.8h4.582a2.4 2.4 0 0 1 0 4.8zm0 15.952h-4.581a2.4 2.4 0 0 1 0-4.8h4.582a2.4 2.4 0 0 1 0 4.8zm52.584-47.857h-39.294a2.4 2.4 0 0 1 0-4.8h39.294a2.4 2.4 0 0 1 0 4.8z"/><use xlink:href="#c"/><path d="M228.807 216.237h-39.294a2.4 2.4 0 0 1 0-4.8h39.294a2.4 2.4 0 0 1 0 4.8zm0 15.952h-39.294a2.4 2.4 0 0 1 0-4.8h39.294a2.4 2.4 0 0 1 0 4.8zm-41.813 23.895h-15.352a2.4 2.4 0 0 1 0-4.8h15.352a2.4 2.4 0 1 1 0 4.8zm0 11.393h-15.352a2.4 2.4 0 1 1 0-4.8h15.352a2.4 2.4 0 0 1 0 4.8zm0 11.397h-15.352a2.4 2.4 0 1 1 0-4.8h15.352a2.4 2.4 0 1 1 0 4.8z"/></g></g></svg>