<svg xmlns="http://www.w3.org/2000/svg" xmlns:xlink="http://www.w3.org/1999/xlink" width="350" height="350" xmlns:v="https://vecta.io/nano"><defs><clipPath id="A"><path d="M0 0h350v350H0z"/></clipPath><path id="B" d="M246.238 107.279h.89c1.229 0 2.226-.997 2.226-2.226s-.997-2.226-2.226-2.226h-.89c-1.229 0-2.226.997-2.226 2.226s.997 2.226 2.226 2.226z"/><path id="C" d="M116.986 228.985h-5.432c-.795 0-1.53.424-1.928 1.113s-.398 1.537 0 2.226 1.132 1.113 1.928 1.113h5.432c.795 0 1.53-.424 1.928-1.113s.398-1.537 0-2.226-1.132-1.113-1.928-1.113z"/></defs><g clip-path="url(#A)"><path fill="#fff" d="M0 0h350v350H0z"/><g clip-path="url(#A)"><path fill="#fff" d="M0 0h350v350H0z"/><path d="M291.66 253.32c-17.852 20.311-45.491 39.038-73.375 36.855-42.115-3.288-58.618 25.947-124.974-3.378a143.52 143.52 0 0 1-27.476-15.81c-4.185-3.085-8.164-6.44-11.913-10.042-33.097-31.753-39.771-75.693-26.961-113.874 16.912-50.288 59.734-60.581 86.997-65.76s74.354-48.212 139.792-19.878c10.019 4.291 19.502 9.739 28.254 16.235 19.923 14.94 37.346 37.464 42.809 62.585q.633 2.818 1.064 5.705c5.822 37.47-9.871 79.667-34.217 107.361z" fill="#dcce09"/><text transform="translate(14.325 37)" font-size="20" font-family="SegoeUI, Segoe UI" letter-spacing="0.02em"><tspan x="0" y="0">mernfa</tspan><tspan font-family="FarAdell, Far\.Adell" y="0">.</tspan><tspan y="0">ir</tspan></text></g><path d="M70.369 118.232h209.262v129.5a10.4 10.4 0 0 1-10.4 10.4H80.769a10.4 10.4 0 0 1-10.4-10.4v-129.5z" fill="#bdc9ff"/><path d="M90.895 118.232h168.211v122.619a10.4 10.4 0 0 1-10.4 10.4H101.291a10.4 10.4 0 0 1-10.4-10.4V118.232z" fill="#dbecff"/><path d="M122.373 118.232h105.254v82.057a8.35 8.35 0 0 1-8.348 8.348h-88.558a8.35 8.35 0 0 1-8.348-8.348z" fill="#fff"/><path d="M279.631 118.232V102.27c-.014-5.734-4.666-10.374-10.4-10.374H80.769c-5.734 0-10.386 4.64-10.4 10.374v15.962z" fill="#617ce6"/><path d="M259.105 118.232V102.27c0-5.721-3.74-10.374-8.348-10.374H99.311c-4.608 0-8.348 4.653-8.348 10.374v15.962z" fill="#619fff"/><path d="M227.627 118.232v-14.626c.006-3.108-1.226-6.091-3.424-8.288s-5.181-3.429-8.29-3.422h-81.83a11.69 11.69 0 0 0-11.71 11.71v14.626z" fill="#75c2ff"/><path d="M111.554 145.147h126.893v69.747H111.554z" fill="#c7d8ff"/><path d="M231.701 214.894l-34.906-34.907-34.907 34.907z" fill="#5955a1"/><path d="M202.494 214.893l-43.367-43.366-43.366 43.366z" fill="#7282bf"/><circle cx="215.495" cy="231.211" r="4.586" fill="#5955a1"/><path d="M111.554 118.232h126.893v12.533H111.554z" fill="#ffab57"/><path d="M111.554 245.593h126.893v12.533H111.554z" fill="#00b496"/><g fill="#302d3d"><path d="M269.235 89.67H80.766c-6.963 0-12.61 5.637-12.623 12.6v145.46c.013 6.963 5.66 12.6 12.623 12.6h188.47c6.963 0 12.61-5.637 12.623-12.6V102.27c-.012-6.963-5.66-12.601-12.623-12.6zm-196.64 12.6a8.15 8.15 0 0 1 8.17-8.148h188.47a8.15 8.15 0 0 1 8.17 8.148v13.736H72.595zm41.185 18.188h122.441v8.059H113.78zm0 135.419v-8.059h122.441v8.059zm163.625-8.148a8.15 8.15 0 0 1-8.17 8.148h-28.562v-10.284c0-1.229-.997-2.226-2.226-2.226H111.554c-1.229 0-2.226.997-2.226 2.226v10.285H80.766a8.15 8.15 0 0 1-8.17-8.148V120.458h36.732v10.285c0 1.229.997 2.226 2.226 2.226h126.889c1.229 0 2.226-.997 2.226-2.226v-10.285h36.732z"/><use xlink:href="#B"/><path d="M255.989 107.279h.89c1.229 0 2.226-.997 2.226-2.226s-.997-2.226-2.226-2.226h-.89c-1.229 0-2.226.997-2.226 2.226s.997 2.226 2.226 2.226zm9.684 0h.913c1.229 0 2.226-.997 2.226-2.226s-.997-2.226-2.226-2.226h-.913c-1.229 0-2.226.997-2.226 2.226s.997 2.226 2.226 2.226zm-123.799-2.226c0-.591-.235-1.157-.652-1.574a2.23 2.23 0 0 0-1.575-.652H83.993c-1.229 0-2.226.997-2.226 2.226s.997 2.226 2.226 2.226h55.654c.591 0 1.157-.234 1.575-.652s.652-.984.652-1.574zm96.573 37.868H111.554c-1.229 0-2.226.997-2.226 2.226v69.747c0 1.229.997 2.226 2.226 2.226h126.893c1.229 0 2.226-.997 2.226-2.226v-69.747c0-1.229-.997-2.226-2.226-2.226zm-117.319 69.747l38-38 38 38zm82.369 0l-18.144-18.077 11.442-11.46 29.542 29.542zm32.792 0h-3.651l-34.262-34.261a2.23 2.23 0 0 0-3.162 0l-13.024 13.024-21.482-21.484a2.23 2.23 0 0 0-3.162 0l-42.655 42.721h-1.113v-65.295h122.441zm21.818-32.659l-8.9 8.9a2.23 2.23 0 0 0-.011 3.15 2.23 2.23 0 0 0 3.15.011l10.485-10.4c.863-.868.863-2.271 0-3.139l-10.559-10.543c-.883-.758-2.201-.708-3.024.115s-.873 2.141-.115 3.024zm-157.237-12.11c-.868-.863-2.271-.863-3.139 0l-10.554 10.552c-.863.868-.863 2.271 0 3.139l10.552 10.552a2.22 2.22 0 1 0 3.141-3.139l-8.9-8.9 8.9-8.9c.464-.422.729-1.02.729-1.648s-.265-1.226-.729-1.647z"/><use xlink:href="#C"/><path d="M137.155 228.985h-5.365c-.795 0-1.53.424-1.928 1.113s-.398 1.537 0 2.226 1.132 1.113 1.928 1.113h5.365c.795 0 1.53-.424 1.928-1.113s.398-1.537 0-2.226-1.132-1.113-1.928-1.113zm20.325 0h-5.432c-.795 0-1.53.424-1.928 1.113s-.398 1.537 0 2.226 1.132 1.113 1.928 1.113h5.432c.795 0 1.53-.424 1.928-1.113s.398-1.537 0-2.226-1.132-1.113-1.928-1.113zm20.236 0h-5.432c-.795 0-1.53.424-1.928 1.113s-.398 1.537 0 2.226 1.132 1.113 1.928 1.113h5.432c.795 0 1.53-.424 1.928-1.113s.398-1.537 0-2.226-1.132-1.113-1.928-1.113zm20.236 0h-5.428c-.795 0-1.53.424-1.928 1.113s-.398 1.537 0 2.226 1.132 1.113 1.928 1.113h5.432c.795 0 1.53-.424 1.928-1.113s.398-1.537 0-2.226-1.132-1.113-1.928-1.113zm40.495 0h-5.432c-.795 0-1.53.424-1.928 1.113s-.398 1.537 0 2.226 1.132 1.113 1.928 1.113h5.432c.795 0 1.53-.424 1.928-1.113s.398-1.537 0-2.226-1.132-1.113-1.928-1.113zm-22.952-4.586a6.81 6.81 0 1 0 6.812 6.81c0-3.762-3.05-6.812-6.812-6.812zm0 9.172a2.36 2.36 0 1 1 1.668-.693 2.36 2.36 0 0 1-1.668.693z"/></g></g></svg>