<svg xmlns="http://www.w3.org/2000/svg" width="350" height="350"><defs><clipPath id="a"><path data-name="Rectangle 2" d="M0 0h350v350H0z"/></clipPath></defs><g data-name="SPRK_default_preset_name_custom – 1" clip-path="url(#a)"><path fill="#fff" d="M0 0h350v350H0z"/><g data-name="SPRK_default_preset_name_custom – 1" clip-path="url(#a)"><path data-name="Rectangle 1" fill="#fff" d="M0 0h350v350H0z"/><g data-name="Group 1"><g data-name="6502421"><g data-name="Background Simple"><path data-name="Path 1" d="M291.66 253.32c-17.853 20.311-45.492 39.037-73.375 36.855-42.115-3.288-58.618 25.947-124.974-3.377a143.52 143.52 0 0 1-27.476-15.81 119.866 119.866 0 0 1-11.913-10.042C20.825 229.193 14.15 185.253 26.96 147.072c16.912-50.288 59.734-60.581 86.998-65.76s74.353-48.213 139.791-19.879a139.667 139.667 0 0 1 28.254 16.235c19.923 14.94 37.347 37.464 42.809 62.586q.633 2.818 1.064 5.705c5.822 37.47-9.871 79.667-34.216 107.36Z" fill="#121314"/></g></g></g><text transform="translate(14.325 37)" font-size="20" font-family="SegoeUI, Segoe UI" letter-spacing=".02em"><tspan x="0" y="0">mernfa</tspan><tspan y="0" font-family="FarAdell, 'Far\.Adell'">.</tspan><tspan y="0">ir</tspan></text></g><g data-name="1"><g data-name="Group 1"><path data-name="Path 1" d="M285.421 126.213v112.314a23.643 23.643 0 0 1-23.643 23.643h-107.64l-43.04 31.908a3.864 3.864 0 0 1-6.165-3.1v-28.8h-11.76a23.643 23.643 0 0 1-23.642-23.651V126.213c0-13.057 10.585-23.643 30.176-23.643h168.605c6.524 0 17.109 10.585 17.109 23.643Z" fill="#5e5eef"/></g><g data-name="Group 4" opacity=".3"><g data-name="Group 2"><path data-name="Path 2" d="M192.342 118.2h-4.09a4.261 4.261 0 1 1 0-8.523h4.089a4.261 4.261 0 1 1 0 8.523Z" fill="#fff"/></g><g data-name="Group 3"><path data-name="Path 3" d="M249.251 118.2h-38.9a4.261 4.261 0 0 1 0-8.523h38.9a4.261 4.261 0 0 1 0 8.523Z" fill="#fff"/></g></g><g data-name="Group 7" opacity=".3"><g data-name="Group 5"><path data-name="Path 4" d="M81.192 223.943a4.263 4.263 0 0 1-4.261-4.261v-26.163a4.261 4.261 0 1 1 8.523 0v26.163a4.263 4.263 0 0 1-4.262 4.261Z" fill="#fff"/></g><g data-name="Group 6"><path data-name="Path 5" d="M81.192 181a4.263 4.263 0 0 1-4.261-4.261v-4.434a4.261 4.261 0 1 1 8.523 0v4.433A4.263 4.263 0 0 1 81.192 181Z" fill="#fff"/></g></g><g data-name="Group 8"><path data-name="Path 6" d="M285.421 126.205v112.329a23.636 23.636 0 0 1-23.636 23.636H154.134l-43.012 31.936a3.893 3.893 0 0 1-6.193-3.125v-7.727l37.482-27.814a7.353 7.353 0 0 1 4.382-1.448h105.218a23.637 23.637 0 0 0 23.637-23.637V118.024a23.528 23.528 0 0 0-4.148-13.353 23.539 23.539 0 0 1 13.92 21.535Z" fill="#4242e5"/></g><g data-name="Group 9"><path data-name="Path 7" d="M92.257 225.111v-85.477c0-7.917 6.418-14.335 20.869-14.335h136.425c6.449.2 13.145 6.418 13.145 14.335v85.477a14.335 14.335 0 0 1-14.335 14.335H106.592a14.335 14.335 0 0 1-14.335-14.335Z" fill="#fff"/></g><g data-name="Group 10"><path data-name="Path 8" d="M262.693 139.645v85.456a14.3 14.3 0 0 1-14.319 14.319H106.576a14.327 14.327 0 0 1-13.693-10 13.728 13.728 0 0 0 2.671.227h141.741a14.343 14.343 0 0 0 14.319-14.375v-85.456a15.568 15.568 0 0 0-.625-4.318 14.4 14.4 0 0 1 11.7 14.148Z" fill="#e4e3ff"/></g><g data-name="Group 19"><path data-name="Path 15" d="m143.135 61.978 14.968 35.354a10.832 10.832 0 0 1-3.273 12.731c-8.7 6.915-21.932 19.853-28.411 29.329a13.318 13.318 0 0 1-13.179 5.574c-11.3-1.948-29.765-1.46-40.768-.036a10.833 10.833 0 0 1-11.416-6.512l-14.973-35.355Z" fill="#474646"/></g><g data-name="Group 20"><path data-name="Path 16" d="m143.133 62.002 14.952 35.32a10.794 10.794 0 0 1-3.244 12.719c-8.681 6.936-21.949 19.892-28.407 29.352a13.461 13.461 0 0 1-13.194 5.585c-11.288-1.948-29.767-1.463-40.79-.057a10.961 10.961 0 0 1-7.861-2.038 13.278 13.278 0 0 0 4.332.269c11-1.463 29.5-1.89 40.79.057a13.727 13.727 0 0 0 13.194-5.586c6.458-9.46 19.7-22.473 28.407-29.352a10.794 10.794 0 0 0 3.24-12.719L140.77 63.003Z" fill="#2d2c2c"/></g><g data-name="Group 21"><path data-name="Path 17" d="m147.978 73.396 1.5 3.537-41.582 31.78a7.731 7.731 0 0 1-3.73 1.579l-51.729 7.721-1.5-3.537 51.729-7.726a8.407 8.407 0 0 0 3.73-1.579Z" fill="#2d2c2c"/></g><g data-name="Group 22" opacity=".2"><path data-name="Path 18" d="M72.214 139.367a2.251 2.251 0 0 1-2.95-1.195l-1.958-4.62a2.25 2.25 0 1 1 4.145-1.755l1.958 4.625a2.251 2.251 0 0 1-1.195 2.945Z" fill="#fff"/></g><g data-name="Group 24" opacity=".2"><g data-name="Group 23"><path data-name="Path 19" d="M67.358 127.91a2.251 2.251 0 0 1-2.95-1.195l-.707-1.669a2.25 2.25 0 1 1 4.145-1.755l.712 1.669a2.251 2.251 0 0 1-1.2 2.95Z" fill="#fff"/></g></g><g data-name="Group 25"><path data-name="Path 20" d="m161.752 56.399 1.582 3.736-.036.015a1.877 1.877 0 0 1-.681 2.128l-56.2 42.954a7.869 7.869 0 0 1-3.736 1.582l-69.886 10.425a1.993 1.993 0 0 1-2.152-1.14l-.031-.072-1.473-3.485a1.981 1.981 0 0 0 2.167 1.179l69.885-10.422a8.829 8.829 0 0 0 3.736-1.582l56.2-42.954a1.987 1.987 0 0 0 .626-2.361Z" fill="#1b1b1b"/></g><g data-name="Group 26"><path data-name="Path 21" d="m161.123 58.763-56.186 42.933a8.155 8.155 0 0 1-3.746 1.586L31.29 113.728a2.02 2.02 0 0 1-1.525-3.6l56.157-42.914a8.156 8.156 0 0 1 3.743-1.585l69.933-10.468a2.02 2.02 0 0 1 1.525 3.6Z" fill="#474646"/></g><g data-name="Group 27"><path data-name="Path 22" d="m38.851 138.91-9.282-21.935a7.235 7.235 0 0 1 3.83-9.465l62.167-26.318a1.338 1.338 0 0 1 1.044 2.463l-62.168 26.318a4.548 4.548 0 0 0-2.411 5.958l9.282 21.934a1.338 1.338 0 1 1-2.463 1.044Z" fill="#3858f9"/></g><g data-name="Group 28"><path data-name="Path 23" d="m43.677 162.703 10.693-4.527a2.262 2.262 0 0 0 .917-3.451l-8.657-11.29a5.4 5.4 0 0 0-.242-3.583 5.6 5.6 0 1 0-10.308 4.367 5.4 5.4 0 0 0 2.4 2.666l2.08 14.074a2.262 2.262 0 0 0 3.117 1.743Z" fill="#e9d200"/></g><g data-name="Group 29"><path data-name="Path 24" d="m43.677 162.702 2.183-.924a2.262 2.262 0 0 1-3.117-1.743l-1.862-12.592a3.337 3.337 0 0 0-1.1-2.083 5.5 5.5 0 0 1-1.515-2.065 5.6 5.6 0 0 1 1.93-6.752 3.989 3.989 0 0 0-1.163.33 5.615 5.615 0 0 0-2.952 7.343 5.4 5.4 0 0 0 2.4 2.666l2.079 14.076a2.262 2.262 0 0 0 3.117 1.743Z" fill="#f9ea15"/></g><g data-name="Group 30"><path data-name="Path 25" d="M103.56 79.503c.878 2.075-2.332 5.4-7.114 7.429-4.839 2.049-9.465 2.036-10.343-.039s2.332-5.4 7.171-7.453c4.783-2.025 9.408-2.012 10.286.063Z" fill="#fff"/></g><text data-name="Next.js Advanced" transform="translate(175 172.001)" fill="#444" font-size="28" font-family="Shabnam-Bold-FD, Shabnam FD" letter-spacing="-.01em"><tspan x="-43.629" y="0">Next.js</tspan><tspan x="-61.414" y="45">Advanced</tspan></text><g data-name="Polygon 1" fill="#070503"><path d="M293.684 117.514a5.347 5.347 0 0 1-2.858-.838l-.816-.515a9.365 9.365 0 0 0-5.01-1.45 9.365 9.365 0 0 0-5.01 1.45l-.816.515a5.348 5.348 0 0 1-2.858.838 5.457 5.457 0 0 1-3.334-1.148 5.29 5.29 0 0 1-1.936-3.093l-.105-.481a9.382 9.382 0 0 0-7.285-7.196l-.467-.096a5.299 5.299 0 0 1-3.9-3.23 5.299 5.299 0 0 1 .514-5.038 9.342 9.342 0 0 0 0-10.464 5.299 5.299 0 0 1-.513-5.038 5.299 5.299 0 0 1 3.9-3.23l.466-.096a9.382 9.382 0 0 0 7.285-7.196l.105-.48a5.29 5.29 0 0 1 1.936-3.094 5.458 5.458 0 0 1 3.334-1.148c1.003 0 1.991.29 2.858.838l.816.515a9.364 9.364 0 0 0 5.01 1.45 9.364 9.364 0 0 0 5.01-1.45l.816-.515a5.347 5.347 0 0 1 2.858-.838c1.198 0 2.382.408 3.334 1.148a5.29 5.29 0 0 1 1.936 3.093l.105.481a9.382 9.382 0 0 0 7.285 7.196l.467.096a5.299 5.299 0 0 1 3.9 3.23 5.299 5.299 0 0 1-.514 5.038 9.342 9.342 0 0 0 0 10.464 5.299 5.299 0 0 1 .513 5.038 5.299 5.299 0 0 1-3.9 3.23l-.466.096a9.382 9.382 0 0 0-7.285 7.196l-.105.48a5.29 5.29 0 0 1-1.936 3.094 5.459 5.459 0 0 1-3.334 1.148Z"/><path d="M293.684 68.486c-.633 0-1.235.178-1.79.528l-.815.516A11.362 11.362 0 0 1 285 71.29c-2.155 0-4.257-.609-6.08-1.76l-.814-.516a3.305 3.305 0 0 0-1.79-.528c-1.318 0-2.918.834-3.316 2.666l-.104.481a11.383 11.383 0 0 1-8.84 8.73l-.466.096a3.328 3.328 0 0 0-2.45 2.03 3.328 3.328 0 0 0 .323 3.164 11.335 11.335 0 0 1 0 12.694 3.328 3.328 0 0 0-.323 3.165 3.328 3.328 0 0 0 2.45 2.029l.466.095a11.383 11.383 0 0 1 8.84 8.73l.104.482c.398 1.832 1.998 2.666 3.316 2.666.633 0 1.235-.178 1.79-.528l.815-.516a11.362 11.362 0 0 1 6.079-1.76c2.155 0 4.257.609 6.08 1.76l.814.516c.555.35 1.157.528 1.79.528 1.318 0 2.918-.834 3.316-2.666l.104-.481a11.383 11.383 0 0 1 8.84-8.73l.466-.096a3.328 3.328 0 0 0 2.45-2.03 3.328 3.328 0 0 0-.323-3.164 11.335 11.335 0 0 1 0-12.694c.64-.951.757-2.105.323-3.165a3.328 3.328 0 0 0-2.45-2.029l-.466-.095a11.383 11.383 0 0 1-8.84-8.73l-.104-.482c-.398-1.832-1.998-2.666-3.316-2.666m0-4c3.308 0 6.448 2.245 7.224 5.816l.105.482a7.378 7.378 0 0 0 5.732 5.66l.466.096c5.144 1.051 7.575 6.987 4.646 11.344a7.378 7.378 0 0 0 0 8.232c2.929 4.357.498 10.293-4.646 11.344l-.466.095a7.378 7.378 0 0 0-5.732 5.661l-.105.482c-.776 3.57-3.916 5.816-7.224 5.816a7.314 7.314 0 0 1-3.927-1.147l-.815-.515a7.371 7.371 0 0 0-7.884 0l-.815.515a7.315 7.315 0 0 1-3.927 1.147c-3.308 0-6.448-2.245-7.224-5.816l-.105-.482a7.378 7.378 0 0 0-5.732-5.66l-.466-.096c-5.144-1.051-7.575-6.987-4.646-11.344a7.378 7.378 0 0 0 0-8.232c-2.929-4.357-.498-10.293 4.646-11.344l.466-.095a7.378 7.378 0 0 0 5.732-5.661l.105-.482c.776-3.57 3.916-5.816 7.224-5.816 1.33 0 2.686.363 3.927 1.147l.815.515a7.371 7.371 0 0 0 7.884 0l.815-.515a7.315 7.315 0 0 1 3.927-1.147Z" fill="#4807ff"/></g><text transform="translate(267 98)" fill="#fff" font-size="25" font-family="Shabnam-Bold-FD, Shabnam FD" letter-spacing="-.01em"><tspan x="0" y="0">pro</tspan></text></g></g></svg>