<svg xmlns="http://www.w3.org/2000/svg" width="350" height="350"><defs><radialGradient id="b" cx=".5" cy=".5" r=".5" gradientUnits="objectBoundingBox"><stop offset="0" stop-color="#f2f2f2"/><stop offset="1" stop-color="#e9e9e9"/></radialGradient><clipPath id="a"><path data-name="Rectangle 2" d="M0 0h350v350H0z"/></clipPath></defs><g data-name="SPRK_default_preset_name_custom – 1" clip-path="url(#a)"><path fill="#fff" d="M0 0h350v350H0z"/><g data-name="SPRK_default_preset_name_custom – 1" clip-path="url(#a)"><path data-name="Rectangle 1" fill="#fff" d="M0 0h350v350H0z"/><g data-name="Group 1"><g data-name="6502421"><g data-name="Background Simple"><path data-name="Path 1" d="M281.886 138.351c-2.962 26.879-14.848 58.077-38.934 72.293-36.375 21.479-33.11 54.891-104.28 68.961a143.52 143.52 0 0 1-31.574 2.823 119.866 119.866 0 0 1-15.519-1.386c-45.327-7.007-76.011-39.159-87.435-77.778-15.013-50.887 14.147-83.893 33.5-103.782S70.862 17.327 140.711 2.973A139.667 139.667 0 0 1 173.166.052c24.89.8 52.085 9.245 70.976 26.682q2.136 1.944 4.146 4.061c26.273 27.343 37.64 70.905 33.598 107.556Z" transform="rotate(35.025 104.594 211.323)" fill="url(#b)"/></g></g></g><text transform="translate(14.325 37)" font-size="20" font-family="SegoeUI, Segoe UI" letter-spacing=".02em"><tspan x="0" y="0">mernfa.ir</tspan></text></g><text data-name="market place" transform="translate(81 283)" font-size="30" font-family="SegoeUI-Bold, Segoe UI" font-weight="700"><tspan x="0" y="0">market</tspan><tspan y="0" font-family="BKoodakBold, B Koodak" font-weight="400"> </tspan><tspan y="0">place</tspan></text><g data-name="4"><path data-name="Path 4" d="m200.151 222.744-24.649 5.7-24.651-5.7 4.192-11.738 20.457-5.366 18.78 5.366Z" fill="#eee1dc"/><path data-name="Path 5" d="M258.838 199.271H92.162v-96.249A11.751 11.751 0 0 1 103.9 91.284h143.2a11.751 11.751 0 0 1 11.738 11.738Z" fill="#75eeff"/><path data-name="Path 6" d="M235.362 199.271h-143.2v-96.249A11.751 11.751 0 0 1 103.9 91.284h119.725a11.751 11.751 0 0 1 11.737 11.738Z" fill="#c0f6ff"/><path data-name="Path 7" d="M247.1 211.01H103.9a11.751 11.751 0 0 1-11.738-11.738v-11.738h166.676v11.738A11.751 11.751 0 0 1 247.1 211.01Z" fill="#f6efea"/><path data-name="Path 8" d="M223.625 199.272H92.162v-11.738h143.2a11.751 11.751 0 0 1-11.737 11.738Zm-89.207 35.213a2.531 2.531 0 0 1-2.415-3.253 11.76 11.76 0 0 1 11.3-8.485h64.39a11.76 11.76 0 0 1 11.3 8.485 2.542 2.542 0 0 1-2.415 3.253Z" fill="#fff4f4"/><path data-name="Path 9" d="M187.238 201.786h-23.476a2.515 2.515 0 1 1 0-5.03h23.476a2.515 2.515 0 1 1 0 5.03Z"/><path data-name="Path 10" d="M152.159 149.973h38.568l7.043-30.183h-52.788a5.858 5.858 0 0 0-5.466 7.982l7.177 18.445a5.842 5.842 0 0 0 5.466 3.756Z" fill="#ffeb00"/><path data-name="Path 11" d="M156.217 140.751a2.534 2.534 0 0 1-2.515-2.515v-6.707a2.515 2.515 0 0 1 5.03 0v6.707a2.534 2.534 0 0 1-2.515 2.515Zm12.912 0a2.534 2.534 0 0 1-2.515-2.515v-6.707a2.515 2.515 0 0 1 5.03 0v6.707a2.534 2.534 0 0 1-2.515 2.515Zm12.912 0a2.534 2.534 0 0 1-2.515-2.515v-6.707a2.515 2.515 0 0 1 5.03 0v6.707a2.534 2.534 0 0 1-2.516 2.515Z"/><g data-name="Group 2" transform="translate(148.503 162.885)" fill="#fff"><circle data-name="Ellipse 1" cx="5.869" cy="5.869" r="5.869" transform="translate(31.524)"/><circle data-name="Ellipse 2" cx="5.869" cy="5.869" r="5.869"/></g><path data-name="Path 12" d="M247.101 88.769H103.9a14.284 14.284 0 0 0-14.253 14.253v96.247a14.284 14.284 0 0 0 14.253 14.253h47.588l-2.381 6.707h-5.8a14.284 14.284 0 0 0-14.253 14.253 2.534 2.534 0 0 0 2.515 2.515h87.865a2.534 2.534 0 0 0 2.515-2.515 14.284 14.284 0 0 0-14.253-14.253h-6l-3.354-6.707h48.762a14.284 14.284 0 0 0 14.25-14.253v-96.247a14.284 14.284 0 0 0-14.253-14.253Zm-51.009 131.463h-25.119a2.515 2.515 0 1 0 0 5.03h36.722a9.265 9.265 0 0 1 8.887 6.707h-82.164a9.265 9.265 0 0 1 8.887-6.707h15.93a2.515 2.515 0 1 0 0-5.03h-4.829l2.381-6.707h35.918Zm60.231-35.213h-20.96a2.515 2.515 0 1 0 0 5.03h20.96v9.22a9.217 9.217 0 0 1-9.223 9.223H103.9a9.217 9.217 0 0 1-9.223-9.223v-9.22h128.948a2.515 2.515 0 1 0 0-5.03H94.677v-82a9.217 9.217 0 0 1 9.223-9.223h143.2a9.217 9.217 0 0 1 9.223 9.223Z"/><path data-name="Path 13" d="M211.887 106.711h-11.738a2.513 2.513 0 0 0-2.448 1.979l-1.878 8.585h-33.235a2.515 2.515 0 0 0 0 5.03h32.128l-5.5 25.152h-37.058a3.3 3.3 0 0 1-3.119-2.146l-7.177-18.445a3.344 3.344 0 0 1 .369-3.119 3.306 3.306 0 0 1 2.784-1.476h5.869a2.515 2.515 0 1 0 0-5.03h-5.9a8.405 8.405 0 0 0-7.814 11.436l7.177 18.445a8.319 8.319 0 0 0 7.814 5.332h35.949l-1.643 7.479a.506.506 0 0 1-.5.4h-40.985a2.515 2.515 0 1 0 0 5.03h1.71a8.573 8.573 0 0 0-.7 3.354 8.384 8.384 0 0 0 16.768 0 8.573 8.573 0 0 0-.7-3.354h16.165a8.573 8.573 0 0 0-.7 3.354 8.384 8.384 0 1 0 13.515-6.64 5.789 5.789 0 0 0 .369-1.073l10.8-49.3h9.726a2.5 2.5 0 1 0-.034-5Zm-54.161 62.042a3.354 3.354 0 1 1-3.354-3.354 3.363 3.363 0 0 1 3.354 3.354Zm28.174 3.358a3.354 3.354 0 1 1 3.354-3.354 3.363 3.363 0 0 1-3.354 3.354Z"/></g></g></svg>