<svg xmlns="http://www.w3.org/2000/svg" width="350" height="350"><defs><clipPath id="a"><path d="M0 0h350v350H0z" data-name="Rectangle 2"/></clipPath><clipPath id="d"><path d="M0 0h101.42v101.42H0Z" data-name="Path 47"/></clipPath><radialGradient id="b" cx=".5" cy=".5" r=".5" gradientUnits="objectBoundingBox"><stop offset="0" stop-color="#fff"/><stop offset="1" stop-color="#e8e8e8"/></radialGradient><linearGradient id="c" x1=".855" x2=".144" y1="-.019" y2="1.018" gradientUnits="objectBoundingBox"><stop offset="0" stop-color="#a42421"/><stop offset="1" stop-color="#e31e24"/></linearGradient></defs><g clip-path="url(#a)" data-name="SPRK_default_preset_name_custom – 1"><path fill="#fff" d="M0 0h350v350H0z"/><g clip-path="url(#a)" data-name="SPRK_default_preset_name_custom – 1"><path fill="#fff" d="M0 0h350v350H0z" data-name="Rectangle 1"/><g data-name="Group 1"><g data-name="6502421"><g data-name="Background Simple"><path fill="url(#b)" d="M281.886 138.351c-2.962 26.879-14.848 58.077-38.934 72.293-36.375 21.479-33.11 54.891-104.28 68.961a143.5 143.5 0 0 1-31.574 2.823 120 120 0 0 1-15.519-1.386c-45.327-7.007-76.011-39.159-87.435-77.778-15.013-50.887 14.147-83.893 33.5-103.782S70.862 17.327 140.711 2.973A139.7 139.7 0 0 1 173.166.052c24.89.8 52.085 9.245 70.976 26.682q2.136 1.944 4.146 4.061c26.273 27.343 37.64 70.905 33.598 107.556" data-name="Path 1" transform="rotate(35.025 104.594 211.323)"/></g></g></g><text font-family="SegoeUI, Segoe UI" font-size="20" letter-spacing=".02em" transform="translate(14.325 37)"><tspan x="0" y="0">mernfa.ir</tspan></text></g><g data-name="Group 2"><text font-family="SegoeUI-Bold, Segoe UI" font-size="45" font-weight="700" transform="translate(103 145)"><tspan x="0" y="0">Next</tspan><tspan y="0" font-family="BKoodakBold, B Koodak" font-weight="400">.</tspan><tspan y="0">js</tspan></text><g data-name="Group 4"><path fill="url(#c)" fill-rule="evenodd" d="M2031.39 234.6a10.98 10.98 0 0 0-7.441-2.578h-13.935s-6.128-.219-6.128-7.393v-12.698s-.851-5.083-2.529-6.542c-.268-.219-.292-.365-.17-.389a.1.1 0 0 0-.049.024l30.252 29.231v.34Zm-29.668-29.571c.073.024.122.024.194.049-.072-.029-.145-.029-.194-.054Zm.219.049.219.073Zm1.24.438c.1.049.219.1.34.146-.121-.054-.221-.103-.34-.151Z" data-name="Path 16" transform="translate(-1761.559 -21.711)"/><path fill="#e31e24" fill-rule="evenodd" d="M231.166 182h-27.893a6.34 6.34 0 0 0-6.323 6.323v85.649a6.333 6.333 0 0 0 6.2 6.323h62.5a6.34 6.34 0 0 0 6.323-6.323v-51.336c0-9.508-8.22-9.922-8.22-9.922H248.14c-8.22 0-8.025-8.438-8.025-8.438v-12.865c0-9.727-8.876-9.29-8.876-9.29l-.049-.049Zm38.715 30.884a10.86 10.86 0 0 0-7.441-2.578h-13.935s-6.128-.219-6.128-7.393V190.22s-.851-5.083-2.529-6.542q-.292-.255-.219-.365l30.228 29.206v-.319c-7.879-11.916-14.445-17.8-19.066-22.421a29 29 0 0 0-7.1-5.058 28.7 28.7 0 0 1 7.15 5.083c4.62 4.62 11.186 10.506 19.066 22.422v.657Z" data-name="Path 17"/><path fill="#fff" d="M210.982 231.683h8.584a5.87 5.87 0 0 1 4.207 1.337 4.92 4.92 0 0 1 1.386 3.794 5.2 5.2 0 0 1-1.532 3.939 6.6 6.6 0 0 1-4.645 1.435h-2.82v6.177h-5.18zm5.18 7.125h1.265a3.23 3.23 0 0 0 2.091-.534 1.62 1.62 0 0 0 .608-1.313 1.9 1.9 0 0 0-.535-1.337 2.75 2.75 0 0 0-1.994-.56h-1.459v3.745Zm11.721-7.125h7.636a9.3 9.3 0 0 1 3.672.608 6.4 6.4 0 0 1 2.31 1.751 7.3 7.3 0 0 1 1.313 2.65 12.6 12.6 0 0 1 .413 3.21 11.2 11.2 0 0 1-.608 4.159 7.4 7.4 0 0 1-1.678 2.48 5.03 5.03 0 0 1-2.335 1.313 12.3 12.3 0 0 1-3.064.438h-7.636v-16.658l-.049.049Zm5.131 3.794v9.095h1.268a5.5 5.5 0 0 0 2.335-.365 2.64 2.64 0 0 0 1.094-1.24 7.9 7.9 0 0 0 .365-2.894 5.76 5.76 0 0 0-.851-3.623 3.73 3.73 0 0 0-2.894-.973h-1.313Zm12.913-3.794h12.743v3.6h-7.563v2.918h6.469v3.38h-6.469v6.785h-5.18v-16.682Z" data-name="Path 18"/><g clip-path="url(#d)" data-name="Group 3" transform="translate(78.027 182)"><path fill="#eaf6ff" d="M81.118 97.757H11.905a.99.99 0 0 1-.99-.99V2.476a.99.99 0 0 1 .99-.99h69.213a.99.99 0 0 1 .99.99v94.291a.99.99 0 0 1-.99.99" data-name="Path 19"/><path fill="#d8ecfe" d="M19.838 96.767V2.476a.99.99 0 0 1 .99-.99h-8.922a.99.99 0 0 0-.99.99v94.291a.99.99 0 0 0 .99.99h8.922a.99.99 0 0 1-.99-.99" data-name="Path 20"/><path fill="none" stroke="#000" stroke-linecap="round" stroke-linejoin="round" stroke-miterlimit="10" stroke-width="1.333" d="M28.921 97.757h52.2a.99.99 0 0 0 .99-.99V2.476a.99.99 0 0 0-.99-.99H11.91a.99.99 0 0 0-.99.99v94.291a.99.99 0 0 0 .99.99h10.082" data-name="Path 21"/><path fill="#4fc123" d="M45.674 88.914h-26.6a.6.6 0 0 1-.6-.6v-4.531a.6.6 0 0 1 .6-.6h26.6a.6.6 0 0 1 .6.6v4.525a.6.6 0 0 1-.6.6" data-name="Path 22"/><path fill="#47a920" d="M25.157 88.31v-4.531a.6.6 0 0 1 .6-.6h-6.685a.6.6 0 0 0-.6.6v4.531a.6.6 0 0 0 .6.6h6.685a.6.6 0 0 1-.6-.6" data-name="Path 23"/><path fill="none" stroke="#000" stroke-linecap="round" stroke-linejoin="round" stroke-miterlimit="10" stroke-width="1.333" d="M45.674 88.914h-26.6a.6.6 0 0 1-.6-.6v-4.531a.6.6 0 0 1 .6-.6h26.6a.6.6 0 0 1 .6.6v4.525a.6.6 0 0 1-.6.606" data-name="Path 24"/><path fill="#fff" d="M74.552 59.825h-56.08V35.961h56.08Z" data-name="Path 25"/><path fill="#f3f0f3" d="M18.472 59.825h5.078V35.961h-5.078Z" data-name="Path 26"/><path fill="none" stroke="#000" stroke-linecap="round" stroke-linejoin="round" stroke-miterlimit="10" stroke-width="1.333" d="M74.552 59.825h-56.08V35.961h56.08Z" data-name="Path 27"/><path fill="none" stroke="#000" stroke-linecap="round" stroke-linejoin="round" stroke-miterlimit="10" stroke-width="1.333" d="M74.552 59.825H26.625V35.961h47.927Z" data-name="Path 28"/><path fill="none" stroke="#000" stroke-linecap="round" stroke-linejoin="round" stroke-miterlimit="10" stroke-width="1.333" d="M74.552 51.871h-56.08v-7.955h56.08Z" data-name="Path 29"/><path fill="#0593fc" d="M73.948 17.548H44.534a.6.6 0 0 1-.6-.6v-4.565a.6.6 0 0 1 .6-.6h29.414a.6.6 0 0 1 .6.6v4.561a.6.6 0 0 1-.6.6" data-name="Path 30"/><path fill="#0182fc" d="M50.593 16.947v-4.561a.6.6 0 0 1 .6-.6H44.53a.6.6 0 0 0-.6.6v4.561a.6.6 0 0 0 .6.6h6.663a.6.6 0 0 1-.6-.6" data-name="Path 31"/><path fill="none" stroke="#000" stroke-linecap="round" stroke-linejoin="round" stroke-miterlimit="10" stroke-width="1.333" d="M62.001 11.779H44.534a.6.6 0 0 0-.6.6v4.565a.6.6 0 0 0 .6.6h29.414a.6.6 0 0 0 .6-.6v-4.565a.6.6 0 0 0-.6-.6h-5.014" data-name="Path 32"/><path fill="none" stroke="#000" stroke-linecap="round" stroke-linejoin="round" stroke-miterlimit="10" stroke-width="1.333" d="M36.771 69.263h30.625" data-name="Path 33"/><path fill="none" stroke="#000" stroke-linecap="round" stroke-linejoin="round" stroke-miterlimit="10" stroke-width="1.333" d="M36.771 76.024h30.625" data-name="Path 34"/><path fill="none" stroke="#000" stroke-linecap="round" stroke-linejoin="round" stroke-miterlimit="10" stroke-width="1.333" d="M18.472 69.263h12.926" data-name="Path 35"/><path fill="none" stroke="#000" stroke-linecap="round" stroke-linejoin="round" stroke-miterlimit="10" stroke-width="1.333" d="M18.472 76.024h12.926" data-name="Path 36"/><path fill="#fddf30" d="M90.505 83.491a16.444 16.444 0 0 1-16.444 16.44 16.444 16.444 0 0 1-16.443-16.44 16.444 16.444 0 0 1 16.444-16.444 16.444 16.444 0 0 1 16.443 16.444" data-name="Path 37"/><path fill="none" stroke="#000" stroke-linecap="round" stroke-linejoin="round" stroke-miterlimit="10" stroke-width="1.333" d="M90.505 83.491a16.444 16.444 0 0 1-16.444 16.44 16.444 16.444 0 0 1-16.443-16.44 16.444 16.444 0 0 1 16.444-16.444 16.444 16.444 0 0 1 16.443 16.444" data-name="Path 38"/><path fill="#4fc123" d="M74.061 94.394a10.915 10.915 0 0 1-10.9-10.9 10.915 10.915 0 0 1 10.9-10.9 10.915 10.915 0 0 1 10.9 10.9 10.915 10.915 0 0 1-10.9 10.9" data-name="Path 39"/><path fill="#47a920" d="M70.504 83.49a10.92 10.92 0 0 1 7.23-10.264 10.9 10.9 0 0 0-3.672-.638 10.915 10.915 0 0 0-10.9 10.9 10.915 10.915 0 0 0 10.9 10.9 10.9 10.9 0 0 0 3.672-.638 10.92 10.92 0 0 1-7.23-10.265" data-name="Path 40"/><path fill="none" stroke="#000" stroke-linecap="round" stroke-linejoin="round" stroke-miterlimit="10" stroke-width="1.333" d="M84.396 80.026a10.92 10.92 0 0 0-10.335-7.439 10.915 10.915 0 0 0-10.9 10.9 10.915 10.915 0 0 0 10.9 10.9 10.92 10.92 0 0 0 10.333-7.43" data-name="Path 41"/><path fill="none" stroke="#000" stroke-linecap="round" stroke-linejoin="round" stroke-miterlimit="10" stroke-width="1.333" d="m68.748 82.366 4.566 4.567 6.06-6.06" data-name="Path 42"/><path fill="none" stroke="#000" stroke-linecap="round" stroke-linejoin="round" stroke-miterlimit="10" stroke-width="1.333" d="M20.343 25.188h6.884a3.07 3.07 0 0 0 3.073-3.07 3.07 3.07 0 0 0-3.072-3.072H21.55a3.08 3.08 0 0 1-3.078-3.078v-.094a3.08 3.08 0 0 1 3.078-3.078h6.826" data-name="Path 43"/><path fill="none" stroke="#000" stroke-linecap="round" stroke-linejoin="round" stroke-miterlimit="10" stroke-width="1.333" d="M24.386 10.449v1.971" data-name="Path 44"/><path fill="none" stroke="#000" stroke-linecap="round" stroke-linejoin="round" stroke-miterlimit="10" stroke-width="1.333" d="M24.386 25.562v1.971" data-name="Path 45"/><path fill="none" stroke="#000" stroke-linecap="round" stroke-linejoin="round" stroke-miterlimit="10" stroke-width="1.333" d="M60.234 22.969h14.318" data-name="Path 46"/></g></g></g></g></svg>