<svg xmlns="http://www.w3.org/2000/svg" xmlns:xlink="http://www.w3.org/1999/xlink" width="350" height="350" viewBox="0 0 350 350">
  <defs>
    <clipPath id="clip-SPRK_default_preset_name_custom_1">
      <rect width="350" height="350"/>
    </clipPath>
  </defs>
  <g id="SPRK_default_preset_name_custom_1" data-name="SPRK_default_preset_name_custom – 1" clip-path="url(#clip-SPRK_default_preset_name_custom_1)">
    <rect width="350" height="350" fill="#fff"/>
    <g id="Group_1" data-name="Group 1" transform="translate(-19.83 -1.894)">
      <g id="_6502421" data-name="6502421" transform="translate(5.044 -18.865)">
        <g id="Background_Simple" data-name="Background Simple">
          <path id="Path_1" data-name="Path 1" d="M281.886,138.35c-2.962,26.879-14.848,58.077-38.934,72.293-36.375,21.479-33.11,54.891-104.28,68.961a143.52,143.52,0,0,1-31.574,2.823,119.871,119.871,0,0,1-15.519-1.386c-45.327-7.007-76.011-39.159-87.435-77.778-15.013-50.887,14.147-83.893,33.5-103.782S70.862,17.326,140.711,2.972A139.668,139.668,0,0,1,173.166.051c24.89.8,52.085,9.245,70.976,26.682q2.136,1.944,4.146,4.061C274.561,58.137,285.928,101.7,281.886,138.35Z" transform="matrix(0.819, 0.574, -0.574, 0.819, 162.013, 0)" fill="#67635b"/>
        </g>
      </g>
    </g>
    <text id="mernfa.ir" transform="translate(59 39)" font-size="22" font-family="SegoeUI, Segoe UI" letter-spacing="0.02em"><tspan x="-44.675" y="0">mernfa</tspan><tspan y="0" font-family="FarAdell, 'Far\.Adell'">.</tspan><tspan y="0">ir</tspan></text>
    <g id="_1" data-name="1" transform="translate(49.281 43.749)">
      <g id="Group_188" data-name="Group 188" transform="translate(1.585 1.021)">
        <g id="Group_187" data-name="Group 187">
          <g id="Group_2" data-name="Group 2" transform="translate(0 0.011)">
            <path id="Path_2" data-name="Path 2" d="M6.965,29.4,7.016,6.32a1.909,1.909,0,0,1,.82-1.8.191.191,0,0,1,.154-.05L12.913,1.55a1.939,1.939,0,0,1,2,.205l20.1,11.59a6.077,6.077,0,0,1,2.769,4.82l-.051,23.075a2.22,2.22,0,0,1-.821,1.8l-5.025,2.922-.051.053a2.066,2.066,0,0,1-2-.205l-20.1-11.59A6.24,6.24,0,0,1,6.965,29.4Z" transform="translate(20.622 0.353)" fill="#e4e8f4"/>
            <path id="Path_3" data-name="Path 3" d="M3.955,42.435,4.006,19.31a1.818,1.818,0,0,1,.82-1.745.192.192,0,0,1,.154-.05L9.9,14.59a1.934,1.934,0,0,1,2,.205L32,26.386a5.946,5.946,0,0,1,2.769,4.82l-.051,23.075a1.964,1.964,0,0,1-.821,1.8L28.979,58.9a1.846,1.846,0,0,1-2.154-.05L6.775,47.255a6.156,6.156,0,0,1-2.82-4.82Z" transform="translate(8.198 54.179)" fill="#e4e8f4"/>
            <path id="Path_4" data-name="Path 4" d="M11.725,40.417l.051-23.075a1.876,1.876,0,0,1,.872-1.8l.051-.05,4.974-2.924a2.066,2.066,0,0,1,2,.205l20.1,11.59a6.232,6.232,0,0,1,2.769,4.82l-.051,23.075a1.854,1.854,0,0,1-.821,1.8l-4.923,2.869c-.051.053-.1.105-.154.105a1.944,1.944,0,0,1-2-.205l-20.1-11.59a6.077,6.077,0,0,1-2.769-4.82Z" transform="translate(40.27 45.941)" fill="#e4e8f4"/>
            <path id="Path_5" data-name="Path 5" d="M241.719,129.789l-.051,23.075a2.22,2.22,0,0,1-.821,1.8l-5.128,2.975c.051-.053.1-.053.1-.105-.051.053-.1.053-.2.105l-.1,28.048a1.92,1.92,0,0,1-.769,1.693l-3.179,1.845a1.452,1.452,0,0,0,.564-.666,1.427,1.427,0,0,1-2,.513,1.915,1.915,0,0,1,.974,1.385l-.051,7.331a1.886,1.886,0,0,1-1.026,1.54L178.34,229.37l-37.381,16.973a6.22,6.22,0,0,1-5.23,0L2.713,169.529a1.815,1.815,0,0,1-1.128-1.54l.051-2.459v-.105h.051a1.679,1.679,0,0,1,1.026-1.435L91.783,112.2a5.82,5.82,0,0,1,4.974-.05,5.7,5.7,0,0,1-2.564-4.564L94.449,4.618a1.712,1.712,0,0,1,.974-1.743l2.923-1.693a2.022,2.022,0,0,1,1.846.153L183.57,49.487l.051-11.69a1.851,1.851,0,0,1,.82-1.8.186.186,0,0,1,.154-.053l4.922-2.922a2.066,2.066,0,0,1,2,.205l20.1,11.59a6.231,6.231,0,0,1,2.769,4.82l-.051,17.587L233.156,78.1a5.892,5.892,0,0,1,2.667,4.615l-.1,40.406,3.179,1.848a6.13,6.13,0,0,1,2.82,4.82Z" transform="translate(-1.585 -1.023)" fill="#e4e8f4"/>
          </g>
          <g id="Group_186" data-name="Group 186" transform="translate(0.021)">
            <g id="Group_95" data-name="Group 95">
              <g id="Group_6" data-name="Group 6" transform="translate(0 110.584)">
                <g id="Group_5" data-name="Group 5">
                  <g id="Group_3" data-name="Group 3" transform="translate(0 53.771)">
                    <path id="Path_6" data-name="Path 6" d="M231.1,58.132l-.045,7.375a1.9,1.9,0,0,1-1.041,1.537L178.321,97.077,140.95,114.024a5.935,5.935,0,0,1-5.247,0L2.675,37.219a1.811,1.811,0,0,1-1.086-1.537l.045-2.609A1.87,1.87,0,0,0,2.72,34.612l132.983,76.8a5.95,5.95,0,0,0,5.247,0l89.063-51.746a1.87,1.87,0,0,0,1.086-1.539Z" transform="translate(-1.589 -33.073)" fill="#cad0dd"/>
                  </g>
                  <g id="Group_4" data-name="Group 4" transform="translate(0.028)">
                    <path id="Path_7" data-name="Path 7" d="M229.982,100.01c1.444.834,1.451,2.2.018,3.034L140.941,154.8a5.8,5.8,0,0,1-5.24,0L2.682,78c-1.444-.834-1.451-2.2-.016-3.035L91.725,23.212a5.8,5.8,0,0,1,5.238,0Z" transform="translate(-1.595 -22.587)" fill="#e4e8f4"/>
                  </g>
                </g>
              </g>
              <g id="Group_10" data-name="Group 10" transform="translate(92.561)">
                <g id="Group_7" data-name="Group 7" transform="translate(0.963)">
                  <path id="Path_8" data-name="Path 8" d="M160.5,82.7l-.271,102.994a1.87,1.87,0,0,1-.769,1.674l-3.212,1.855a1.777,1.777,0,0,0,.769-1.674l.317-102.994a5.886,5.886,0,0,0-2.624-4.57L21.728,3.227a1.847,1.847,0,0,0-1.9-.181L23.04,1.191a1.884,1.884,0,0,1,1.855.181l132.983,76.76A5.882,5.882,0,0,1,160.5,82.7Z" transform="translate(-19.828 -1.021)" fill="#e4e8f4"/>
                </g>
                <g id="Group_8" data-name="Group 8" transform="translate(0 1.725)">
                  <path id="Path_9" data-name="Path 9" d="M155.558,78.5a5.8,5.8,0,0,1,2.619,4.537l-.292,103c0,1.658-1.193,2.336-2.637,1.5L22.26,110.765a5.749,5.749,0,0,1-2.619-4.537l.292-103c0-1.66,1.164-2.352,2.637-1.5Zm.71,106.608.292-103a2.2,2.2,0,0,0-1.007-1.745L22.563,3.58c-.578-.333-1.041-.069-1.043.561l-.292,103a2.215,2.215,0,0,0,1.036,1.762l132.989,76.781c.578.333,1.012.085,1.014-.578" transform="translate(-19.64 -1.357)" fill="#e4e8f4"/>
                </g>
                <g id="Group_9" data-name="Group 9" transform="translate(1.578 3.807)">
                  <path id="Path_10" data-name="Path 10" d="M154.288,78.664,21.3,1.906c-.588-.318-1.041-.091-1.041.541l-.316,103.04a2.29,2.29,0,0,0,1.04,1.765L153.971,184.01c.588.318,1.041.091,1.041-.587l.271-102.994a2.239,2.239,0,0,0-1-1.765Zm-3.935,49.078-.136,45.729L24.788,101.055,25.059,9.64,150.489,82.056Z" transform="translate(-19.948 -1.763)" fill="#5b5e71"/>
                </g>
                <path id="Path_11" data-name="Path 11" d="M21.163,3.3l-.271,91.415L146.321,167.13l.271-91.415Z" transform="translate(-14.474 8.384)" fill="#748bfd"/>
              </g>
              <g id="Group_90" data-name="Group 90" transform="translate(46.015 115.3)">
                <g id="Group_11" data-name="Group 11" transform="translate(43.931)">
                  <path id="Path_12" data-name="Path 12" d="M30.337,27.206a.628.628,0,0,1,0,1.189L27.573,30a2.209,2.209,0,0,1-2.053,0l-5.95-3.451c-.584-.339-.586-.853,0-1.189l2.768-1.6a2.255,2.255,0,0,1,2.053,0Z" transform="translate(-19.13 -23.506)" fill="#5b5e71"/>
                </g>
                <g id="Group_12" data-name="Group 12" transform="translate(35.138 3.252)">
                  <path id="Path_13" data-name="Path 13" d="M31.8,27.84a.628.628,0,0,1,0,1.189l-5.953,3.444a2.255,2.255,0,0,1-2.053,0l-5.95-3.451a.628.628,0,0,1,0-1.189l5.953-3.444a2.258,2.258,0,0,1,2.053,0Z" transform="translate(-17.415 -24.14)" fill="#5b5e71"/>
                </g>
                <g id="Group_13" data-name="Group 13" transform="translate(80.047 20.945)">
                  <path id="Path_14" data-name="Path 14" d="M37.384,31.293a.633.633,0,0,1,0,1.189l-2.768,1.6a2.256,2.256,0,0,1-2.053,0l-5.978-3.467c-.556-.322-.558-.837.023-1.173l2.768-1.6a2.247,2.247,0,0,1,2.025-.012Z" transform="translate(-26.173 -27.591)" fill="#5b5e71"/>
                </g>
                <g id="Group_16" data-name="Group 16" transform="translate(61.302 15.706)">
                  <g id="Group_14" data-name="Group 14" transform="translate(9.711)">
                    <path id="Path_15" data-name="Path 15" d="M35.618,30.269a.628.628,0,0,1,0,1.189l-2.768,1.6a2.209,2.209,0,0,1-2.053,0l-5.95-3.451c-.584-.339-.586-.853,0-1.189l2.768-1.6a2.255,2.255,0,0,1,2.053,0Z" transform="translate(-24.412 -26.569)" fill="#5b5e71"/>
                  </g>
                  <g id="Group_15" data-name="Group 15" transform="translate(0 2.72)">
                    <path id="Path_16" data-name="Path 16" d="M36.9,30.8a.628.628,0,0,1,0,1.189L30.95,35.433a2.255,2.255,0,0,1-2.053,0l-5.95-3.451a.628.628,0,0,1,0-1.189L28.9,27.345a2.258,2.258,0,0,1,2.053,0Z" transform="translate(-22.518 -27.1)" fill="#5b5e71"/>
                  </g>
                </g>
                <g id="Group_17" data-name="Group 17" transform="translate(89.07 26.178)">
                  <path id="Path_17" data-name="Path 17" d="M39.157,32.321a.633.633,0,0,1,0,1.189l-2.768,1.6a2.256,2.256,0,0,1-2.053,0l-5.978-3.467c-.556-.322-.586-.853,0-1.189l2.768-1.6a2.306,2.306,0,0,1,2.053,0Z" transform="translate(-27.933 -28.611)" fill="#5b5e71"/>
                </g>
                <g id="Group_18" data-name="Group 18" transform="translate(96.181 38.653)">
                  <path id="Path_18" data-name="Path 18" d="M43.718,34.754a.633.633,0,0,1,0,1.189L37.77,39.387a2.306,2.306,0,0,1-2.053,0l-5.978-3.467a.633.633,0,0,1,0-1.189l5.953-3.444a2.308,2.308,0,0,1,2.053,0Z" transform="translate(-29.32 -31.044)" fill="#5b5e71"/>
                </g>
                <g id="Group_19" data-name="Group 19" transform="translate(116.152 41.883)">
                  <path id="Path_19" data-name="Path 19" d="M44.439,35.384a.633.633,0,0,1,0,1.189l-2.768,1.6a2.256,2.256,0,0,1-2.053,0L33.643,34.7c-.556-.322-.586-.853,0-1.189l2.768-1.6a2.305,2.305,0,0,1,2.053,0Z" transform="translate(-33.214 -31.674)" fill="#5b5e71"/>
                </g>
                <g id="Group_20" data-name="Group 20" transform="translate(104.901 43.71)">
                  <path id="Path_20" data-name="Path 20" d="M45.429,35.746c.556.323.529.853-.023,1.173l-5.953,3.444a2.247,2.247,0,0,1-2.025.012l-5.978-3.467a.628.628,0,0,1,0-1.189L37.4,32.275a2.258,2.258,0,0,1,2.053,0Z" transform="translate(-31.02 -32.03)" fill="#5b5e71"/>
                </g>
                <g id="Group_77" data-name="Group 77" transform="translate(9.834 8.202)">
                  <g id="Group_21" data-name="Group 21" transform="translate(16.748)">
                    <path id="Path_21" data-name="Path 21" d="M34.465,31.321a.633.633,0,0,1,0,1.189l-5.953,3.444a2.308,2.308,0,0,1-2.053,0L16.175,29.984a.628.628,0,0,1,0-1.189l5.953-3.444a2.255,2.255,0,0,1,2.053,0Z" transform="translate(-15.747 -25.106)" fill="#5b5e71"/>
                  </g>
                  <g id="Group_22" data-name="Group 22" transform="translate(29.633 7.472)">
                    <path id="Path_22" data-name="Path 22" d="M32.657,30.273a.633.633,0,0,1,0,1.189l-5.953,3.444a2.308,2.308,0,0,1-2.053,0l-5.978-3.467a.633.633,0,0,1,0-1.189L24.626,26.8a2.305,2.305,0,0,1,2.053,0Z" transform="translate(-18.259 -26.563)" fill="#5b5e71"/>
                  </g>
                  <g id="Group_23" data-name="Group 23" transform="translate(38.187 12.432)">
                    <path id="Path_23" data-name="Path 23" d="M34.308,31.23a.633.633,0,0,1,0,1.189L28.36,35.864a2.308,2.308,0,0,1-2.053,0l-5.95-3.451a.628.628,0,0,1,0-1.189L26.3,27.776a2.255,2.255,0,0,1,2.053,0Z" transform="translate(-19.928 -27.53)" fill="#5b5e71"/>
                  </g>
                  <g id="Group_24" data-name="Group 24" transform="translate(23.232 13.663)">
                    <path id="Path_24" data-name="Path 24" d="M31.4,31.48c.556.322.529.853-.024,1.173L25.42,36.1a2.19,2.19,0,0,1-2,0l-5.978-3.467c-.556-.322-.586-.853-.031-1.174l5.953-3.444a2.308,2.308,0,0,1,2.053,0Z" transform="translate(-17.011 -27.77)" fill="#5b5e71"/>
                  </g>
                  <g id="Group_25" data-name="Group 25" transform="translate(60.182 15.277)">
                    <path id="Path_25" data-name="Path 25" d="M38.616,31.795a.633.633,0,0,1,0,1.189l-5.953,3.444a2.305,2.305,0,0,1-2.053,0l-5.978-3.467a.633.633,0,0,1,0-1.189l5.953-3.444a2.308,2.308,0,0,1,2.053,0Z" transform="translate(-24.217 -28.085)" fill="#5b5e71"/>
                  </g>
                  <g id="Group_26" data-name="Group 26" transform="translate(0 10.099)">
                    <path id="Path_26" data-name="Path 26" d="M36.843,36.574c.556.323.531.853-.023,1.173L30.9,41.175a2.2,2.2,0,0,1-2.025.012l-15.96-9.256c-.556-.322-.586-.853,0-1.189l5.924-3.428a2.306,2.306,0,0,1,2.053,0Z" transform="translate(-12.481 -27.075)" fill="#5b5e71"/>
                  </g>
                  <g id="Group_27" data-name="Group 27" transform="translate(46.9 17.486)">
                    <path id="Path_27" data-name="Path 27" d="M36.025,32.226a.633.633,0,0,1,0,1.189l-5.953,3.444a2.308,2.308,0,0,1-2.053,0l-5.978-3.467a.633.633,0,0,1,0-1.189l5.953-3.444a2.305,2.305,0,0,1,2.053,0Z" transform="translate(-21.627 -28.516)" fill="#5b5e71"/>
                  </g>
                  <g id="Group_28" data-name="Group 28" transform="translate(31.768 18.614)">
                    <path id="Path_28" data-name="Path 28" d="M33.061,32.446a.633.633,0,0,1,0,1.189l-5.953,3.444a2.248,2.248,0,0,1-2.026-.02l-5.978-3.467c-.556-.322-.586-.853-.031-1.174l5.953-3.444a2.308,2.308,0,0,1,2.053,0Z" transform="translate(-18.676 -28.736)" fill="#5b5e71"/>
                  </g>
                  <g id="Group_29" data-name="Group 29" transform="translate(68.913 20.34)">
                    <path id="Path_29" data-name="Path 29" d="M40.318,32.782c.556.322.529.853-.023,1.173L34.342,37.4a2.247,2.247,0,0,1-2.025.012l-5.978-3.467a.633.633,0,0,1,0-1.189l5.953-3.444a2.308,2.308,0,0,1,2.053,0Z" transform="translate(-25.92 -29.072)" fill="#5b5e71"/>
                  </g>
                  <g id="Group_30" data-name="Group 30" transform="translate(19.279 20.968)">
                    <path id="Path_30" data-name="Path 30" d="M30.611,32.889a.628.628,0,0,1,0,1.189l-5.953,3.444a2.255,2.255,0,0,1-2.053,0l-5.95-3.451a.633.633,0,0,1,0-1.189l5.953-3.444a2.308,2.308,0,0,1,2.053,0Z" transform="translate(-16.24 -29.195)" fill="#5b5e71"/>
                  </g>
                  <g id="Group_31" data-name="Group 31" transform="translate(55.631 22.549)">
                    <path id="Path_31" data-name="Path 31" d="M37.7,33.2a.628.628,0,0,1,0,1.189l-5.953,3.444a2.258,2.258,0,0,1-2.053,0l-5.95-3.451a.633.633,0,0,1,0-1.189L29.7,29.742a2.306,2.306,0,0,1,2.053,0Z" transform="translate(-23.33 -29.503)" fill="#5b5e71"/>
                  </g>
                  <g id="Group_32" data-name="Group 32" transform="translate(40.499 23.677)">
                    <path id="Path_32" data-name="Path 32" d="M34.764,33.433a.633.633,0,0,1,0,1.189l-5.953,3.444a2.249,2.249,0,0,1-2.026-.02L20.811,34.58c-.556-.322-.586-.853-.031-1.174l5.953-3.444a2.308,2.308,0,0,1,2.053,0Z" transform="translate(-20.379 -29.723)" fill="#5b5e71"/>
                  </g>
                  <g id="Group_33" data-name="Group 33" transform="translate(7.548 25.097)">
                    <path id="Path_33" data-name="Path 33" d="M29.053,33.706c.556.322.586.853,0,1.189l-6.672,3.86a2.306,2.306,0,0,1-2.053,0L14.382,35.3a.628.628,0,0,1,0-1.189l6.672-3.86a2.209,2.209,0,0,1,2.053,0Z" transform="translate(-13.953 -30)" fill="#5b5e71"/>
                  </g>
                  <g id="Group_34" data-name="Group 34" transform="translate(27.999 26.025)">
                    <path id="Path_34" data-name="Path 34" d="M32.322,33.881a.628.628,0,0,1,0,1.189l-5.953,3.444a2.255,2.255,0,0,1-2.053,0l-5.95-3.451a.628.628,0,0,1,0-1.189l5.953-3.444a2.258,2.258,0,0,1,2.053,0Z" transform="translate(-17.941 -30.181)" fill="#5b5e71"/>
                  </g>
                  <g id="Group_35" data-name="Group 35" transform="translate(64.352 27.606)">
                    <path id="Path_35" data-name="Path 35" d="M39.411,34.189a.628.628,0,0,1,0,1.189l-5.953,3.444a2.258,2.258,0,0,1-2.053,0l-5.95-3.451a.628.628,0,0,1,0-1.189l5.953-3.444a2.255,2.255,0,0,1,2.053,0Z" transform="translate(-25.03 -30.489)" fill="#5b5e71"/>
                  </g>
                  <g id="Group_36" data-name="Group 36" transform="translate(49.22 28.734)">
                    <path id="Path_36" data-name="Path 36" d="M36.447,34.409a.628.628,0,0,1,0,1.189L30.5,39.042a2.2,2.2,0,0,1-2.026-.02l-5.95-3.451c-.584-.339-.586-.853-.031-1.174l5.953-3.444a2.258,2.258,0,0,1,2.053,0Z" transform="translate(-22.079 -30.709)" fill="#5b5e71"/>
                  </g>
                  <g id="Group_37" data-name="Group 37" transform="translate(36.712 31.078)">
                    <path id="Path_37" data-name="Path 37" d="M34.039,34.876a.633.633,0,0,1,0,1.189L28.09,39.51a2.305,2.305,0,0,1-2.053,0l-5.978-3.467a.633.633,0,0,1,0-1.189l5.953-3.444a2.308,2.308,0,0,1,2.053,0Z" transform="translate(-19.64 -31.167)" fill="#5b5e71"/>
                  </g>
                  <g id="Group_38" data-name="Group 38" transform="translate(16.234 30.134)">
                    <path id="Path_38" data-name="Path 38" d="M32.655,35.795c.556.323.558.837-.023,1.173l-6.672,3.86a2.247,2.247,0,0,1-2.025.012l-7.869-4.563a.633.633,0,0,1,0-1.189l6.672-3.86a2.256,2.256,0,0,1,2.053,0Z" transform="translate(-15.646 -30.982)" fill="#5b5e71"/>
                  </g>
                  <g id="Group_39" data-name="Group 39" transform="translate(73.065 32.659)">
                    <path id="Path_39" data-name="Path 39" d="M41.127,35.185a.633.633,0,0,1,0,1.189l-5.953,3.444a2.308,2.308,0,0,1-2.053,0l-5.978-3.467a.633.633,0,0,1,0-1.189L33.1,31.714a2.306,2.306,0,0,1,2.053,0Z" transform="translate(-26.729 -31.475)" fill="#5b5e71"/>
                  </g>
                  <g id="Group_40" data-name="Group 40" transform="translate(57.933 33.787)">
                    <path id="Path_40" data-name="Path 40" d="M38.164,35.4a.633.633,0,0,1,0,1.189l-5.953,3.444a2.249,2.249,0,0,1-2.026-.02l-5.978-3.467c-.556-.323-.586-.853-.031-1.174l5.953-3.444a2.308,2.308,0,0,1,2.053,0Z" transform="translate(-23.778 -31.695)" fill="#5b5e71"/>
                  </g>
                  <g id="Group_41" data-name="Group 41" transform="translate(45.443 36.141)">
                    <path id="Path_41" data-name="Path 41" d="M35.741,35.864a.633.633,0,0,1,0,1.189L29.793,40.5a2.306,2.306,0,0,1-2.053,0l-5.978-3.467a.633.633,0,0,1,0-1.189l5.953-3.444a2.308,2.308,0,0,1,2.053,0Z" transform="translate(-21.343 -32.154)" fill="#5b5e71"/>
                  </g>
                  <g id="Group_42" data-name="Group 42" transform="translate(115.355 38.922)">
                    <path id="Path_42" data-name="Path 42" d="M46.2,36.406a.633.633,0,0,1,0,1.189l-2.768,1.6a2.256,2.256,0,0,1-2.053,0l-5.978-3.467c-.556-.322-.586-.853,0-1.189l2.768-1.6a2.305,2.305,0,0,1,2.053,0Z" transform="translate(-34.977 -32.696)" fill="#5b5e71"/>
                  </g>
                  <g id="Group_43" data-name="Group 43" transform="translate(81.785 37.716)">
                    <path id="Path_43" data-name="Path 43" d="M42.838,36.177c.556.322.531.853-.023,1.173l-5.953,3.444a2.25,2.25,0,0,1-2.025.012L28.859,37.34a.628.628,0,0,1,0-1.189l5.953-3.444a2.255,2.255,0,0,1,2.053,0Z" transform="translate(-28.43 -32.461)" fill="#5b5e71"/>
                  </g>
                  <g id="Group_44" data-name="Group 44" transform="translate(66.664 38.851)">
                    <path id="Path_44" data-name="Path 44" d="M39.839,36.376a.628.628,0,0,1,0,1.189L33.89,41.009a2.2,2.2,0,0,1-2.026-.02l-5.95-3.451c-.556-.322-.586-.853-.031-1.174l5.953-3.444a2.308,2.308,0,0,1,2.053,0Z" transform="translate(-25.481 -32.682)" fill="#5b5e71"/>
                  </g>
                  <g id="Group_45" data-name="Group 45" transform="translate(103.799 40.572)">
                    <path id="Path_45" data-name="Path 45" d="M47.1,36.718a.628.628,0,0,1,0,1.189l-5.953,3.444a2.255,2.255,0,0,1-2.053,0L33.152,37.9a.628.628,0,0,1,0-1.189L39.1,33.263a2.258,2.258,0,0,1,2.053,0Z" transform="translate(-32.723 -33.018)" fill="#5b5e71"/>
                  </g>
                  <g id="Group_46" data-name="Group 46" transform="translate(54.164 41.199)">
                    <path id="Path_46" data-name="Path 46" d="M37.424,36.84a.628.628,0,0,1,0,1.189l-5.953,3.444a2.255,2.255,0,0,1-2.053,0l-5.95-3.451a.628.628,0,0,1,0-1.189l5.953-3.444a2.257,2.257,0,0,1,2.053,0Z" transform="translate(-23.043 -33.14)" fill="#5b5e71"/>
                  </g>
                  <g id="Group_47" data-name="Group 47" transform="translate(124.382 44.157)">
                    <path id="Path_47" data-name="Path 47" d="M47.944,37.417a.628.628,0,0,1,0,1.189l-2.768,1.6a2.208,2.208,0,0,1-2.053,0l-5.95-3.451c-.584-.339-.586-.853,0-1.189l2.768-1.6a2.255,2.255,0,0,1,2.053,0Z" transform="translate(-36.737 -33.717)" fill="#5b5e71"/>
                  </g>
                  <g id="Group_48" data-name="Group 48" transform="translate(90.516 42.78)">
                    <path id="Path_48" data-name="Path 48" d="M44.513,37.149a.633.633,0,0,1,0,1.189l-5.953,3.444a2.308,2.308,0,0,1-2.053,0l-5.95-3.451a.628.628,0,0,1,0-1.189l5.953-3.444a2.255,2.255,0,0,1,2.053,0Z" transform="translate(-30.133 -33.449)" fill="#5b5e71"/>
                  </g>
                  <g id="Group_49" data-name="Group 49" transform="translate(75.385 43.908)">
                    <path id="Path_49" data-name="Path 49" d="M41.549,37.368a.628.628,0,0,1,0,1.189L35.6,42a2.2,2.2,0,0,1-2.026-.02l-5.95-3.451c-.584-.339-.586-.853-.031-1.174l5.953-3.444a2.258,2.258,0,0,1,2.053,0Z" transform="translate(-27.182 -33.668)" fill="#5b5e71"/>
                  </g>
                  <g id="Group_50" data-name="Group 50" transform="translate(112.512 45.625)">
                    <path id="Path_50" data-name="Path 50" d="M48.821,37.713a.633.633,0,0,1,0,1.189l-5.953,3.444a2.306,2.306,0,0,1-2.053,0l-5.978-3.467a.633.633,0,0,1,0-1.189l5.953-3.444a2.308,2.308,0,0,1,2.053,0Z" transform="translate(-34.422 -34.003)" fill="#5b5e71"/>
                  </g>
                  <g id="Group_51" data-name="Group 51" transform="translate(62.891 46.26)">
                    <path id="Path_51" data-name="Path 51" d="M39.13,37.829a.633.633,0,0,1,0,1.189l-5.953,3.444a2.306,2.306,0,0,1-2.053,0L25.15,38.991c-.556-.322-.531-.853.023-1.173l5.953-3.444a2.25,2.25,0,0,1,2.025-.012Z" transform="translate(-24.745 -34.127)" fill="#5b5e71"/>
                  </g>
                  <g id="Group_52" data-name="Group 52" transform="translate(133.415 49.396)">
                    <path id="Path_52" data-name="Path 52" d="M49.709,38.441a.633.633,0,0,1,0,1.189l-2.768,1.6a2.256,2.256,0,0,1-2.053,0l-5.978-3.467c-.556-.322-.558-.837.023-1.173l2.768-1.6a2.247,2.247,0,0,1,2.025-.012Z" transform="translate(-38.499 -34.739)" fill="#5b5e71"/>
                  </g>
                  <g id="Group_53" data-name="Group 53" transform="translate(99.23 47.833)">
                    <path id="Path_53" data-name="Path 53" d="M46.23,38.144a.633.633,0,0,1,0,1.189l-5.953,3.444a2.308,2.308,0,0,1-2.053,0L32.25,39.307a.633.633,0,0,1,0-1.189L38.2,34.673a2.306,2.306,0,0,1,2.053,0Z" transform="translate(-31.832 -34.434)" fill="#5b5e71"/>
                  </g>
                  <g id="Group_54" data-name="Group 54" transform="translate(84.098 48.961)">
                    <path id="Path_54" data-name="Path 54" d="M43.266,38.364a.633.633,0,0,1,0,1.189L37.318,43a2.249,2.249,0,0,1-2.026-.02l-5.978-3.467c-.556-.322-.586-.853-.031-1.174l5.953-3.444a2.308,2.308,0,0,1,2.053,0Z" transform="translate(-28.881 -34.654)" fill="#5b5e71"/>
                  </g>
                  <g id="Group_55" data-name="Group 55" transform="translate(121.243 50.688)">
                    <path id="Path_55" data-name="Path 55" d="M50.5,38.684a.628.628,0,0,1,0,1.189l-5.953,3.444a2.255,2.255,0,0,1-2.053,0l-5.95-3.451a.633.633,0,0,1,0-1.189l5.953-3.444a2.308,2.308,0,0,1,2.053,0Z" transform="translate(-36.125 -34.991)" fill="#5b5e71"/>
                  </g>
                  <g id="Group_56" data-name="Group 56" transform="translate(71.608 51.316)">
                    <path id="Path_56" data-name="Path 56" d="M40.844,38.823c.556.323.529.853-.023,1.173L34.867,43.44a2.247,2.247,0,0,1-2.025.012l-5.978-3.467a.633.633,0,0,1,0-1.189l5.953-3.444a2.308,2.308,0,0,1,2.053,0Z" transform="translate(-26.445 -35.113)" fill="#5b5e71"/>
                  </g>
                  <g id="Group_57" data-name="Group 57" transform="translate(142.438 54.628)">
                    <path id="Path_57" data-name="Path 57" d="M51.482,39.469a.633.633,0,0,1,0,1.189l-2.768,1.6a2.256,2.256,0,0,1-2.053,0l-5.978-3.467c-.556-.322-.586-.853,0-1.189L43.451,36A2.305,2.305,0,0,1,45.5,36Z" transform="translate(-40.258 -35.759)" fill="#5b5e71"/>
                  </g>
                  <g id="Group_58" data-name="Group 58" transform="translate(107.961 52.896)">
                    <path id="Path_58" data-name="Path 58" d="M47.9,39.115a.628.628,0,0,1,0,1.189l-5.953,3.444a2.258,2.258,0,0,1-2.053,0l-5.95-3.451a.633.633,0,0,1,0-1.189L39.9,35.661a2.305,2.305,0,0,1,2.053,0Z" transform="translate(-33.535 -35.421)" fill="#5b5e71"/>
                  </g>
                  <g id="Group_59" data-name="Group 59" transform="translate(92.829 54.024)">
                    <path id="Path_59" data-name="Path 59" d="M44.969,39.351a.633.633,0,0,1,0,1.189l-5.953,3.444a2.249,2.249,0,0,1-2.026-.02L31.016,40.5c-.556-.322-.586-.853-.031-1.174l5.953-3.444a2.308,2.308,0,0,1,2.053,0Z" transform="translate(-30.584 -35.641)" fill="#5b5e71"/>
                  </g>
                  <g id="Group_60" data-name="Group 60" transform="translate(129.779 55.638)">
                    <path id="Path_60" data-name="Path 60" d="M52.188,39.666a.633.633,0,0,1,0,1.189L46.24,44.3a2.305,2.305,0,0,1-2.053,0l-5.978-3.467a.633.633,0,0,1,0-1.189L44.157,36.2a2.308,2.308,0,0,1,2.053,0Z" transform="translate(-37.79 -35.956)" fill="#5b5e71"/>
                  </g>
                  <g id="Group_61" data-name="Group 61" transform="translate(27.023 36.391)">
                    <path id="Path_61" data-name="Path 61" d="M67.514,56.011c.556.322.586.853,0,1.189l-6.672,3.86a2.305,2.305,0,0,1-2.053,0L18.169,37.5a.633.633,0,0,1,0-1.189l6.672-3.86a2.256,2.256,0,0,1,2.053,0Z" transform="translate(-17.75 -32.203)" fill="#5b5e71"/>
                  </g>
                  <g id="Group_62" data-name="Group 62" transform="translate(116.678 57.951)">
                    <path id="Path_62" data-name="Path 62" d="M49.619,40.109a.628.628,0,0,1,0,1.189L43.67,44.743a2.258,2.258,0,0,1-2.053,0l-5.978-3.467c-.556-.322-.529-.853.023-1.173l5.953-3.444a2.247,2.247,0,0,1,2.025-.012Z" transform="translate(-35.235 -36.407)" fill="#5b5e71"/>
                  </g>
                  <g id="Group_63" data-name="Group 63" transform="translate(101.55 59.081)">
                    <path id="Path_63" data-name="Path 63" d="M46.652,40.327a.628.628,0,0,1,0,1.189L40.7,44.961a2.2,2.2,0,0,1-2.026-.02l-5.95-3.451c-.584-.339-.586-.853-.031-1.174l5.953-3.444a2.258,2.258,0,0,1,2.053,0Z" transform="translate(-32.284 -36.628)" fill="#5b5e71"/>
                  </g>
                  <g id="Group_64" data-name="Group 64" transform="translate(89.042 61.426)">
                    <path id="Path_64" data-name="Path 64" d="M44.244,40.795a.633.633,0,0,1,0,1.189L38.3,45.428a2.306,2.306,0,0,1-2.053,0l-5.978-3.467a.633.633,0,0,1,0-1.189l5.953-3.444a2.308,2.308,0,0,1,2.053,0Z" transform="translate(-29.845 -37.085)" fill="#5b5e71"/>
                  </g>
                  <g id="Group_65" data-name="Group 65" transform="translate(125.395 63.007)">
                    <path id="Path_65" data-name="Path 65" d="M51.333,41.1a.633.633,0,0,1,0,1.189l-5.953,3.444a2.308,2.308,0,0,1-2.053,0l-5.978-3.467a.633.633,0,0,1,0-1.189L43.3,37.632a2.306,2.306,0,0,1,2.053,0Z" transform="translate(-36.935 -37.393)" fill="#5b5e71"/>
                  </g>
                  <g id="Group_66" data-name="Group 66" transform="translate(138.344 60.605)">
                    <path id="Path_66" data-name="Path 66" d="M58.2,43.15c.556.323.529.853-.024,1.173l-5.953,3.444a2.247,2.247,0,0,1-2.025.012L39.878,41.8a.633.633,0,0,1,0-1.189l5.953-3.444a2.308,2.308,0,0,1,2.053,0Z" transform="translate(-39.46 -36.925)" fill="#5b5e71"/>
                  </g>
                  <g id="Group_67" data-name="Group 67" transform="translate(70.472 61.589)">
                    <path id="Path_67" data-name="Path 67" d="M43.215,41.919c.556.322.586.853,0,1.189l-6.672,3.86a2.306,2.306,0,0,1-2.053,0l-7.841-4.547a.628.628,0,0,1,0-1.189l6.672-3.86a2.209,2.209,0,0,1,2.053,0Z" transform="translate(-26.224 -37.117)" fill="#5b5e71"/>
                  </g>
                  <g id="Group_68" data-name="Group 68" transform="translate(110.263 64.135)">
                    <path id="Path_68" data-name="Path 68" d="M48.369,41.323a.633.633,0,0,1,0,1.189L42.42,45.956a2.249,2.249,0,0,1-2.026-.02L34.416,42.47c-.556-.323-.586-.853-.031-1.174l5.953-3.444a2.308,2.308,0,0,1,2.053,0Z" transform="translate(-33.984 -37.613)" fill="#5b5e71"/>
                  </g>
                  <g id="Group_69" data-name="Group 69" transform="translate(97.763 66.483)">
                    <path id="Path_69" data-name="Path 69" d="M45.927,41.771a.628.628,0,0,1,0,1.189L39.978,46.4a2.255,2.255,0,0,1-2.053,0l-5.95-3.451a.628.628,0,0,1,0-1.189l5.953-3.444a2.258,2.258,0,0,1,2.053,0Z" transform="translate(-31.546 -38.071)" fill="#5b5e71"/>
                  </g>
                  <g id="Group_70" data-name="Group 70" transform="translate(134.115 68.064)">
                    <path id="Path_70" data-name="Path 70" d="M53.044,42.1c.556.323.531.852-.024,1.173l-5.953,3.444a2.249,2.249,0,0,1-2.025.012l-5.978-3.467a.628.628,0,0,1,0-1.189l5.953-3.444a2.255,2.255,0,0,1,2.053,0Z" transform="translate(-38.635 -38.379)" fill="#5b5e71"/>
                  </g>
                  <g id="Group_71" data-name="Group 71" transform="translate(81.354 67.9)">
                    <path id="Path_71" data-name="Path 71" d="M43.6,42.144c.584.339.586.853,0,1.189l-6.672,3.86a2.255,2.255,0,0,1-2.053,0l-6.117-3.548a.633.633,0,0,1,0-1.189l6.672-3.86a2.256,2.256,0,0,1,2.053,0Z" transform="translate(-28.346 -38.347)" fill="#5b5e71"/>
                  </g>
                  <g id="Group_72" data-name="Group 72" transform="translate(119.067 69.241)">
                    <path id="Path_72" data-name="Path 72" d="M56.464,46.017a.633.633,0,0,1,0,1.189l-5.953,3.444a2.248,2.248,0,0,1-2.026-.019l-12.346-7.16c-.584-.339-.586-.853-.031-1.174l5.953-3.444a2.258,2.258,0,0,1,2.053,0Z" transform="translate(-35.701 -38.609)" fill="#5b5e71"/>
                  </g>
                  <g id="Group_73" data-name="Group 73" transform="translate(90.075 75.167)">
                    <path id="Path_73" data-name="Path 73" d="M41.493,43.567c.584.339.586.853,0,1.189l-2.851,1.649a2.255,2.255,0,0,1-2.053,0l-6.117-3.548a.628.628,0,0,1,0-1.189l2.851-1.649a2.209,2.209,0,0,1,2.053,0Z" transform="translate(-30.047 -39.765)" fill="#5b5e71"/>
                  </g>
                  <g id="Group_74" data-name="Group 74" transform="translate(106.217 71.697)">
                    <path id="Path_74" data-name="Path 74" d="M58.252,48.99a.633.633,0,0,1,0,1.189l-5.924,3.428a2.256,2.256,0,0,1-2.053,0L33.623,43.944c-.556-.322-.586-.853,0-1.189l5.924-3.428a2.306,2.306,0,0,1,2.053,0Z" transform="translate(-33.194 -39.088)" fill="#5b5e71"/>
                  </g>
                  <g id="Group_75" data-name="Group 75" transform="translate(98.788 78.01)">
                    <path id="Path_75" data-name="Path 75" d="M47.031,44.132c.556.323.586.853,0,1.189l-6.672,3.86a2.306,2.306,0,0,1-2.053,0l-6.145-3.564a.633.633,0,0,1,0-1.189l6.672-3.86a2.256,2.256,0,0,1,2.053,0Z" transform="translate(-31.746 -40.319)" fill="#5b5e71"/>
                  </g>
                  <g id="Group_76" data-name="Group 76" transform="translate(107.62 85.343)">
                    <path id="Path_76" data-name="Path 76" d="M44.914,45.552c.584.339.586.853,0,1.189L42.068,48.39a2.255,2.255,0,0,1-2.053,0L33.9,44.839a.628.628,0,0,1,0-1.189L36.744,42A2.208,2.208,0,0,1,38.8,42Z" transform="translate(-33.468 -41.749)" fill="#5b5e71"/>
                  </g>
                </g>
                <g id="Group_78" data-name="Group 78" transform="translate(18.041 13.151)">
                  <path id="Path_77" data-name="Path 77" d="M34.844,33.479a.633.633,0,0,1,0,1.189L28.9,38.113a2.249,2.249,0,0,1-2.026-.02l-12.346-7.16c-.584-.339-.586-.853-.031-1.174l5.953-3.444a2.258,2.258,0,0,1,2.053,0Z" transform="translate(-14.081 -26.071)" fill="#5b5e71"/>
                </g>
                <g id="Group_79" data-name="Group 79" transform="translate(61.988 10.472)">
                  <path id="Path_78" data-name="Path 78" d="M33.876,29.259c.556.322.531.853-.023,1.173l-2.768,1.6a2.2,2.2,0,0,1-2.025.012L23.08,28.579c-.556-.322-.586-.853,0-1.189l2.768-1.6a2.306,2.306,0,0,1,2.053,0Z" transform="translate(-22.651 -25.548)" fill="#5b5e71"/>
                </g>
                <g id="Group_80" data-name="Group 80" transform="translate(52.95 5.231)">
                  <path id="Path_79" data-name="Path 79" d="M32.113,28.237a.633.633,0,0,1,0,1.189l-2.768,1.6a2.256,2.256,0,0,1-2.053,0l-5.978-3.467c-.556-.323-.586-.853,0-1.189l2.768-1.6a2.305,2.305,0,0,1,2.053,0Z" transform="translate(-20.889 -24.526)" fill="#5b5e71"/>
                </g>
                <g id="Group_81" data-name="Group 81" transform="translate(52.582 13.368)">
                  <path id="Path_80" data-name="Path 80" d="M35.216,29.823a.633.633,0,0,1,0,1.189l-5.953,3.444a2.306,2.306,0,0,1-2.053,0l-5.978-3.467a.633.633,0,0,1,0-1.189l5.953-3.444a2.308,2.308,0,0,1,2.053,0Z" transform="translate(-20.817 -26.113)" fill="#5b5e71"/>
                </g>
                <g id="Group_82" data-name="Group 82" transform="translate(43.851 8.305)">
                  <path id="Path_81" data-name="Path 81" d="M33.513,28.836a.633.633,0,0,1,0,1.189l-5.953,3.444a2.305,2.305,0,0,1-2.053,0L19.533,30a.633.633,0,0,1,0-1.189l5.953-3.444a2.308,2.308,0,0,1,2.053,0Z" transform="translate(-19.114 -25.126)" fill="#5b5e71"/>
                </g>
                <g id="Group_83" data-name="Group 83" transform="translate(0 23.218)">
                  <path id="Path_82" data-name="Path 82" d="M25.667,31.742c.556.322.586.853,0,1.189L19,36.792a2.306,2.306,0,0,1-2.053,0l-5.978-3.467c-.556-.322-.531-.853.023-1.173l6.672-3.86a2.2,2.2,0,0,1,2.025-.012Z" transform="translate(-10.563 -28.034)" fill="#5b5e71"/>
                </g>
                <g id="Group_84" data-name="Group 84" transform="translate(8.689 28.258)">
                  <path id="Path_83" data-name="Path 83" d="M27.375,32.733c.556.323.586.853,0,1.189l-6.672,3.86a2.305,2.305,0,0,1-2.053,0l-5.978-3.467a.633.633,0,0,1,0-1.189l6.672-3.86a2.256,2.256,0,0,1,2.053,0Z" transform="translate(-12.257 -29.017)" fill="#5b5e71"/>
                </g>
                <g id="Group_85" data-name="Group 85" transform="translate(107.133 36.653)">
                  <path id="Path_84" data-name="Path 84" d="M42.662,34.354a.628.628,0,0,1,0,1.189l-2.768,1.6a2.209,2.209,0,0,1-2.053,0l-5.95-3.451c-.584-.339-.586-.853,0-1.189l2.768-1.6a2.255,2.255,0,0,1,2.053,0Z" transform="translate(-31.456 -30.654)" fill="#5b5e71"/>
                </g>
                <g id="Group_86" data-name="Group 86" transform="translate(98.107 31.418)">
                  <path id="Path_85" data-name="Path 85" d="M40.892,33.327a.628.628,0,0,1,0,1.189l-2.768,1.6a2.208,2.208,0,0,1-2.053,0l-5.95-3.451c-.556-.323-.586-.853,0-1.189l2.768-1.6a2.305,2.305,0,0,1,2.053,0Z" transform="translate(-29.695 -29.633)" fill="#5b5e71"/>
                </g>
                <g id="Group_87" data-name="Group 87" transform="translate(87.467 33.599)">
                  <path id="Path_86" data-name="Path 86" d="M42,33.758a.628.628,0,0,1,0,1.189l-5.953,3.444a2.255,2.255,0,0,1-2.053,0l-5.95-3.451a.628.628,0,0,1,0-1.189L34,30.3a2.258,2.258,0,0,1,2.053,0Z" transform="translate(-27.62 -30.059)" fill="#5b5e71"/>
                </g>
                <g id="Group_88" data-name="Group 88" transform="translate(161.298 68.064)">
                  <path id="Path_87" data-name="Path 87" d="M53.253,40.5c.556.322.531.852-.024,1.173l-2.768,1.6a2.2,2.2,0,0,1-2.025.012l-5.978-3.467c-.584-.339-.586-.853,0-1.189l2.768-1.6a2.255,2.255,0,0,1,2.053,0Z" transform="translate(-42.018 -36.78)" fill="#5b5e71"/>
                </g>
                <g id="Group_89" data-name="Group 89" transform="translate(90.163 64.575)">
                  <path id="Path_88" data-name="Path 88" d="M42.527,39.8a.628.628,0,0,1,0,1.189l-5.953,3.444a2.255,2.255,0,0,1-2.053,0l-5.95-3.451a.628.628,0,0,1,0-1.189l5.953-3.444a2.257,2.257,0,0,1,2.053,0Z" transform="translate(-28.146 -36.099)" fill="#5b5e71"/>
                </g>
              </g>
              <g id="Group_91" data-name="Group 91" transform="translate(46.898 167.864)">
                <path id="Path_89" data-name="Path 89" d="M86.469,60.258c1.018.588,1.023,1.515.012,2.1l-26.149,15.2a3.961,3.961,0,0,1-3.632,0L11.495,51.494a1.111,1.111,0,0,1-.011-2.1l26.149-15.2a3.99,3.99,0,0,1,3.631,0Z" transform="translate(-10.735 -33.757)" fill="#cad0dd"/>
              </g>
              <g id="Group_94" data-name="Group 94" transform="translate(209.929 194.752)">
                <g id="Group_92" data-name="Group 92" transform="translate(8.606)">
                  <path id="Path_90" data-name="Path 90" d="M44.207,43.236l.009,3.286,7.335-4.235L51.542,39Z" transform="translate(-44.207 -39.001)" fill="#5b5e71"/>
                </g>
                <g id="Group_93" data-name="Group 93" transform="translate(0 4.969)">
                  <path id="Path_91" data-name="Path 91" d="M42.529,44.2l.009,3.286,7.335-4.235-.009-3.286Z" transform="translate(-42.529 -39.97)" fill="#5b5e71"/>
                </g>
              </g>
            </g>
            <g id="Group_145" data-name="Group 145" transform="translate(104.623 23.3)">
              <g id="Group_96" data-name="Group 96" transform="translate(0.135 7.333)">
                <path id="Path_92" data-name="Path 92" d="M26.334,9.484l0,1.347L22.019,8.342l0-1.347Z" transform="translate(-22.019 -6.995)" fill="#ed435c"/>
              </g>
              <g id="Group_97" data-name="Group 97" transform="translate(4.015 16.928)">
                <path id="Path_93" data-name="Path 93" d="M51.462,25.426l0,1.347L22.775,10.213l0-1.347Z" transform="translate(-22.775 -8.866)" fill="#e4e8f4"/>
              </g>
              <g id="Group_98" data-name="Group 98" transform="translate(4.026 13.262)">
                <path id="Path_94" data-name="Path 94" d="M31.567,13.223l0,1.337L22.778,9.488l0-1.337Z" transform="translate(-22.778 -8.151)" fill="#e4e8f4"/>
              </g>
              <g id="Group_99" data-name="Group 99" transform="translate(0.145 3.666)">
                <path id="Path_95" data-name="Path 95" d="M36.567,14.676l0,1.347-14.543-8.4,0-1.347Z" transform="translate(-22.021 -6.28)" fill="#e4e8f4"/>
              </g>
              <g id="Group_100" data-name="Group 100" transform="translate(0.156)">
                <path id="Path_96" data-name="Path 96" d="M36.569,13.961l0,1.347-14.543-8.4,0-1.347Z" transform="translate(-22.023 -5.565)" fill="#efac41"/>
              </g>
              <g id="Group_101" data-name="Group 101" transform="translate(34.529 34.545)">
                <path id="Path_97" data-name="Path 97" d="M48.3,23.6l0,1.347-19.573-11.3,0-1.347Z" transform="translate(-28.726 -12.302)" fill="#ed435c"/>
              </g>
              <g id="Group_102" data-name="Group 102" transform="translate(4.005 20.594)">
                <path id="Path_98" data-name="Path 98" d="M31.888,14.841l0,1.347-9.11-5.26,0-1.347Z" transform="translate(-22.773 -9.581)" fill="#ed435c"/>
              </g>
              <g id="Group_103" data-name="Group 103" transform="translate(0.062 33.018)">
                <path id="Path_99" data-name="Path 99" d="M25.559,14.054l0,1.347L22,13.351l0-1.347Z" transform="translate(-22.005 -12.004)" fill="#ed435c"/>
              </g>
              <g id="Group_104" data-name="Group 104" transform="translate(12.318 62.149)">
                <path id="Path_100" data-name="Path 100" d="M31.67,21.883l0,1.347-7.271-4.2,0-1.347Z" transform="translate(-24.395 -17.685)" fill="#3c5dd6"/>
              </g>
              <g id="Group_117" data-name="Group 117" transform="translate(0 24.261)">
                <g id="Group_105" data-name="Group 105" transform="translate(0.01 27.109)">
                  <path id="Path_101" data-name="Path 101" d="M29.389,19.85l0,1.347-7.391-4.267,0-1.347Z" transform="translate(-21.994 -15.583)" fill="#ed435c"/>
                </g>
                <g id="Group_106" data-name="Group 106" transform="translate(0 30.776)">
                  <path id="Path_102" data-name="Path 102" d="M32.963,22.63l0,1.347L21.992,17.644,22,16.3Z" transform="translate(-21.992 -16.298)" fill="#e4e8f4"/>
                </g>
                <g id="Group_107" data-name="Group 107" transform="translate(8.539 32.034)">
                  <path id="Path_103" data-name="Path 103" d="M33.627,22.3l0,1.347L23.658,17.89l0-1.347Z" transform="translate(-23.658 -16.543)" fill="#efac41"/>
                </g>
                <g id="Group_108" data-name="Group 108" transform="translate(0.052 12.434)">
                  <path id="Path_104" data-name="Path 104" d="M33.726,19.487l0,1.337L22,14.058l0-1.337Z" transform="translate(-22.003 -12.721)" fill="#e4e8f4"/>
                </g>
                <g id="Group_109" data-name="Group 109" transform="translate(0.031 19.767)">
                  <path id="Path_105" data-name="Path 105" d="M42.952,26.246l0,1.347L22,15.5l0-1.347Z" transform="translate(-21.999 -14.151)" fill="#e4e8f4"/>
                </g>
                <g id="Group_110" data-name="Group 110" transform="translate(0.041 16.1)">
                  <path id="Path_106" data-name="Path 106" d="M45.409,26.949l0,1.347L22,14.783l0-1.347Z" transform="translate(-22.001 -13.436)" fill="#e4e8f4"/>
                </g>
                <g id="Group_111" data-name="Group 111" transform="translate(5.186 11.716)">
                  <path id="Path_107" data-name="Path 107" d="M38.269,21.392l0,1.347L23,13.927l0-1.347Z" transform="translate(-23.004 -12.581)" fill="#e4e8f4"/>
                </g>
                <g id="Group_112" data-name="Group 112" transform="translate(0.073 5.091)">
                  <path id="Path_108" data-name="Path 108" d="M42.4,23.058l0,1.347L22.007,12.636l0-1.347Z" transform="translate(-22.007 -11.289)" fill="#e4e8f4"/>
                </g>
                <g id="Group_113" data-name="Group 113" transform="translate(12.961 19.887)">
                  <path id="Path_109" data-name="Path 109" d="M39.52,22.832l0,1.337-15-8.658,0-1.337Z" transform="translate(-24.52 -14.174)" fill="#3c5dd6"/>
                </g>
                <g id="Group_114" data-name="Group 114" transform="translate(3.984 3.677)">
                  <path id="Path_110" data-name="Path 110" d="M37.324,19.414l0,1.347-14.551-8.4,0-1.347Z" transform="translate(-22.769 -11.013)" fill="#e4e8f4"/>
                </g>
                <g id="Group_115" data-name="Group 115" transform="translate(3.995)">
                  <path id="Path_111" data-name="Path 111" d="M35.77,17.8l0,1.347-12.994-7.5,0-1.347Z" transform="translate(-22.771 -10.296)" fill="#3c5dd6"/>
                </g>
                <g id="Group_116" data-name="Group 116" transform="translate(14.45 2.364)">
                  <path id="Path_112" data-name="Path 112" d="M50.366,25.51l0,1.347L24.81,12.1l0-1.347Z" transform="translate(-24.81 -10.757)" fill="#e4e8f4"/>
                </g>
              </g>
              <g id="Group_118" data-name="Group 118" transform="translate(18.545 32.662)">
                <path id="Path_113" data-name="Path 113" d="M50.224,26.144l0,1.347L25.609,13.282l0-1.347Z" transform="translate(-25.609 -11.934)" fill="#e4e8f4"/>
              </g>
              <g id="Group_119" data-name="Group 119" transform="translate(42.945 43.076)">
                <path id="Path_114" data-name="Path 114" d="M41.518,20.4l0,1.347L30.367,15.312l0-1.347Z" transform="translate(-30.367 -13.965)" fill="#e4e8f4"/>
              </g>
              <g id="Group_120" data-name="Group 120" transform="translate(26.994 26.523)">
                <path id="Path_115" data-name="Path 115" d="M54.378,26.394l0,1.337L27.257,12.074l0-1.337Z" transform="translate(-27.257 -10.737)" fill="#e4e8f4"/>
              </g>
              <g id="Group_121" data-name="Group 121" transform="translate(15.968 20.156)">
                <path id="Path_116" data-name="Path 116" d="M35.033,15.225l0,1.337-9.923-5.729,0-1.337Z" transform="translate(-25.106 -9.496)" fill="#efac41"/>
              </g>
              <g id="Group_122" data-name="Group 122" transform="translate(45.09 47.987)">
                <path id="Path_117" data-name="Path 117" d="M39.78,20.114l0,1.347L30.786,16.27l0-1.347Z" transform="translate(-30.786 -14.923)" fill="#e4e8f4"/>
              </g>
              <g id="Group_123" data-name="Group 123" transform="translate(3.849 75.631)">
                <path id="Path_118" data-name="Path 118" d="M37.3,28.715l0,1.347-14.551-8.4,0-1.347Z" transform="translate(-22.743 -20.314)" fill="#3c5dd6"/>
              </g>
              <g id="Group_124" data-name="Group 124" transform="translate(3.859 71.965)">
                <path id="Path_119" data-name="Path 119" d="M43.16,31.383l0,1.347L22.745,20.946l0-1.347Z" transform="translate(-22.745 -19.599)" fill="#e4e8f4"/>
              </g>
              <g id="Group_125" data-name="Group 125" transform="translate(3.87 68.298)">
                <path id="Path_120" data-name="Path 120" d="M33.05,24.831l0,1.347-10.3-5.946,0-1.347Z" transform="translate(-22.747 -18.884)" fill="#e4e8f4"/>
              </g>
              <g id="Group_126" data-name="Group 126" transform="translate(13.897 70.415)">
                <path id="Path_121" data-name="Path 121" d="M39.249,27.693l0,1.336L24.7,20.633l0-1.336Z" transform="translate(-24.703 -19.297)" fill="#e4e8f4"/>
              </g>
              <g id="Group_127" data-name="Group 127" transform="translate(26.098 73.777)">
                <path id="Path_122" data-name="Path 122" d="M38.805,26.719l0,1.347L27.082,21.3l0-1.347Z" transform="translate(-27.082 -19.953)" fill="#e4e8f4"/>
              </g>
              <g id="Group_128" data-name="Group 128" transform="translate(30.553 61.649)">
                <path id="Path_123" data-name="Path 123" d="M55.808,33.669l0,1.347L27.951,18.934l0-1.347Z" transform="translate(-27.951 -17.588)" fill="#ed435c"/>
              </g>
              <g id="Group_129" data-name="Group 129" transform="translate(18.921 69.633)">
                <path id="Path_124" data-name="Path 124" d="M31.572,22.542l0,1.347-5.885-3.4,0-1.347Z" transform="translate(-25.682 -19.144)" fill="#e4e8f4"/>
              </g>
              <g id="Group_130" data-name="Group 130" transform="translate(23.46 61.226)">
                <path id="Path_125" data-name="Path 125" d="M39.078,24.726l0,1.347L26.568,18.852l0-1.347Z" transform="translate(-26.568 -17.505)" fill="#e4e8f4"/>
              </g>
              <g id="Group_131" data-name="Group 131" transform="translate(79.322 89.806)">
                <path id="Path_126" data-name="Path 126" d="M50.725,30.734l0,1.347L37.462,24.425l0-1.347Z" transform="translate(-37.462 -23.079)" fill="#efac41"/>
              </g>
              <g id="Group_143" data-name="Group 143" transform="translate(29.061 68.143)">
                <g id="Group_132" data-name="Group 132" transform="translate(0.768 4.116)">
                  <path id="Path_127" data-name="Path 127" d="M42.981,28.413l0,1.347L27.81,21l0-1.347Z" transform="translate(-27.81 -19.656)" fill="#e4e8f4"/>
                </g>
                <g id="Group_133" data-name="Group 133">
                  <path id="Path_128" data-name="Path 128" d="M54.046,34.086l0,1.347L27.66,20.2l0-1.347Z" transform="translate(-27.66 -18.854)" fill="#ed435c"/>
                </g>
                <g id="Group_134" data-name="Group 134" transform="translate(17.962 14.043)">
                  <path id="Path_129" data-name="Path 129" d="M48.4,31.544l0,1.347L31.163,22.939l0-1.347Z" transform="translate(-31.163 -21.593)" fill="#e4e8f4"/>
                </g>
                <g id="Group_135" data-name="Group 135" transform="translate(10.416 13.358)">
                  <path id="Path_130" data-name="Path 130" d="M60.26,39.106l0,1.347L29.691,22.805l0-1.347Z" transform="translate(-29.691 -21.459)" fill="#efac41"/>
                </g>
                <g id="Group_136" data-name="Group 136" transform="translate(43.461 32.437)">
                  <path id="Path_131" data-name="Path 131" d="M44.326,29.906l0,1.347-8.187-4.727,0-1.347Z" transform="translate(-36.136 -25.18)" fill="#ed435c"/>
                </g>
                <g id="Group_137" data-name="Group 137" transform="translate(9.113 1.578)">
                  <path id="Path_132" data-name="Path 132" d="M65.575,40.024l0,1.347L29.437,20.508l0-1.347Z" transform="translate(-29.437 -19.162)" fill="#e4e8f4"/>
                </g>
                <g id="Group_138" data-name="Group 138" transform="translate(30.449 10.225)">
                  <path id="Path_133" data-name="Path 133" d="M51.669,31.279l0,1.347L33.6,22.194l0-1.347Z" transform="translate(-33.598 -20.848)" fill="#e4e8f4"/>
                </g>
                <g id="Group_139" data-name="Group 139" transform="translate(27.947 16.135)">
                  <path id="Path_134" data-name="Path 134" d="M61.985,38.669l0,1.347L33.11,23.347l0-1.347Z" transform="translate(-33.11 -22.001)" fill="#e4e8f4"/>
                </g>
                <g id="Group_140" data-name="Group 140" transform="translate(36.902 24.978)">
                  <path id="Path_135" data-name="Path 135" d="M61.447,39.075l0,1.347L34.856,25.072l0-1.347Z" transform="translate(-34.856 -23.725)" fill="#e4e8f4"/>
                </g>
                <g id="Group_141" data-name="Group 141" transform="translate(58.333 33.679)">
                  <path id="Path_136" data-name="Path 136" d="M44.206,28.4l0,1.347-5.167-2.983,0-1.347Z" transform="translate(-39.036 -25.422)" fill="#e4e8f4"/>
                </g>
                <g id="Group_142" data-name="Group 142" transform="translate(46.572 23.206)">
                  <path id="Path_137" data-name="Path 137" d="M53.684,33.158l0,1.347L36.742,24.726l0-1.347Z" transform="translate(-36.742 -23.379)" fill="#e4e8f4"/>
                </g>
              </g>
              <g id="Group_144" data-name="Group 144" transform="translate(25.397 55)">
                <path id="Path_138" data-name="Path 138" d="M50.183,29.7l0,1.347L26.945,17.637l0-1.347Z" transform="translate(-26.945 -16.291)" fill="#e4e8f4"/>
              </g>
            </g>
            <g id="Group_154" data-name="Group 154" transform="translate(12.134 68.586)">
              <g id="Group_153" data-name="Group 153">
                <g id="Group_146" data-name="Group 146" transform="translate(0.87)">
                  <path id="Path_139" data-name="Path 139" d="M34.083,31.2l-.054,23.078a2,2,0,0,1-.813,1.788l-5.092,2.962a1.964,1.964,0,0,0,.813-1.788l.054-23.078a6.112,6.112,0,0,0-2.781-4.821L6.13,17.742a2.008,2.008,0,0,0-2-.2l5.092-2.962a2.011,2.011,0,0,1,2,.2L31.3,26.374A6.14,6.14,0,0,1,34.083,31.2Z" transform="translate(-4.125 -14.397)" fill="#288ef3"/>
                </g>
                <g id="Group_147" data-name="Group 147" transform="translate(0 2.963)">
                  <path id="Path_140" data-name="Path 140" d="M26.9,26.949A6.138,6.138,0,0,1,29.7,31.773l-.065,23.079c-.005,1.775-1.266,2.48-2.811,1.588L6.748,44.85a6.138,6.138,0,0,1-2.793-4.823l.065-23.079c.005-1.775,1.266-2.48,2.811-1.588Z" transform="translate(-3.956 -14.974)" fill="#fff"/>
                </g>
                <path id="extensions" d="M20.5,11H19V7a2,2,0,0,0-2-2H13V3.5a2.5,2.5,0,1,0-5,0V5H4A2,2,0,0,0,2,7v3.8H3.5a2.7,2.7,0,0,1,0,5.4H2V20a2,2,0,0,0,2,2H7.8V20.5a2.7,2.7,0,1,1,5.4,0V22H17a2,2,0,0,0,2-2V16h1.5a2.5,2.5,0,0,0,0-5Z" transform="matrix(0.624, 0.332, -0.054, 0.921, 6.614, 9.147)" fill="#0080ff"/>
              </g>
            </g>
            <g id="Group_162" data-name="Group 162" transform="translate(27.548 1.724)">
              <g id="Group_161" data-name="Group 161">
                <g id="Group_155" data-name="Group 155" transform="translate(0.869)">
                  <path id="Path_145" data-name="Path 145" d="M37.089,18.156l-.054,23.078a2,2,0,0,1-.813,1.788L31.13,45.984a1.964,1.964,0,0,0,.813-1.788L32,21.118A6.112,6.112,0,0,0,29.216,16.3L9.135,4.7a2.008,2.008,0,0,0-2-.2l5.092-2.962a2.011,2.011,0,0,1,2,.2l20.08,11.593a6.14,6.14,0,0,1,2.781,4.821Z" transform="translate(-7.131 -1.357)" fill="#a4a4a4"/>
                </g>
                <g id="Group_156" data-name="Group 156" transform="translate(0 2.963)">
                  <path id="Path_146" data-name="Path 146" d="M29.91,13.91A6.138,6.138,0,0,1,32.7,18.734l-.065,23.079c-.005,1.775-1.266,2.48-2.811,1.588L9.754,31.811a6.138,6.138,0,0,1-2.793-4.823L7.027,3.909c.005-1.775,1.266-2.48,2.811-1.588Z" transform="translate(-6.962 -1.935)" fill="#ebebeb"/>
                  <g id="icons8-chrome-48" transform="matrix(0.777, 0, 0.12, 0.982, 0.806, 7.664)">
                    <path id="Path_202" data-name="Path 202" d="M23,13.5A9.5,9.5,0,1,1,13.5,4,9.5,9.5,0,0,1,23,13.5Z" transform="translate(0 0)" fill="#4caf50"/>
                    <path id="Path_203" data-name="Path 203" d="M23.534,4v9.5l3.575,1.9L23.157,23h.377a9.227,9.227,0,0,0,8.936-9.5A9.227,9.227,0,0,0,23.534,4Z" transform="translate(-9.47 0)" fill="#ffc107"/>
                    <path id="Path_204" data-name="Path 204" d="M23,13.5A9.5,9.5,0,1,1,13.5,4,9.5,9.5,0,0,1,23,13.5Z" transform="translate(0 0)" fill="#4caf50"/>
                    <path id="Path_205" data-name="Path 205" d="M23.534,4v9.5l3.575,1.9L23.157,23h.377a9.227,9.227,0,0,0,8.936-9.5A9.227,9.227,0,0,0,23.534,4Z" transform="translate(-9.47 0)" fill="#ffc107"/>
                    <path id="Path_206" data-name="Path 206" d="M23.772,8.915H15.221v5.809l-1.438-.447L7.15,8.138H7.14A9.739,9.739,0,0,1,15.221,4,9.667,9.667,0,0,1,23.772,8.915Z" transform="translate(-1.737)" fill="#f44336"/>
                    <path id="Path_207" data-name="Path 207" d="M7.158,13.264,11.109,19.9l2.234-.5Z" transform="translate(-1.747 -4.709)" fill="#dd2c00"/>
                    <path id="Path_208" data-name="Path 208" d="M23.157,33.49l3.992-7.175L25.321,25Z" transform="translate(-9.902 -10.49)" fill="#558b2f"/>
                    <path id="Path_209" data-name="Path 209" d="M31.109,15H23.127l-.706,2.046Z" transform="translate(-9.063 -5.735)" fill="#f9a825"/>
                    <path id="Path_210" data-name="Path 210" d="M23.043,19.021A4.021,4.021,0,1,1,19.021,15,4.022,4.022,0,0,1,23.043,19.021Z" transform="translate(-5.521 -5.521)" fill="#fff"/>
                    <path id="Path_211" data-name="Path 211" d="M23.255,20.128A3.128,3.128,0,1,1,20.128,17,3.127,3.127,0,0,1,23.255,20.128Z" transform="translate(-6.628 -6.628)" fill="#2196f3"/>
                  </g>
                </g>
              </g>
            </g>
            <g id="Group_170" data-name="Group 170" transform="translate(51.961 58.362)">
              <g id="Group_169" data-name="Group 169">
                <g id="Group_163" data-name="Group 163" transform="translate(0.869)">
                  <path id="Path_150" data-name="Path 150" d="M41.85,29.2,41.8,52.279a2,2,0,0,1-.813,1.788l-5.092,2.962a1.964,1.964,0,0,0,.813-1.788l.054-23.078a6.112,6.112,0,0,0-2.781-4.821L13.9,15.748a2.008,2.008,0,0,0-2-.2l5.092-2.962a2.011,2.011,0,0,1,2,.2L39.069,24.38A6.14,6.14,0,0,1,41.85,29.2Z" transform="translate(-11.892 -12.403)" fill="#ebc5b2"/>
                </g>
                <g id="Group_164" data-name="Group 164" transform="translate(0 2.963)">
                  <path id="Path_151" data-name="Path 151" d="M34.671,24.955a6.138,6.138,0,0,1,2.793,4.823L37.4,52.857c-.005,1.775-1.266,2.48-2.811,1.588L14.515,42.857a6.138,6.138,0,0,1-2.793-4.823l.065-23.079c.005-1.775,1.266-2.48,2.811-1.588Z" transform="translate(-11.722 -12.98)" fill="#ddaf9b"/>
                </g>
                <g id="Group_168" data-name="Group 168" transform="translate(1.447 17.004)">
                  <g id="Group_165" data-name="Group 165" transform="translate(0 0.152)">
                    <path id="Path_152" data-name="Path 152" d="M19.425,16.764l-.006,2.23-5.2-.8,5.189,5.161-.006,2.23L12,18.047l.007-2.3Z" transform="translate(-12.005 -15.748)" fill="#fff"/>
                  </g>
                  <g id="Group_166" data-name="Group 166" transform="translate(7.833)">
                    <path id="Path_153" data-name="Path 153" d="M20.865,16.96,15.682,30.84,13.532,29.6l5.183-13.881Z" transform="translate(-13.532 -15.719)" fill="#fff"/>
                  </g>
                  <g id="Group_167" data-name="Group 167" transform="translate(15.427 5.805)">
                    <path id="Path_154" data-name="Path 154" d="M15.038,16.851l7.4,7.535-.007,2.3-7.414-1.016.006-2.23,5.172.821-5.159-5.179Z" transform="translate(-15.013 -16.851)" fill="#fff"/>
                  </g>
                </g>
              </g>
            </g>
            <g id="Group_178" data-name="Group 178" transform="translate(209.266 111.969)">
              <g id="Group_177" data-name="Group 177">
                <g id="Group_171" data-name="Group 171" transform="translate(0.869)">
                  <path id="Path_155" data-name="Path 155" d="M72.527,39.656l-.054,23.078a2,2,0,0,1-.813,1.788l-5.092,2.962a1.964,1.964,0,0,0,.813-1.788l.054-23.078A6.112,6.112,0,0,0,64.654,37.8L44.573,26.2a2.008,2.008,0,0,0-2-.2l5.092-2.962a2.011,2.011,0,0,1,2,.2l20.08,11.593a6.14,6.14,0,0,1,2.781,4.821Z" transform="translate(-42.569 -22.857)" fill="#23c3ff"/>
                </g>
                <g id="Group_172" data-name="Group 172" transform="translate(0 2.963)">
                  <path id="Path_156" data-name="Path 156" d="M65.348,35.41a6.138,6.138,0,0,1,2.793,4.823l-.065,23.079c-.005,1.775-1.266,2.48-2.811,1.588L45.192,53.311A6.138,6.138,0,0,1,42.4,48.488l.065-23.079c.005-1.775,1.266-2.48,2.811-1.588Z" transform="translate(-42.4 -23.435)" fill="#f6f6f6"/>
                </g>
                <g id="vscode" transform="matrix(0.996, 0.017, -0.013, 0.999, 4.144, 17.008)">
                  <path id="Path_188" data-name="Path 188" d="M17.214,2.145,13.527.369a1.115,1.115,0,0,0-1.272.216L.183,11.592a.746.746,0,0,0,0,1.1l.986.9a.746.746,0,0,0,.952.042L16.659,2.605a.741.741,0,0,1,1.188.59V3.153A1.119,1.119,0,0,0,17.214,2.145Z" transform="translate(0 -0.001)" fill="#0065a9"/>
                  <g id="Group_192" data-name="Group 192" transform="translate(-0.061 4.536)">
                    <path id="Path_189" data-name="Path 189" d="M17.214,35.8l-3.688,1.776a1.115,1.115,0,0,1-1.272-.216L.183,26.356a.746.746,0,0,1,0-1.1l.986-.9a.746.746,0,0,1,.952-.042L16.659,35.343a.741.741,0,0,0,1.188-.59V34.8A1.119,1.119,0,0,1,17.214,35.8Z" transform="translate(0.061 -24.162)" fill="#007acc"/>
                  </g>
                  <g id="Group_193" data-name="Group 193" transform="translate(12.255 0.258)">
                    <path id="Path_190" data-name="Path 190" d="M70.022,17.953a1.115,1.115,0,0,1-1.272-.217.655.655,0,0,0,1.119-.463V1.048A.655.655,0,0,0,68.75.584,1.115,1.115,0,0,1,70.022.368l3.687,1.773a1.119,1.119,0,0,1,.634,1.008V15.172a1.119,1.119,0,0,1-.634,1.008Z" transform="translate(-68.75 -0.258)" fill="#1f9cf0"/>
                  </g>
                  <g id="Group_194" data-name="Group 194" transform="translate(-0.061 0.258)" opacity="0.25">
                    <path id="Path_191" data-name="Path 191" d="M12.631,17.987a1.114,1.114,0,0,0,.888-.034L17.2,16.18a1.119,1.119,0,0,0,.633-1.008V3.149A1.119,1.119,0,0,0,17.2,2.141L13.519.368a1.114,1.114,0,0,0-1.271.216L5.193,7.02,2.12,4.688a.745.745,0,0,0-.952.042l-.985.9a.746.746,0,0,0,0,1.1L2.847,9.16.182,11.592a.746.746,0,0,0,0,1.1l.985.9a.745.745,0,0,0,.952.042L5.193,11.3l7.054,6.436A1.113,1.113,0,0,0,12.631,17.987ZM13.365,5.1,8.013,9.16l5.352,4.063Z" transform="translate(0.061 -0.258)" fill="#fff" fill-rule="evenodd"/>
                  </g>
                </g>
              </g>
            </g>
            <g id="Group_185" data-name="Group 185" transform="translate(181.956 31.838)">
              <g id="Group_184" data-name="Group 184">
                <g id="Group_179" data-name="Group 179" transform="translate(0.869)">
                  <path id="Path_160" data-name="Path 160" d="M67.2,24.029l-.054,23.078a2,2,0,0,1-.813,1.788l-5.092,2.962a1.964,1.964,0,0,0,.813-1.788l.054-23.078a6.112,6.112,0,0,0-2.781-4.821L39.248,10.575a2.008,2.008,0,0,0-2-.2l5.092-2.962a2.011,2.011,0,0,1,2,.2L64.42,19.207A6.14,6.14,0,0,1,67.2,24.029Z" transform="translate(-37.243 -7.23)" fill="#576cfb"/>
                </g>
                <g id="Group_180" data-name="Group 180" transform="translate(0 2.963)">
                  <path id="Path_161" data-name="Path 161" d="M60.022,19.783a6.138,6.138,0,0,1,2.793,4.823L62.75,47.685c-.005,1.775-1.266,2.48-2.811,1.588L39.866,37.684a6.138,6.138,0,0,1-2.793-4.823l.065-23.079C37.144,8.007,38.4,7.3,39.95,8.194Z" transform="translate(-37.074 -7.808)" fill="#4562ef"/>
                </g>
                <g id="Group_183" data-name="Group 183" transform="translate(4.724 10.968)">
                  <g id="Group_181" data-name="Group 181">
                    <path id="Path_162" data-name="Path 162" d="M44.356,10.75,44.348,13.5l-.374-.216c-.449-.259-.824-.347-1.049-.176-.263.105-.376.472-.378.988l-.01,3.613a2.62,2.62,0,0,1-.3,1.505.993.993,0,0,1-1.013.233,4.335,4.335,0,0,1,1.008,1.4,5.349,5.349,0,0,1,.295,1.9l-.01,3.571a2.755,2.755,0,0,0,.371,1.463,2.927,2.927,0,0,0,1.047,1.035l.374.216L44.3,31.745l-1.161-.67a7.29,7.29,0,0,1-2.73-2.612,6.613,6.613,0,0,1-.928-3.509l.011-4.043-.222-.947-.636-.627-.637-.368L38,16.216l.637.368.637.111.227-.645.012-4.087c0-1.291.306-2.108.944-2.429.6-.343,1.538-.145,2.736.546Z" transform="translate(-37.995 -9.369)" fill="#fff"/>
                  </g>
                  <g id="Group_182" data-name="Group 182" transform="translate(9.933 3.478)">
                    <path id="Path_163" data-name="Path 163" d="M41.115,10.7a7.452,7.452,0,0,1,2.768,2.631,6.614,6.614,0,0,1,.928,3.509L44.8,20.923l.222.9.636.624.636.367-.008,2.754-.636-.367-.637-.108-.227.687-.011,4.043c0,1.291-.306,2.107-.944,2.429s-1.538.148-2.774-.566l-1.123-.648.008-2.712.374.216a1.171,1.171,0,0,0,1.05.176,1.194,1.194,0,0,0,.378-1.03l.01-3.571a2.545,2.545,0,0,1,.3-1.55.938.938,0,0,1,1.013-.233,3.986,3.986,0,0,1-1.009-1.4,4.333,4.333,0,0,1-.295-1.851l.01-3.613a2.91,2.91,0,0,0-.371-1.421,2.732,2.732,0,0,0-1.047-1.035l-.374-.216.008-2.754Z" transform="translate(-39.932 -10.047)" fill="#fff"/>
                  </g>
                </g>
              </g>
            </g>
          </g>
          <path id="Path_164" data-name="Path 164" d="M11.925,19.6a2.65,2.65,0,0,0,.224-1.124L12.18,7.588l-.026,10.887a2.6,2.6,0,0,1-.229,1.127Z" transform="translate(41.096 26.087)" fill="#e4e8f4"/>
        </g>
      </g>
    </g>
  </g>
</svg>
