<svg xmlns="http://www.w3.org/2000/svg" xmlns:xlink="http://www.w3.org/1999/xlink" width="350" height="350" viewBox="0 0 350 350">
  <defs>
    <clipPath id="clip-SPRK_default_preset_name_custom_1">
      <rect width="350" height="350"/>
    </clipPath>
  </defs>
  <g id="SPRK_default_preset_name_custom_1" data-name="SPRK_default_preset_name_custom – 1" clip-path="url(#clip-SPRK_default_preset_name_custom_1)">
    <rect width="350" height="350" fill="#fff"/>
    <g id="Group_1" data-name="Group 1" transform="translate(-26.83 -2.894)">
      <g id="_6502421" data-name="6502421" transform="translate(5.044 -18.865)">
        <g id="Background_Simple" data-name="Background Simple">
          <path id="Path_1" data-name="Path 1" d="M281.886,138.35c-2.962,26.879-14.848,58.077-38.934,72.293-36.375,21.479-33.11,54.891-104.28,68.961a143.52,143.52,0,0,1-31.574,2.823,119.871,119.871,0,0,1-15.519-1.386c-45.327-7.007-76.011-39.159-87.435-77.778-15.013-50.887,14.147-83.893,33.5-103.782S70.862,17.326,140.711,2.972A139.668,139.668,0,0,1,173.166.051c24.89.8,52.085,9.245,70.976,26.682q2.136,1.944,4.146,4.061C274.561,58.137,285.928,101.7,281.886,138.35Z" transform="matrix(0.819, 0.574, -0.574, 0.819, 162.013, 0)" fill="#25e88d"/>
        </g>
      </g>
    </g>
    <text id="mernfa.ir" transform="translate(59 39)" font-size="22" font-family="SegoeUI, Segoe UI" letter-spacing="0.02em"><tspan x="-44.675" y="0">mernfa</tspan><tspan y="0" font-family="FarAdell, 'Far\.Adell'">.</tspan><tspan y="0">ir</tspan></text>
    <g id="_2" data-name="2" transform="translate(56.543 70.5)">
      <path id="Path_2" data-name="Path 2" d="M134.163,205l-9.074,4.769a4.985,4.985,0,0,1-4.639,0L111.376,205c-49.824-26.188-80.505-74.513-80.505-126.8V46.255a4.958,4.958,0,0,1,4.4-4.95c17.174-1.812,30.828-14.107,33-29.656a5.014,5.014,0,0,1,4.945-4.362h99.105a5.014,5.014,0,0,1,4.945,4.362c2.176,15.549,15.83,27.844,33,29.656a4.958,4.958,0,0,1,4.4,4.95V78.195C214.669,130.484,183.988,178.808,134.163,205Z" transform="translate(-4.312 -4.312)" fill="#e1e6e9"/>
      <path id="Path_3" data-name="Path 3" d="M341.479,41.3c-17.174-1.812-30.828-14.107-33-29.656a5.014,5.014,0,0,0-4.945-4.362h-6.747c.972,21.558,16.333,36.847,32.955,38.6a4.958,4.958,0,0,1,4.4,4.95V82.777c0,52.289-30.681,100.613-80.506,126.8l-1.047.551a4.978,4.978,0,0,0,3.716-.364L265.371,205c49.824-26.188,80.506-74.513,80.506-126.8V46.255A4.959,4.959,0,0,0,341.479,41.3Z" transform="translate(-135.52 -4.312)" fill="#cbcbcb"/>
      <path id="Path_4" data-name="Path 4" d="M140.589,212.162C118,200.287,99.2,183.219,86.242,162.805a123.677,123.677,0,0,1-19.578-66.3V78.378A6.4,6.4,0,0,1,70.7,72.422a56.179,56.179,0,0,0,30.21-27.766,6.386,6.386,0,0,1,5.775-3.62h74.54A6.387,6.387,0,0,1,187,44.656a56.179,56.179,0,0,0,30.21,27.766,6.4,6.4,0,0,1,4.033,5.956V96.508a123.677,123.677,0,0,1-19.577,66.3c-12.961,20.414-31.754,37.482-54.347,49.357l-.376.2a6.42,6.42,0,0,1-5.974,0Z" transform="translate(-25.495 -24.285)" fill="#4ad194"/>
      <path id="Path_5" data-name="Path 5" d="M329.256,72.422c-.105-.042-.209-.086-.314-.128-.175-.07-.348-.142-.522-.213q-.445-.184-.886-.375c-.17-.073-.34-.147-.509-.222q-.471-.209-.937-.427c-.141-.066-.282-.129-.423-.2q-.671-.318-1.333-.652l-.1-.051q-.612-.311-1.214-.636c-.142-.077-.283-.156-.425-.233-.292-.16-.583-.322-.872-.487-.16-.091-.319-.185-.478-.277q-.409-.239-.813-.484c-.157-.1-.313-.19-.469-.286-.282-.174-.561-.352-.84-.531-.136-.087-.272-.173-.407-.261q-.571-.374-1.131-.759l-.084-.057q-.6-.416-1.191-.847c-.123-.089-.243-.181-.365-.272q-.4-.3-.8-.607c-.143-.11-.284-.221-.426-.332q-.369-.29-.733-.585-.212-.172-.422-.345-.372-.309-.738-.623c-.125-.107-.252-.214-.376-.323q-.453-.395-.9-.8c-.061-.056-.124-.11-.185-.166q-.533-.489-1.051-.991c-.1-.1-.2-.195-.3-.292q-.369-.362-.731-.729-.184-.188-.366-.378-.324-.336-.642-.676-.186-.2-.369-.4-.318-.348-.629-.7c-.113-.127-.226-.254-.337-.382-.244-.281-.483-.565-.72-.85-.069-.083-.14-.165-.208-.248q-.456-.555-.9-1.121c-.075-.1-.148-.195-.223-.292q-.326-.425-.645-.855c-.1-.138-.2-.277-.3-.416q-.273-.378-.54-.761-.156-.223-.308-.447-.262-.385-.516-.774c-.095-.144-.19-.288-.283-.432-.189-.295-.374-.591-.558-.89-.067-.109-.137-.218-.2-.328q-.37-.612-.724-1.233c-.05-.087-.1-.176-.146-.264q-.277-.494-.544-.992c-.078-.147-.154-.3-.231-.443q-.218-.418-.429-.84-.121-.242-.238-.485c-.06-.123-.122-.245-.181-.368a6.387,6.387,0,0,0-5.775-3.62H256V213.1a6.416,6.416,0,0,0,2.987-.737l.376-.2c22.593-11.875,41.387-28.942,54.347-49.357a123.676,123.676,0,0,0,19.577-66.3V78.377A6.4,6.4,0,0,0,329.256,72.422Z" transform="translate(-137.544 -24.284)" fill="#35b79e"/>
      <path id="Path_6" data-name="Path 6" d="M329.256,72.422c-.105-.042-.209-.086-.314-.128-.175-.07-.348-.142-.522-.213q-.445-.184-.886-.375c-.17-.073-.34-.147-.509-.222q-.471-.209-.937-.427c-.141-.066-.282-.129-.423-.2q-.671-.318-1.333-.652l-.1-.051q-.612-.311-1.214-.636c-.142-.077-.283-.156-.425-.233-.292-.16-.583-.322-.872-.487-.16-.091-.319-.185-.478-.277q-.409-.239-.813-.484c-.157-.1-.313-.19-.469-.286-.282-.174-.561-.352-.84-.531-.135-.087-.272-.173-.407-.261q-.571-.374-1.131-.759l-.084-.057q-.6-.416-1.191-.847c-.123-.089-.243-.181-.365-.272q-.4-.3-.8-.607c-.143-.11-.284-.221-.426-.332q-.369-.29-.733-.585-.212-.172-.422-.345-.372-.309-.738-.623c-.125-.107-.252-.214-.376-.323q-.453-.395-.9-.8c-.061-.056-.124-.11-.185-.166q-.533-.489-1.051-.991c-.1-.1-.2-.195-.3-.292-.246-.241-.49-.484-.731-.729-.123-.125-.245-.252-.366-.378q-.324-.336-.642-.676-.186-.2-.369-.4-.318-.348-.629-.7c-.113-.127-.226-.254-.337-.382-.244-.281-.483-.565-.72-.85-.069-.083-.14-.165-.208-.248q-.456-.555-.9-1.121c-.075-.1-.148-.195-.223-.292q-.326-.425-.645-.855c-.1-.138-.2-.277-.3-.416q-.273-.378-.54-.761-.156-.223-.308-.447-.262-.385-.516-.774c-.095-.144-.19-.288-.283-.432-.189-.295-.374-.592-.558-.89-.067-.109-.137-.218-.2-.328q-.37-.612-.724-1.233c-.05-.087-.1-.176-.146-.264q-.277-.494-.544-.992c-.078-.147-.154-.3-.231-.443q-.218-.419-.429-.84-.121-.242-.238-.485c-.06-.123-.122-.245-.181-.368a6.387,6.387,0,0,0-5.775-3.62H282.954a57.238,57.238,0,0,1,4.534,6.84c.069.118.121.245.181.368q.118.243.238.485.211.422.429.84c.077.148.153.3.231.443q.266.5.544.992c.049.088.1.177.146.264q.353.621.724,1.233c.067.11.136.219.2.328q.275.447.558.89c.093.145.188.288.283.432q.255.389.516.774.153.225.308.447.266.383.54.761c.1.139.2.278.3.416.211.287.427.571.645.855.075.1.147.2.222.292q.441.566.9,1.121c.069.083.139.165.208.248.238.286.477.569.72.85.111.128.224.255.337.382q.312.353.629.7.184.2.369.4.318.341.642.676c.122.127.243.253.366.378.241.245.485.488.731.729.1.1.2.2.3.292q.519.5,1.051.991c.061.056.124.111.185.166q.444.4.9.8c.125.109.251.215.376.323q.367.314.738.623.21.174.422.345.364.3.733.585c.142.111.283.222.426.332q.4.307.8.607c.122.091.242.182.365.272q.59.43,1.191.847l.084.057q.56.386,1.131.759c.135.088.271.174.407.261q.418.268.84.531c.155.1.312.191.469.286q.4.245.813.484c.159.093.318.186.478.277q.434.247.872.487c.142.078.282.157.425.233q.6.325,1.214.636l.1.051q.661.334,1.333.652c.14.067.282.131.423.2.311.145.623.288.937.427.169.075.339.148.509.222q.441.191.886.375.26.108.522.213c.1.042.209.087.314.128a6.4,6.4,0,0,1,4.033,5.957V99.727a123.676,123.676,0,0,1-19.577,66.3c-11.36,17.893-27.2,34.963-46.154,46.9v.169a6.416,6.416,0,0,0,2.987-.737l.376-.2c22.593-11.875,41.386-28.942,54.347-49.357a123.676,123.676,0,0,0,19.577-66.3V78.378A6.4,6.4,0,0,0,329.256,72.422Z" transform="translate(-137.544 -24.284)" fill="#1e9690"/>
      <path id="Path_7" data-name="Path 7" d="M231.607,244.71H163.7a6.485,6.485,0,0,1-6.485-6.485V195.637a6.485,6.485,0,0,1,6.485-6.485h67.908a6.485,6.485,0,0,1,6.485,6.485v42.587A6.485,6.485,0,0,1,231.607,244.71Z" transform="translate(-79.082 -111.94)" fill="#636a75"/>
      <path id="Path_8" data-name="Path 8" d="M322.437,189.152H310.7a6.485,6.485,0,0,1,6.485,6.485v42.587a6.485,6.485,0,0,1-6.485,6.485h11.742a6.485,6.485,0,0,0,6.485-6.485V195.637A6.485,6.485,0,0,0,322.437,189.152Z" transform="translate(-169.911 -111.94)" fill="#515a66"/>
      <path id="Path_9" data-name="Path 9" d="M243.206,245.515v8.469a2.975,2.975,0,0,0,5.949,0v-8.469a6.966,6.966,0,1,0-5.949,0Z" transform="translate(-127.609 -137.448)"/>
      <path id="Path_10" data-name="Path 10" d="M134.894,210.482h0l.376.2a9.393,9.393,0,0,0,8.741,0l.377-.2c23.053-12.117,42.236-29.543,55.474-50.4A126.647,126.647,0,0,0,219.9,92.2V74.066a9.322,9.322,0,0,0-5.913-8.722,52.892,52.892,0,0,1-28.618-26.277,9.4,9.4,0,0,0-8.462-5.318H102.371a9.4,9.4,0,0,0-8.461,5.318A52.891,52.891,0,0,1,65.291,65.344a9.322,9.322,0,0,0-5.912,8.722V92.2A126.642,126.642,0,0,0,79.42,160.087C92.659,180.939,111.842,198.366,134.894,210.482ZM65.327,92.2V74.066a3.405,3.405,0,0,1,2.152-3.191,58.816,58.816,0,0,0,31.8-29.253,3.423,3.423,0,0,1,3.089-1.924h74.54A3.423,3.423,0,0,1,180,41.622a58.821,58.821,0,0,0,31.8,29.254,3.405,3.405,0,0,1,2.152,3.191V92.2a120.708,120.708,0,0,1-19.114,64.7c-12.682,19.976-31.086,36.684-53.219,48.318l-.377.2a3.443,3.443,0,0,1-3.206,0l-.376-.2c-22.134-11.634-40.537-28.342-53.22-48.318A120.708,120.708,0,0,1,65.327,92.2Z" transform="translate(-21.183 -19.973)"/>
      <path id="Path_11" data-name="Path 11" d="M212.438,245.729a2.973,2.973,0,0,0-3.557,2.246c-9.059,40.076-36.648,74.832-75.7,95.355l-9.074,4.769a2.012,2.012,0,0,1-1.871,0l-9.074-4.769c-39.108-20.555-66.712-55.371-75.733-95.52a2.974,2.974,0,0,0-5.8,1.3c9.4,41.854,38.114,78.113,78.769,99.481l9.074,4.769a7.958,7.958,0,0,0,7.406,0l9.074-4.769c40.591-21.335,69.287-57.531,78.731-99.309A2.975,2.975,0,0,0,212.438,245.729Z" transform="translate(-4.719 -145.278)"/>
      <path id="Path_12" data-name="Path 12" d="M206.272,34.035C190.389,32.359,177.9,21.211,175.9,6.924A8.033,8.033,0,0,0,168.01,0H68.9a8.033,8.033,0,0,0-7.891,6.924c-2,14.287-14.488,25.435-30.37,27.11a7.907,7.907,0,0,0-7.059,7.908V73.882A136.916,136.916,0,0,0,24.3,87.829a2.975,2.975,0,0,0,2.955,2.67,3.013,3.013,0,0,0,.308-.016,2.974,2.974,0,0,0,2.655-3.263,130.984,130.984,0,0,1-.684-13.339V41.943a2,2,0,0,1,1.735-1.992c18.6-1.963,33.259-15.2,35.638-32.2a2.034,2.034,0,0,1,2-1.8h99.1a2.034,2.034,0,0,1,2,1.8c2.378,17,17.033,30.239,35.637,32.2a2,2,0,0,1,1.735,1.992V73.882a131.03,131.03,0,0,1-.669,13.2,2.975,2.975,0,0,0,5.919.6,136.947,136.947,0,0,0,.7-13.8V41.943A7.906,7.906,0,0,0,206.272,34.035Z" transform="translate(0 0)"/>
      <path id="Path_13" data-name="Path 13" d="M227.295,180.653a9.471,9.471,0,0,0,9.46-9.46V128.606a9.471,9.471,0,0,0-9.46-9.46H222.4v-14.2a29.064,29.064,0,0,0-58.127,0v14.2h-4.89a9.471,9.471,0,0,0-9.46,9.46v42.587a9.471,9.471,0,0,0,9.46,9.46Zm-57.069-75.7a23.115,23.115,0,0,1,46.23,0v14.2h-46.23Zm-14.35,66.245V128.606a3.515,3.515,0,0,1,3.511-3.511h67.908a3.515,3.515,0,0,1,3.511,3.511v42.587a3.515,3.515,0,0,1-3.511,3.511H159.387A3.515,3.515,0,0,1,155.876,171.193Z" transform="translate(-74.769 -44.909)"/>
    </g>
  </g>
</svg>
