<svg xmlns="http://www.w3.org/2000/svg" xmlns:xlink="http://www.w3.org/1999/xlink" width="350" height="350" viewBox="0 0 350 350">
  <defs>
    <clipPath id="clip-SPRK_default_preset_name_custom_1">
      <rect width="350" height="350"/>
    </clipPath>
  </defs>
  <g id="SPRK_default_preset_name_custom_1" data-name="SPRK_default_preset_name_custom – 1" clip-path="url(#clip-SPRK_default_preset_name_custom_1)">
    <rect width="350" height="350" fill="#fff"/>
    <g id="Group_1" data-name="Group 1" transform="translate(-26.83 -2.894)">
      <g id="_6502421" data-name="6502421" transform="translate(5.044 -18.865)">
        <g id="Background_Simple" data-name="Background Simple">
          <path id="Path_1" data-name="Path 1" d="M281.886,138.35c-2.962,26.879-14.848,58.077-38.934,72.293-36.375,21.479-33.11,54.891-104.28,68.961a143.52,143.52,0,0,1-31.574,2.823,119.871,119.871,0,0,1-15.519-1.386c-45.327-7.007-76.011-39.159-87.435-77.778-15.013-50.887,14.147-83.893,33.5-103.782S70.862,17.326,140.711,2.972A139.668,139.668,0,0,1,173.166.051c24.89.8,52.085,9.245,70.976,26.682q2.136,1.944,4.146,4.061C274.561,58.137,285.928,101.7,281.886,138.35Z" transform="matrix(0.819, 0.574, -0.574, 0.819, 162.013, 0)" fill="#958ccf"/>
        </g>
      </g>
    </g>
    <text id="mernfa.ir" transform="translate(59 39)" font-size="22" font-family="SegoeUI, Segoe UI" letter-spacing="0.02em"><tspan x="-44.675" y="0">mernfa</tspan><tspan y="0" font-family="FarAdell, 'Far\.Adell'">.</tspan><tspan y="0">ir</tspan></text>
    <g id="Group_11" data-name="Group 11" transform="translate(0 -20.699)">
      <rect id="Rectangle_2" data-name="Rectangle 2" width="228" height="44" rx="5" transform="translate(59 290.699)" fill="#00df07"/>
      <text id="دوره_به_سبد_خرید_افزوده_شد" data-name="دوره به سبد خرید افزوده شد" transform="translate(182 314.699)" fill="#fff" font-size="14" font-family="Shabnam-FD, Shabnam FD"><tspan x="-80.705" y="0">دوره به سبد خرید افزوده شد</tspan></text>
      <g id="Group_12" data-name="Group 12" transform="translate(68.016 293.063) rotate(45)">
        <line id="Line_1" data-name="Line 1" x2="7.92" transform="translate(0 4.193)" fill="none" stroke="#fff" stroke-width="2"/>
        <line id="Line_2" data-name="Line 2" y2="8.385" transform="translate(3.96 0)" fill="none" stroke="#fff" stroke-width="2"/>
      </g>
    </g>
    <g id="_1" data-name="1" transform="translate(77.171 64.175)">
      <g id="Page-1">
        <g id="_033---Website-Notification" data-name="033---Website-Notification">
          <g id="Icons" transform="translate(3.261 3.261)">
            <path id="Path" d="M189.137,13.044V32.61H94.568a6.542,6.542,0,0,1-6.522-6.522V19.566a6.542,6.542,0,0,0-6.522-6.522H0A13.044,13.044,0,0,1,13.044,0H176.093A13.044,13.044,0,0,1,189.137,13.044Z" transform="translate(0 0)" fill="#6d80e8" fill-rule="evenodd"/>
            <path id="Path-2" data-name="Path" d="M60.783,0H51A13.044,13.044,0,0,1,64.044,13.044V32.61h9.783V13.044A13.044,13.044,0,0,0,60.783,0Z" transform="translate(115.31 0)" fill="#283593" fill-rule="evenodd"/>
            <path id="Path-3" data-name="Path" d="M189.137,23.566V36.61H0V4H81.524a6.542,6.542,0,0,1,6.522,6.522v6.522a6.542,6.542,0,0,0,6.522,6.522Z" transform="translate(0 9.044)" fill="#02a9f4" fill-rule="evenodd"/>
            <path id="Rectangle" d="M55,10h9.783V23.044H55Z" transform="translate(124.354 22.61)" fill="#0377bc" fill-rule="evenodd"/>
            <path id="Path-4" data-name="Path" d="M189.137,14V118.351A13.044,13.044,0,0,1,176.093,131.4H13.044A13.044,13.044,0,0,1,0,118.351V14Z" transform="translate(0 31.654)" fill="#f5f5f5" fill-rule="evenodd"/>
            <path id="Path-5" data-name="Path" d="M64.044,14V118.351A13.044,13.044,0,0,1,51,131.4h9.783a13.044,13.044,0,0,0,13.044-13.044V14Z" transform="translate(115.31 31.654)" fill="#cfd8dc" fill-rule="evenodd"/>
            <path id="Path-6" data-name="Path" d="M122.873,111.09v2.217a6.542,6.542,0,0,1-6.522,6.522H18.522A6.542,6.542,0,0,1,12,113.307V111.09a6.665,6.665,0,0,1,3.391-5.739C20.185,102.611,28.3,94.883,28.3,74.176V61.132A39.177,39.177,0,0,1,67.437,22a35.938,35.938,0,0,1,6.522.587,39.7,39.7,0,0,1,32.61,38.545V74.176c0,20.707,8.12,28.436,12.913,31.175A6.666,6.666,0,0,1,122.873,111.09Z" transform="translate(27.132 49.742)" fill="#ffdc00" fill-rule="evenodd"/>
            <path id="Path-7" data-name="Path" d="M84.484,105.351c-4.794-2.739-12.913-10.468-12.913-31.175V61.132a39.7,39.7,0,0,0-32.61-38.545A35.938,35.938,0,0,0,32.439,22a38.35,38.35,0,0,0-4.96.355c.567.075,1.141.127,1.7.232a39.7,39.7,0,0,1,32.61,38.545V74.176c0,20.707,8.12,28.436,12.913,31.175a6.665,6.665,0,0,1,3.391,5.739v2.217a6.542,6.542,0,0,1-6.522,6.522h9.783a6.542,6.542,0,0,0,6.522-6.522V111.09A6.665,6.665,0,0,0,84.484,105.351Z" transform="translate(62.129 49.742)" fill="#fec108" fill-rule="evenodd"/>
            <path id="Path-8" data-name="Path" d="M40.044,24.522v7.109a35.939,35.939,0,0,0-6.522-.587A39.132,39.132,0,0,0,27,31.6V24.522A6.542,6.542,0,0,1,33.522,18,6.649,6.649,0,0,1,40.044,24.522Z" transform="translate(61.046 40.698)" fill="#ff9801" fill-rule="evenodd"/>
            <path id="Path-9" data-name="Path" d="M62.132,52A19.566,19.566,0,0,1,23,52Z" transform="translate(52.003 117.571)" fill="#ff9801" fill-rule="evenodd"/>
            <path id="Path-10" data-name="Path" d="M42.174,52A19.566,19.566,0,0,1,27.5,70.914,19.494,19.494,0,0,0,51.957,52Z" transform="translate(62.177 117.571)" fill="#f57c00" fill-rule="evenodd"/>
          </g>
          <g id="Icons_copy">
            <path id="Path-11" data-name="Path" d="M24.261,58.61A3.261,3.261,0,0,1,21,55.349,29.385,29.385,0,0,1,50.349,26a3.261,3.261,0,0,1,0,6.522A22.853,22.853,0,0,0,27.522,55.349,3.261,3.261,0,0,1,24.261,58.61Z" transform="translate(47.481 58.785)" fill="#f5f5f5" fill-rule="evenodd"/>
            <g id="Group_2" data-name="Group 2">
              <path id="Path-12" data-name="Path" d="M44.132,9H8.261a3.261,3.261,0,1,0,0,6.522H44.132a3.261,3.261,0,1,0,0-6.522Z" transform="translate(11.305 20.349)" fill-rule="evenodd"/>
              <path id="Path-13" data-name="Path" d="M33.116,8.955a3.261,3.261,0,0,0-4.611,0l-.955.955-.955-.955a3.261,3.261,0,0,0-4.611,4.611l.955.955-.955.955a3.261,3.261,0,1,0,4.611,4.611l.955-.955.955.955a3.261,3.261,0,0,0,4.611-4.611l-.955-.955.955-.955a3.261,3.261,0,0,0,0-4.611Z" transform="translate(47.453 18.088)" fill-rule="evenodd"/>
              <ellipse id="Oval" cx="2.996" cy="3.495" rx="2.996" ry="3.495" transform="translate(169.774 15.979)" fill="#fff"/>
              <ellipse id="Oval-2" data-name="Oval" cx="2.996" cy="3.495" rx="2.996" ry="3.495" transform="translate(156.791 15.979)" fill="#fff"/>
              <ellipse id="Oval-3" data-name="Oval" cx="2.996" cy="3.495" rx="2.996" ry="3.495" transform="translate(143.809 15.979)" fill="#fff"/>
              <path id="Shape" d="M179.354,0H16.3A16.324,16.324,0,0,0,0,16.3V153.266a16.324,16.324,0,0,0,16.3,16.3H39.732a9.783,9.783,0,0,0,9.183,6.522H75.263a22.8,22.8,0,0,0,45.132,0h26.349a9.783,9.783,0,0,0,9.183-6.522h23.427a16.325,16.325,0,0,0,16.3-16.3V16.3A16.324,16.324,0,0,0,179.354,0ZM6.522,19.566H84.785a3.261,3.261,0,0,1,3.261,3.261v6.522a9.783,9.783,0,0,0,9.783,9.783h91.307v6.522H6.522ZM16.3,6.522H179.354a9.783,9.783,0,0,1,9.783,9.783v16.3H97.829a3.261,3.261,0,0,1-3.261-3.261V22.827a9.783,9.783,0,0,0-9.783-9.783H7.122A9.783,9.783,0,0,1,16.3,6.522ZM97.829,189.137a16.334,16.334,0,0,1-15.979-13.044h31.958a16.334,16.334,0,0,1-15.979,13.044Zm52.176-22.827a3.261,3.261,0,0,1-3.261,3.261H48.915a3.261,3.261,0,0,1-3.261-3.261v-2.227a3.369,3.369,0,0,1,1.771-2.9c5.43-3.121,14.534-11.691,14.534-34.006V114.134A35.913,35.913,0,0,1,97.829,78.263,36.353,36.353,0,0,1,133.7,114.134v13.044c0,22.315,9.1,30.885,14.534,34.006a3.369,3.369,0,0,1,1.771,2.9Zm-48.915-94.4c-1.079-.085-2.162-.17-3.261-.17s-2.182.082-3.261.166V68.481a3.261,3.261,0,0,1,3.261-3.261,3.391,3.391,0,0,1,3.261,3.261Zm78.264,91.138h-22.97a9.913,9.913,0,0,0-4.891-7.5c-4.213-2.436-11.27-9.339-11.27-28.371V114.134a43.045,43.045,0,0,0-32.61-41.154v-4.5A9.913,9.913,0,0,0,97.829,58.7a9.783,9.783,0,0,0-9.783,9.783v4.445a42.438,42.438,0,0,0-32.61,41.209v13.044c0,19.031-7.057,25.935-11.263,28.371a9.913,9.913,0,0,0-4.891,7.5H16.3a9.783,9.783,0,0,1-9.783-9.783V52.176H189.137v101.09a9.783,9.783,0,0,1-9.783,9.783Z"/>
              <path id="Path-14" data-name="Path" d="M20.838,31.955a3.261,3.261,0,0,0-4.614,0,17.348,17.348,0,0,0-4.213,12.092,17.348,17.348,0,0,0,4.213,12.088,3.222,3.222,0,0,0,2.283.946,3.261,3.261,0,0,0,2.371-5.518,11.312,11.312,0,0,1-2.345-7.517,11.312,11.312,0,0,1,2.309-7.477,3.261,3.261,0,0,0,0-4.614Z" transform="translate(27.121 70.087)" fill-rule="evenodd"/>
              <path id="Path-15" data-name="Path" d="M22.053,32.8a3.261,3.261,0,0,0-4-5.146,32.91,32.91,0,0,0-11.042,25.4,32.91,32.91,0,0,0,11.042,25.4,3.228,3.228,0,0,0,2,.688,3.261,3.261,0,0,0,2.025-5.824,26.414,26.414,0,0,1-8.547-20.264A26.414,26.414,0,0,1,22.053,32.8Z" transform="translate(15.82 61.077)" fill-rule="evenodd"/>
              <path id="Path-16" data-name="Path" d="M46,31.928a3.284,3.284,0,0,0-.1,4.591,11.289,11.289,0,0,1,2.341,7.517,11.322,11.322,0,0,1-2.338,7.5A3.261,3.261,0,0,0,50.548,56.1a17.332,17.332,0,0,0,4.213-12.066,17.332,17.332,0,0,0-4.213-12.088A3.241,3.241,0,0,0,46,31.928Z" transform="translate(101.766 70.099)" fill-rule="evenodd"/>
              <path id="Path-17" data-name="Path" d="M53.27,27.692a3.261,3.261,0,1,0-4.021,5.136,26.414,26.414,0,0,1,8.537,20.264,26.414,26.414,0,0,1-8.537,20.264,3.261,3.261,0,1,0,4.021,5.136,32.913,32.913,0,0,0,11.038-25.4A32.913,32.913,0,0,0,53.27,27.692Z" transform="translate(108.523 61.043)" fill-rule="evenodd"/>
            </g>
          </g>
        </g>
      </g>
    </g>
  </g>
</svg>
