<svg xmlns="http://www.w3.org/2000/svg" xmlns:xlink="http://www.w3.org/1999/xlink" width="350" height="350" viewBox="0 0 350 350">
  <defs>
    <clipPath id="clip-path">
      <rect id="Rectangle_2" data-name="Rectangle 2" width="350" height="350"/>
    </clipPath>
    <linearGradient id="linear-gradient" x1="-0.001" y1="0.5" x2="1" y2="0.5" gradientUnits="objectBoundingBox">
      <stop offset="0" stop-color="#42ffff"/>
      <stop offset="0.15" stop-color="#43faff"/>
      <stop offset="0.33" stop-color="#45ecff"/>
      <stop offset="0.52" stop-color="#49d4ff"/>
      <stop offset="0.72" stop-color="#4eb3ff"/>
      <stop offset="0.93" stop-color="#5489ff"/>
      <stop offset="1" stop-color="#5778ff"/>
    </linearGradient>
    <linearGradient id="linear-gradient-2" y1="0.5" x2="1" y2="0.5" gradientUnits="objectBoundingBox">
      <stop offset="0" stop-color="#5778ff"/>
      <stop offset="0.18" stop-color="#5c7dff"/>
      <stop offset="0.39" stop-color="#6a8aff"/>
      <stop offset="0.61" stop-color="#82a0ff"/>
      <stop offset="0.85" stop-color="#a3beff"/>
      <stop offset="1" stop-color="#bcd5ff"/>
    </linearGradient>
    <linearGradient id="linear-gradient-3" x1="0" y1="0.5" y2="0.5" xlink:href="#linear-gradient-2"/>
    <linearGradient id="linear-gradient-4" x1="0" y1="0.5" y2="0.5" xlink:href="#linear-gradient-2"/>
    <linearGradient id="linear-gradient-5" x1="0" y1="0.5" y2="0.5" xlink:href="#linear-gradient-2"/>
    <linearGradient id="linear-gradient-7" y1="0.5" x2="1" y2="0.5" gradientUnits="objectBoundingBox">
      <stop offset="0" stop-color="#e9ffff"/>
      <stop offset="0.04" stop-color="#d3ebff"/>
      <stop offset="0.11" stop-color="#b2ccff"/>
      <stop offset="0.18" stop-color="#96b2ff"/>
      <stop offset="0.27" stop-color="#7f9dff"/>
      <stop offset="0.36" stop-color="#6d8cff"/>
      <stop offset="0.48" stop-color="#6081ff"/>
      <stop offset="0.64" stop-color="#597aff"/>
      <stop offset="1" stop-color="#5778ff"/>
    </linearGradient>
    <linearGradient id="linear-gradient-9" y1="0.5" x2="1" y2="0.5" gradientUnits="objectBoundingBox">
      <stop offset="0" stop-color="#c0d6ff"/>
      <stop offset="0.3" stop-color="#c5dbff"/>
      <stop offset="0.65" stop-color="#d3e9ff"/>
      <stop offset="1" stop-color="#e9ffff"/>
    </linearGradient>
    <linearGradient id="linear-gradient-10" y1="0.502" x2="1" y2="0.502" gradientUnits="objectBoundingBox">
      <stop offset="0" stop-color="#bcd5ff"/>
      <stop offset="0.15" stop-color="#a3beff"/>
      <stop offset="0.39" stop-color="#82a0ff"/>
      <stop offset="0.61" stop-color="#6a8aff"/>
      <stop offset="0.82" stop-color="#5c7dff"/>
      <stop offset="1" stop-color="#5778ff"/>
    </linearGradient>
    <linearGradient id="linear-gradient-11" x1="0" y1="0.5" x2="1" y2="0.5" xlink:href="#linear-gradient"/>
    <linearGradient id="linear-gradient-12" x1="-0.907" y1="-2.229" x2="0.247" y2="-2.229" xlink:href="#linear-gradient-2"/>
    <radialGradient id="radial-gradient" cx="0.235" cy="0.34" fx="-0.21456918120384216" fy="0.17034971714019775" r="0.509" gradientTransform="translate(0.032) scale(0.937 1)" gradientUnits="objectBoundingBox">
      <stop offset="0" stop-color="#2b3aa5"/>
      <stop offset="1" stop-color="#182484"/>
    </radialGradient>
    <linearGradient id="linear-gradient-13" x1="0" y1="0.5" y2="0.5" xlink:href="#linear-gradient-2"/>
    <linearGradient id="linear-gradient-14" x1="-0.878" y1="-2.131" x2="0.277" y2="-2.131" xlink:href="#linear-gradient-9"/>
  </defs>
  <g id="SPRK_default_preset_name_custom_1" data-name="SPRK_default_preset_name_custom – 1" clip-path="url(#clip-path)">
    <rect width="350" height="350" fill="#fff"/>
    <g id="SPRK_default_preset_name_custom_1-2" data-name="SPRK_default_preset_name_custom – 1" clip-path="url(#clip-path)">
      <rect id="Rectangle_1" data-name="Rectangle 1" width="350" height="350" fill="#fff"/>
      <g id="Group_1" data-name="Group 1" transform="translate(-26.83 -2.894)">
        <g id="_6502421" data-name="6502421" transform="translate(5.044 -18.865)">
          <g id="Background_Simple" data-name="Background Simple">
            <path id="Path_1" data-name="Path 1" d="M281.886,138.35c-2.962,26.879-14.848,58.077-38.934,72.293-36.375,21.479-33.11,54.891-104.28,68.961a143.519,143.519,0,0,1-31.574,2.823,119.865,119.865,0,0,1-15.519-1.386c-45.327-7.007-76.011-39.159-87.435-77.778-15.013-50.887,14.147-83.893,33.5-103.782S70.862,17.326,140.711,2.972A139.667,139.667,0,0,1,173.166.051c24.89.8,52.085,9.245,70.976,26.682q2.136,1.944,4.146,4.061C274.561,58.137,285.928,101.7,281.886,138.35Z" transform="translate(162.013) rotate(35.025)" fill="#268254"/>
          </g>
        </g>
      </g>
      <text id="mernfa.ir" transform="translate(14.325 39)" font-size="22" font-family="SegoeUI, Segoe UI" letter-spacing="0.02em"><tspan x="0" y="0">mernfa</tspan><tspan y="0" font-family="FarAdell, 'Far\.Adell'">.</tspan><tspan y="0">ir</tspan></text>
    </g>
    <g id="gg" transform="translate(17.657 56.228)">
      <g id="Ñëîé_1" data-name="Ñëîé 1" transform="translate(40.03)">
        <path id="Path_7" data-name="Path 7" d="M170.358,9.276,158.72,2.554V0l11.638,6.722Z" transform="translate(-50.469)" fill="#42ffff" opacity="0.5"/>
        <path id="Path_8" data-name="Path 8" d="M177.616,13.47l-4.186-2.426V8.49l4.186,2.417Z" transform="translate(-51.762 -0.747)" fill="#42ffff" opacity="0.5"/>
        <path id="Path_9" data-name="Path 9" d="M182.816,16.465l-2.846-1.642V12.27l2.846,1.642Z" transform="translate(-52.338 -1.079)" fill="#42ffff" opacity="0.5"/>
        <path id="Path_10" data-name="Path 10" d="M165.059,12.62,158.72,8.954V6.4l6.339,3.657Z" transform="translate(-50.469 -0.563)" fill="#42ffff" opacity="0.5"/>
        <path id="Path_11" data-name="Path 11" d="M175.391,18.581l-7.771-4.487V11.54l7.771,4.487Z" transform="translate(-51.251 -1.015)" fill="#42ffff" opacity="0.5"/>
        <path id="Path_12" data-name="Path 12" d="M180.936,21.785l-2.846-1.642V17.58l2.846,1.651Z" transform="translate(-52.172 -1.546)" fill="#42ffff" opacity="0.5"/>
        <path id="Path_13" data-name="Path 13" d="M185.766,24.575l-2.846-1.651V20.37l2.846,1.642Z" transform="translate(-52.597 -1.792)" fill="#42ffff" opacity="0.5"/>
        <path id="Path_14" data-name="Path 14" d="M163.308,18.008l-4.588-2.654V12.8l4.588,2.654Z" transform="translate(-50.469 -1.126)" fill="#42ffff"/>
        <path id="Path_15" data-name="Path 15" d="M167.269,20.3l-1.569-.912V16.83l1.569.9Z" transform="translate(-51.083 -1.48)" fill="#42ffff"/>
        <path id="Path_16" data-name="Path 16" d="M172.216,23.145,169.37,21.5V18.95l2.846,1.642Z" transform="translate(-51.405 -1.667)" fill="#42ffff" opacity="0.5"/>
        <path id="Path_17" data-name="Path 17" d="M175.657,31.531,158.72,21.754V19.2l16.937,9.777Z" transform="translate(-50.469 -1.689)" fill="#42ffff" opacity="0.5"/>
        <path id="Path_18" data-name="Path 18" d="M183.426,36.021,179.24,33.6V31.05l4.186,2.417Z" transform="translate(-52.273 -2.731)" fill="#42ffff" opacity="0.5"/>
        <path id="Path_19" data-name="Path 19" d="M163.308,30.808l-4.588-2.645V25.6l4.588,2.654Z" transform="translate(-50.469 -2.252)" fill="#42ffff" opacity="0.5"/>
        <path id="Path_20" data-name="Path 20" d="M174.693,37.382l-8.993-5.19V29.63l8.993,5.19Z" transform="translate(-51.083 -2.606)" fill="#42ffff" opacity="0.5"/>
        <path id="Path_21" data-name="Path 21" d="M180.356,40.645,177.51,39V36.45l2.846,1.642Z" transform="translate(-52.121 -3.206)" fill="#42ffff" opacity="0.5"/>
        <path id="Path_22" data-name="Path 22" d="M168.1,39.98l-9.385-5.418V32l9.385,5.427Z" transform="translate(-50.469 -2.814)" fill="#42ffff" opacity="0.5"/>
        <path id="Path_23" data-name="Path 23" d="M177.755,45.546l-6.795-3.922V39.07l6.795,3.922Z" transform="translate(-51.545 -3.436)" fill="#42ffff"/>
        <path id="Path_24" data-name="Path 24" d="M184.938,49.7l-4.588-2.645V44.49l4.588,2.654Z" transform="translate(-52.371 -3.913)" fill="#42ffff" opacity="0.5"/>
        <path id="Path_25" data-name="Path 25" d="M161.894,42.788l-3.174-1.824V38.41l3.174,1.824Z" transform="translate(-50.469 -3.378)" fill="#42ffff" opacity="0.5"/>
        <path id="Path_26" data-name="Path 26" d="M168.336,46.511l-4.186-2.417V41.54l4.186,2.417Z" transform="translate(-50.946 -3.653)" fill="#42ffff" opacity="0.5"/>
        <path id="Path_27" data-name="Path 27" d="M177.439,51.767l-6.749-3.894V45.31l6.749,3.9Z" transform="translate(-51.521 -3.985)" fill="#42ffff" opacity="0.5"/>
        <path id="Path_28" data-name="Path 28" d="M168.433,52.972l-9.713-5.609V44.8l9.713,5.609Z" transform="translate(-50.469 -3.94)" fill="#42ffff" opacity="0.5"/>
        <path id="Path_29" data-name="Path 29" d="M180.413,59.887l-9.093-5.253V52.08l9.093,5.253Z" transform="translate(-51.577 -4.58)" fill="#42ffff" opacity="0.5"/>
        <path id="Path_30" data-name="Path 30" d="M186.1,63.165l-2.846-1.642V58.96l2.846,1.651Z" transform="translate(-52.626 -5.186)" fill="#42ffff"/>
        <path id="Path_31" data-name="Path 31" d="M190.956,65.975l-2.846-1.642V61.77l2.846,1.651Z" transform="translate(-53.054 -5.433)" fill="#42ffff" opacity="0.5"/>
        <path id="Path_32" data-name="Path 32" d="M164.539,57.12l-5.819-3.356V51.21l5.819,3.356Z" transform="translate(-50.469 -4.504)" fill="#42ffff" opacity="0.5"/>
        <path id="Path_33" data-name="Path 33" d="M191.78,21.644l8.072,4.661V23.751L191.78,19.09Z" transform="translate(-53.376 -1.679)" fill="#42ffff"/>
        <path id="Path_34" data-name="Path 34" d="M193.68,29.134l6.339,3.666V30.246L193.68,26.58Z" transform="translate(-53.543 -2.338)" fill="#42ffff" opacity="0.5"/>
        <path id="Path_35" data-name="Path 35" d="M195.6,36.653l4.588,2.645V36.744L195.6,34.09Z" transform="translate(-53.712 -2.998)" fill="#42ffff" opacity="0.5"/>
        <path id="Path_36" data-name="Path 36" d="M193.31,41.733l6.676,3.849V43.028L193.31,39.17Z" transform="translate(-53.511 -3.445)" fill="#42ffff" opacity="0.5"/>
        <path id="Path_37" data-name="Path 37" d="M195.6,49.453l4.588,2.645V49.544L195.6,46.89Z" transform="translate(-53.712 -4.124)" fill="#42ffff" opacity="0.5"/>
        <path id="Path_38" data-name="Path 38" d="M194.25,55.074l5.819,3.356V55.876L194.25,52.52Z" transform="translate(-53.594 -4.619)" fill="#42ffff" opacity="0.5"/>
        <path id="Path_39" data-name="Path 39" d="M197.15,63.153l3.174,1.824V62.423L197.15,60.59Z" transform="translate(-53.849 -5.329)" fill="#42ffff" opacity="0.5"/>
        <path id="Path_40" data-name="Path 40" d="M193.89,67.664l6.147,3.548V68.658L193.89,65.11Z" transform="translate(-53.562 -5.726)" fill="#42ffff" opacity="0.5"/>
        <path id="Path_41" data-name="Path 41" d="M194.25,74.274l5.819,3.356V75.076L194.25,71.72Z" transform="translate(-53.594 -6.308)" fill="#42ffff" opacity="0.5"/>
        <path id="Path_42" data-name="Path 42" d="M169.522,60l-2.472-1.423V56.02l2.472,1.423Z" transform="translate(-51.201 -4.927)" fill="#42ffff" opacity="0.5"/>
        <path id="Path_43" data-name="Path 43" d="M177.283,64.474l-5.573-3.21V58.71l5.573,3.21Z" transform="translate(-51.611 -5.164)" fill="#42ffff" opacity="0.5"/>
        <path id="Path_44" data-name="Path 44" d="M219.838,37.736,208.2,31.014V28.46l11.638,6.713Z" transform="translate(-54.82 -2.503)" fill="#42ffff" opacity="0.5"/>
        <path id="Path_45" data-name="Path 45" d="M227.1,41.921,222.91,39.5V36.95l4.186,2.417Z" transform="translate(-56.114 -3.25)" fill="#42ffff" opacity="0.5"/>
        <path id="Path_46" data-name="Path 46" d="M232.3,44.925l-2.846-1.642V40.73l2.846,1.642Z" transform="translate(-56.689 -3.582)" fill="#42ffff"/>
        <path id="Path_47" data-name="Path 47" d="M214.539,41.071,208.2,37.414V34.86l6.339,3.657Z" transform="translate(-54.82 -3.066)" fill="#42ffff" opacity="0.5"/>
        <path id="Path_48" data-name="Path 48" d="M224.871,47.041,217.1,42.554V40l7.771,4.478Z" transform="translate(-55.603 -3.518)" fill="#42ffff" opacity="0.5"/>
        <path id="Path_49" data-name="Path 49" d="M230.416,50.245l-2.846-1.651V46.04l2.846,1.642Z" transform="translate(-56.524 -4.049)" fill="#42ffff"/>
        <path id="Path_50" data-name="Path 50" d="M235.246,53.025,232.4,51.384V48.83l2.846,1.642Z" transform="translate(-56.949 -4.295)" fill="#42ffff" opacity="0.5"/>
        <path id="Path_51" data-name="Path 51" d="M212.788,46.459,208.2,43.814V41.26l4.588,2.645Z" transform="translate(-54.82 -3.629)" fill="#42ffff" opacity="0.5"/>
        <path id="Path_52" data-name="Path 52" d="M216.749,48.747l-1.569-.9V45.29l1.569.9Z" transform="translate(-55.434 -3.983)" fill="#42ffff" opacity="0.5"/>
        <path id="Path_53" data-name="Path 53" d="M221.7,51.605l-2.846-1.642V47.41l2.846,1.642Z" transform="translate(-55.757 -4.17)" fill="#42ffff" opacity="0.5"/>
        <path id="Path_54" data-name="Path 54" d="M225.128,59.991,208.2,50.214V47.66l16.928,9.777Z" transform="translate(-54.82 -4.192)" fill="#42ffff" opacity="0.5"/>
        <path id="Path_55" data-name="Path 55" d="M232.906,64.48l-4.186-2.426V59.5l4.186,2.426Z" transform="translate(-56.625 -5.233)" fill="#42ffff" opacity="0.5"/>
        <path id="Path_56" data-name="Path 56" d="M212.788,59.268,208.2,56.614V54.06l4.588,2.645Z" transform="translate(-54.82 -4.755)" fill="#42ffff" opacity="0.5"/>
        <path id="Path_57" data-name="Path 57" d="M224.164,65.833l-8.984-5.19V58.09l8.984,5.19Z" transform="translate(-55.434 -5.109)" fill="#42ffff" opacity="0.5"/>
        <path id="Path_58" data-name="Path 58" d="M229.826,69.1l-2.846-1.642V64.9l2.846,1.651Z" transform="translate(-56.472 -5.708)" fill="#42ffff" opacity="0.5"/>
        <path id="Path_59" data-name="Path 59" d="M217.585,68.431,208.2,63.014V60.46l9.385,5.418Z" transform="translate(-54.82 -5.317)" fill="#42ffff"/>
        <path id="Path_60" data-name="Path 60" d="M227.226,74.006l-6.786-3.922V67.53l6.786,3.922Z" transform="translate(-55.897 -5.939)" fill="#42ffff" opacity="0.5"/>
        <path id="Path_61" data-name="Path 61" d="M234.418,78.158,229.83,75.5V72.95l4.588,2.645Z" transform="translate(-56.723 -6.416)" fill="#42ffff" opacity="0.5"/>
        <path id="Path_62" data-name="Path 62" d="M211.374,71.247,208.2,69.414V66.86l3.174,1.833Z" transform="translate(-54.82 -5.88)" fill="#42ffff" opacity="0.5"/>
        <path id="Path_63" data-name="Path 63" d="M217.815,74.97l-4.2-2.417V69.99l4.2,2.417Z" transform="translate(-55.297 -6.156)" fill="#42ffff" opacity="0.5"/>
        <path id="Path_64" data-name="Path 64" d="M226.919,80.227l-6.749-3.9V73.77l6.749,3.894Z" transform="translate(-55.873 -6.488)" fill="#42ffff"/>
        <path id="Path_65" data-name="Path 65" d="M217.913,81.423,208.2,75.814V73.26l9.713,5.609Z" transform="translate(-54.82 -6.443)" fill="#42ffff" opacity="0.5"/>
        <path id="Path_66" data-name="Path 66" d="M229.893,88.346,220.8,83.093V80.53l9.093,5.263Z" transform="translate(-55.929 -7.083)" fill="#42ffff" opacity="0.5"/>
        <path id="Path_67" data-name="Path 67" d="M235.566,91.615l-2.846-1.642V87.42l2.846,1.642Z" transform="translate(-56.977 -7.689)" fill="#42ffff" opacity="0.5"/>
        <path id="Path_68" data-name="Path 68" d="M240.436,94.425l-2.846-1.642V90.23l2.846,1.642Z" transform="translate(-57.405 -7.936)" fill="#42ffff" opacity="0.5"/>
        <path id="Path_69" data-name="Path 69" d="M214.019,85.579,208.2,82.214V79.66l5.819,3.365Z" transform="translate(-54.82 -7.006)" fill="#42ffff" opacity="0.5"/>
        <path id="Path_70" data-name="Path 70" d="M241.26,50.1l8.072,4.651V52.2L241.26,47.54Z" transform="translate(-57.728 -4.181)" fill="#42ffff"/>
        <path id="Path_71" data-name="Path 71" d="M243.15,57.594l6.348,3.657V58.7L243.15,55.04Z" transform="translate(-57.894 -4.841)" fill="#42ffff" opacity="0.5"/>
        <path id="Path_72" data-name="Path 72" d="M245.08,65.1l4.588,2.645V65.195L245.08,62.55Z" transform="translate(-58.064 -5.501)" fill="#42ffff" opacity="0.5"/>
        <path id="Path_73" data-name="Path 73" d="M242.79,70.184l6.676,3.858V71.479L242.79,67.63Z" transform="translate(-57.863 -5.948)" fill="#42ffff" opacity="0.5"/>
        <path id="Path_74" data-name="Path 74" d="M245.08,77.9l4.588,2.654V77.995L245.08,75.35Z" transform="translate(-58.064 -6.627)" fill="#42ffff" opacity="0.5"/>
        <path id="Path_75" data-name="Path 75" d="M243.73,83.524l5.819,3.365V84.335L243.73,80.97Z" transform="translate(-57.945 -7.121)" fill="#42ffff" opacity="0.5"/>
        <path id="Path_76" data-name="Path 76" d="M246.63,91.6l3.174,1.833V90.883L246.63,89.05Z" transform="translate(-58.2 -7.832)" fill="#42ffff" opacity="0.5"/>
        <path id="Path_77" data-name="Path 77" d="M243.37,96.124l6.147,3.548V97.118L243.37,93.57Z" transform="translate(-57.914 -8.229)" fill="#42ffff" opacity="0.5"/>
        <path id="Path_78" data-name="Path 78" d="M243.73,102.733l5.819,3.356v-2.554l-5.819-3.365Z" transform="translate(-57.945 -8.81)" fill="#42ffff" opacity="0.5"/>
        <path id="Path_79" data-name="Path 79" d="M219,88.456l-2.472-1.432V84.47L219,85.9Z" transform="translate(-55.553 -7.429)" fill="#42ffff"/>
        <path id="Path_80" data-name="Path 80" d="M226.763,92.933l-5.573-3.21V87.16l5.573,3.22Z" transform="translate(-55.963 -7.666)" fill="#42ffff" opacity="0.5"/>
        <path id="Path_81" data-name="Path 81" d="M170.358,66.916,158.72,60.2V57.64l11.638,6.722Z" transform="translate(-50.469 -5.069)" fill="#42ffff" opacity="0.5"/>
        <path id="Path_82" data-name="Path 82" d="M177.616,71.111l-4.186-2.417V66.14l4.186,2.417Z" transform="translate(-51.762 -5.817)" fill="#42ffff" opacity="0.5"/>
        <path id="Path_83" data-name="Path 83" d="M182.816,74.115l-2.846-1.642V69.91l2.846,1.651Z" transform="translate(-52.338 -6.149)" fill="#42ffff" opacity="0.5"/>
        <path id="Path_84" data-name="Path 84" d="M165.059,70.261,158.72,66.6V64.05l6.339,3.657Z" transform="translate(-50.469 -5.633)" fill="#42ffff" opacity="0.5"/>
        <path id="Path_85" data-name="Path 85" d="M175.391,76.23l-7.771-4.487V69.18l7.771,4.487Z" transform="translate(-51.251 -6.084)" fill="#42ffff" opacity="0.5"/>
        <path id="Path_86" data-name="Path 86" d="M180.936,79.425l-2.846-1.642V75.23l2.846,1.642Z" transform="translate(-52.172 -6.616)" fill="#42ffff" opacity="0.5"/>
        <path id="Path_87" data-name="Path 87" d="M185.766,82.215l-2.846-1.642V78.02l2.846,1.642Z" transform="translate(-52.597 -6.862)" fill="#42ffff" opacity="0.5"/>
        <path id="Path_88" data-name="Path 88" d="M163.308,75.649,158.72,73V70.45l4.588,2.645Z" transform="translate(-50.469 -6.196)" fill="#42ffff" opacity="0.5"/>
        <path id="Path_89" data-name="Path 89" d="M167.269,77.936l-1.569-.9V74.47l1.569.912Z" transform="translate(-51.083 -6.55)" fill="#42ffff" opacity="0.5"/>
        <path id="Path_90" data-name="Path 90" d="M172.216,80.795l-2.846-1.651V76.59l2.846,1.642Z" transform="translate(-51.405 -6.736)" fill="#42ffff" opacity="0.5"/>
        <path id="Path_91" data-name="Path 91" d="M175.657,89.181,158.72,79.4V76.85l16.937,9.777Z" transform="translate(-50.469 -6.759)" fill="#42ffff" opacity="0.5"/>
        <path id="Path_92" data-name="Path 92" d="M183.426,93.661l-4.186-2.417V88.69l4.186,2.417Z" transform="translate(-52.273 -7.8)" fill="#42ffff" opacity="0.5"/>
        <path id="Path_93" data-name="Path 93" d="M163.308,88.449,158.72,85.8V83.25l4.588,2.645Z" transform="translate(-50.469 -7.322)" fill="#42ffff" opacity="0.5"/>
        <path id="Path_94" data-name="Path 94" d="M174.693,95.023l-8.993-5.19V87.28l8.993,5.19Z" transform="translate(-51.083 -7.676)" fill="#42ffff" opacity="0.5"/>
        <path id="Path_95" data-name="Path 95" d="M180.356,98.295l-2.846-1.651V94.09l2.846,1.642Z" transform="translate(-52.121 -8.275)" fill="#42ffff" opacity="0.5"/>
        <path id="Path_96" data-name="Path 96" d="M168.1,97.621,158.72,92.2V89.65l9.385,5.418Z" transform="translate(-50.469 -7.885)" fill="#42ffff" opacity="0.5"/>
        <path id="Path_97" data-name="Path 97" d="M177.755,103.186l-6.795-3.913V96.72l6.795,3.913Z" transform="translate(-51.545 -8.506)" fill="#42ffff" opacity="0.5"/>
        <path id="Path_98" data-name="Path 98" d="M184.938,107.339l-4.588-2.645V102.14l4.588,2.645Z" transform="translate(-52.371 -8.983)" fill="#42ffff" opacity="0.5"/>
        <path id="Path_99" data-name="Path 99" d="M161.894,100.437,158.72,98.6V96.05l3.174,1.833Z" transform="translate(-50.469 -8.448)" fill="#42ffff" opacity="0.5"/>
        <path id="Path_100" data-name="Path 100" d="M168.336,104.16l-4.186-2.426V99.18l4.186,2.417Z" transform="translate(-50.946 -8.723)" fill="#42ffff" opacity="0.5"/>
        <path id="Path_101" data-name="Path 101" d="M177.439,109.408l-6.749-3.894V102.96l6.749,3.894Z" transform="translate(-51.521 -9.055)" fill="#42ffff" opacity="0.5"/>
        <path id="Path_102" data-name="Path 102" d="M168.433,110.613,158.72,105V102.45l9.713,5.609Z" transform="translate(-50.469 -9.01)" fill="#42ffff" opacity="0.5"/>
        <path id="Path_103" data-name="Path 103" d="M180.413,117.527l-9.093-5.253V109.72l9.093,5.253Z" transform="translate(-51.577 -9.65)" fill="#42ffff" opacity="0.5"/>
        <path id="Path_104" data-name="Path 104" d="M186.1,120.805l-2.846-1.642V116.61l2.846,1.642Z" transform="translate(-52.626 -10.256)" fill="#42ffff" opacity="0.5"/>
        <path id="Path_105" data-name="Path 105" d="M190.956,123.615l-2.846-1.642V119.42l2.846,1.642Z" transform="translate(-53.054 -10.503)" fill="#42ffff" opacity="0.5"/>
        <path id="Path_106" data-name="Path 106" d="M164.539,114.769,158.72,111.4V108.85l5.819,3.356Z" transform="translate(-50.469 -9.573)" fill="#42ffff" opacity="0.5"/>
        <path id="Path_107" data-name="Path 107" d="M191.78,79.284l8.072,4.661V81.391L191.78,76.73Z" transform="translate(-53.376 -6.748)" fill="#42ffff" opacity="0.5"/>
        <path id="Path_108" data-name="Path 108" d="M193.68,86.784l6.339,3.657V87.887L193.68,84.23Z" transform="translate(-53.543 -7.408)" fill="#42ffff" opacity="0.5"/>
        <path id="Path_109" data-name="Path 109" d="M195.6,94.294l4.588,2.645V94.385L195.6,91.74Z" transform="translate(-53.712 -8.068)" fill="#42ffff" opacity="0.5"/>
        <path id="Path_110" data-name="Path 110" d="M193.31,99.374l6.676,3.849v-2.554L193.31,96.82Z" transform="translate(-53.511 -8.515)" fill="#42ffff" opacity="0.5"/>
        <path id="Path_111" data-name="Path 111" d="M195.6,107.094l4.588,2.645v-2.554L195.6,104.54Z" transform="translate(-53.712 -9.194)" fill="#42ffff" opacity="0.5"/>
        <path id="Path_112" data-name="Path 112" d="M194.25,112.714l5.819,3.356v-2.554l-5.819-3.356Z" transform="translate(-53.594 -9.689)" fill="#42ffff" opacity="0.5"/>
        <path id="Path_113" data-name="Path 113" d="M197.15,120.794l3.174,1.833v-2.563l-3.174-1.824Z" transform="translate(-53.849 -10.399)" fill="#42ffff" opacity="0.5"/>
        <path id="Path_114" data-name="Path 114" d="M193.89,125.314l6.147,3.548V126.3l-6.147-3.539Z" transform="translate(-53.562 -10.797)" fill="#42ffff" opacity="0.5"/>
        <path id="Path_115" data-name="Path 115" d="M194.25,131.914l5.819,3.365v-2.563l-5.819-3.356Z" transform="translate(-53.594 -11.377)" fill="#42ffff" opacity="0.5"/>
        <path id="Path_116" data-name="Path 116" d="M169.522,117.646l-2.472-1.432V113.66l2.472,1.423Z" transform="translate(-51.201 -9.996)" fill="#42ffff" opacity="0.5"/>
        <path id="Path_117" data-name="Path 117" d="M177.283,122.123l-5.573-3.22V116.35l5.573,3.22Z" transform="translate(-51.611 -10.233)" fill="#42ffff" opacity="0.5"/>
        <path id="Path_118" data-name="Path 118" d="M181.964,143.44l-9.394-5.427V135.46l9.394,5.427Z" transform="translate(-51.687 -11.914)" fill="#42ffff" opacity="0.5"/>
        <path id="Path_119" data-name="Path 119" d="M189.573,147.828l-3.7-2.134V143.14l3.7,2.134Z" transform="translate(-52.857 -12.589)" fill="#42ffff" opacity="0.5"/>
        <path id="Path_120" data-name="Path 120" d="M219.838,95.376,208.2,88.654V86.1l11.638,6.722Z" transform="translate(-54.82 -7.572)" fill="#42ffff" opacity="0.5"/>
        <path id="Path_121" data-name="Path 121" d="M227.1,99.57l-4.186-2.426V94.59l4.186,2.417Z" transform="translate(-56.114 -8.319)" fill="#42ffff" opacity="0.5"/>
        <path id="Path_122" data-name="Path 122" d="M232.3,102.565l-2.846-1.642V98.37l2.846,1.642Z" transform="translate(-56.689 -8.652)" fill="#42ffff" opacity="0.5"/>
        <path id="Path_123" data-name="Path 123" d="M214.539,98.72,208.2,95.054V92.5l6.339,3.666Z" transform="translate(-54.82 -8.135)" fill="#42ffff" opacity="0.5"/>
        <path id="Path_124" data-name="Path 124" d="M224.871,104.681l-7.771-4.487V97.64l7.771,4.487Z" transform="translate(-55.603 -8.587)" fill="#42ffff" opacity="0.5"/>
        <path id="Path_125" data-name="Path 125" d="M230.416,107.885l-2.846-1.642V103.69l2.846,1.642Z" transform="translate(-56.524 -9.119)" fill="#42ffff" opacity="0.5"/>
        <path id="Path_126" data-name="Path 126" d="M235.246,110.675l-2.846-1.651V106.47l2.846,1.642Z" transform="translate(-56.949 -9.364)" fill="#42ffff" opacity="0.5"/>
        <path id="Path_127" data-name="Path 127" d="M212.788,104.108l-4.588-2.654V98.9l4.588,2.654Z" transform="translate(-54.82 -8.698)" fill="#42ffff" opacity="0.5"/>
        <path id="Path_128" data-name="Path 128" d="M216.749,106.4l-1.569-.912V102.93l1.569.9Z" transform="translate(-55.434 -9.053)" fill="#42ffff" opacity="0.5"/>
        <path id="Path_129" data-name="Path 129" d="M221.7,109.245,218.85,107.6V105.05l2.846,1.642Z" transform="translate(-55.757 -9.239)" fill="#42ffff" opacity="0.5"/>
        <path id="Path_130" data-name="Path 130" d="M225.128,117.631,208.2,107.863V105.3l16.928,9.777Z" transform="translate(-54.82 -9.261)" fill="#42ffff" opacity="0.5"/>
        <path id="Path_131" data-name="Path 131" d="M232.906,122.121,228.72,119.7V117.15l4.186,2.417Z" transform="translate(-56.625 -10.303)" fill="#42ffff" opacity="0.5"/>
        <path id="Path_132" data-name="Path 132" d="M212.788,116.908l-4.588-2.654V111.7l4.588,2.654Z" transform="translate(-54.82 -9.824)" fill="#42ffff" opacity="0.5"/>
        <path id="Path_133" data-name="Path 133" d="M224.164,123.473l-8.984-5.19V115.73l8.984,5.19Z" transform="translate(-55.434 -10.178)" fill="#42ffff" opacity="0.5"/>
        <path id="Path_134" data-name="Path 134" d="M229.826,126.745,226.98,125.1V122.55l2.846,1.642Z" transform="translate(-56.472 -10.778)" fill="#42ffff" opacity="0.5"/>
        <path id="Path_135" data-name="Path 135" d="M217.585,126.08l-9.385-5.418V118.1l9.385,5.427Z" transform="translate(-54.82 -10.387)" fill="#42ffff" opacity="0.5"/>
        <path id="Path_136" data-name="Path 136" d="M227.226,131.646l-6.786-3.922V125.17l6.786,3.922Z" transform="translate(-55.897 -11.009)" fill="#42ffff" opacity="0.5"/>
        <path id="Path_137" data-name="Path 137" d="M234.418,135.8l-4.588-2.645V130.59l4.588,2.654Z" transform="translate(-56.723 -11.485)" fill="#42ffff" opacity="0.5"/>
        <path id="Path_138" data-name="Path 138" d="M211.374,128.887l-3.174-1.824V124.5l3.174,1.833Z" transform="translate(-54.82 -10.95)" fill="#42ffff" opacity="0.5"/>
        <path id="Path_139" data-name="Path 139" d="M217.815,132.611l-4.2-2.417V127.64l4.2,2.417Z" transform="translate(-55.297 -11.226)" fill="#42ffff" opacity="0.5"/>
        <path id="Path_140" data-name="Path 140" d="M226.919,137.867l-6.749-3.894V131.41l6.749,3.9Z" transform="translate(-55.873 -11.557)" fill="#42ffff" opacity="0.5"/>
        <path id="Path_141" data-name="Path 141" d="M217.913,139.064l-9.713-5.6V130.91l9.713,5.6Z" transform="translate(-54.82 -11.513)" fill="#42ffff" opacity="0.5"/>
        <path id="Path_142" data-name="Path 142" d="M229.893,145.987l-9.093-5.253V138.18l9.093,5.253Z" transform="translate(-55.929 -12.153)" fill="#42ffff" opacity="0.5"/>
        <path id="Path_143" data-name="Path 143" d="M235.566,149.265l-2.846-1.642V145.06l2.846,1.651Z" transform="translate(-56.977 -12.758)" fill="#42ffff" opacity="0.5"/>
        <path id="Path_144" data-name="Path 144" d="M240.436,152.075l-2.846-1.642V147.87l2.846,1.651Z" transform="translate(-57.405 -13.005)" fill="#42ffff" opacity="0.5"/>
        <path id="Path_145" data-name="Path 145" d="M214.019,143.22l-5.819-3.356V137.31l5.819,3.356Z" transform="translate(-54.82 -12.076)" fill="#42ffff" opacity="0.5"/>
        <path id="Path_146" data-name="Path 146" d="M241.26,107.744l8.072,4.661v-2.554l-8.072-4.661Z" transform="translate(-57.728 -9.251)" fill="#42ffff" opacity="0.5"/>
        <path id="Path_147" data-name="Path 147" d="M243.15,115.234,249.5,118.9v-2.554l-6.348-3.666Z" transform="translate(-57.894 -9.91)" fill="#42ffff" opacity="0.5"/>
        <path id="Path_148" data-name="Path 148" d="M245.08,122.753l4.588,2.645v-2.554l-4.588-2.654Z" transform="translate(-58.064 -10.571)" fill="#42ffff" opacity="0.5"/>
        <path id="Path_149" data-name="Path 149" d="M242.79,127.824l6.676,3.858v-2.554l-6.676-3.858Z" transform="translate(-57.863 -11.017)" fill="#42ffff" opacity="0.5"/>
        <path id="Path_150" data-name="Path 150" d="M245.08,135.553l4.588,2.645v-2.554l-4.588-2.654Z" transform="translate(-58.064 -11.696)" fill="#42ffff" opacity="0.5"/>
        <path id="Path_151" data-name="Path 151" d="M243.73,141.174l5.819,3.356v-2.554l-5.819-3.356Z" transform="translate(-57.945 -12.192)" fill="#42ffff" opacity="0.5"/>
        <path id="Path_152" data-name="Path 152" d="M246.63,149.253l3.174,1.824v-2.554l-3.174-1.833Z" transform="translate(-58.2 -12.901)" fill="#42ffff" opacity="0.5"/>
        <path id="Path_153" data-name="Path 153" d="M243.37,153.764l6.147,3.548v-2.554l-6.147-3.548Z" transform="translate(-57.914 -13.299)" fill="#42ffff" opacity="0.5"/>
        <path id="Path_154" data-name="Path 154" d="M243.73,160.374l5.819,3.356v-2.554l-5.819-3.356Z" transform="translate(-57.945 -13.88)" fill="#42ffff" opacity="0.5"/>
        <path id="Path_155" data-name="Path 155" d="M219,146.1l-2.472-1.423V142.12L219,143.543Z" transform="translate(-55.553 -12.499)" fill="#42ffff" opacity="0.5"/>
        <path id="Path_156" data-name="Path 156" d="M226.763,150.574l-5.573-3.21V144.81l5.573,3.21Z" transform="translate(-55.963 -12.736)" fill="#42ffff" opacity="0.5"/>
        <path id="Path_157" data-name="Path 157" d="M231.443,171.9l-9.4-5.427V163.91l9.4,5.427Z" transform="translate(-56.038 -14.416)" fill="#42ffff" opacity="0.5"/>
        <path id="Path_158" data-name="Path 158" d="M239.053,176.287l-3.7-2.134V171.59l3.7,2.143Z" transform="translate(-57.208 -15.091)" fill="#42ffff" opacity="0.5"/>
        <path id="Path_159" data-name="Path 159" d="M156.107,267.647c-16.189,0-31.411-3.648-42.866-10.242C101.466,250.6,95,241.462,95,231.658s6.485-18.952,18.241-25.747c23.631-13.681,62.074-13.681,85.733,0,11.775,6.795,18.241,15.943,18.241,25.747S210.721,250.6,198.974,257.4C187.464,264.008,172.251,267.647,156.107,267.647Zm0-69.754c-15.113,0-30.225,3.32-41.726,9.96-11.054,6.384-17.137,14.83-17.137,23.8s6.083,17.42,17.137,23.8,25.93,9.95,41.735,9.95,30.618-3.53,41.726-9.95,17.137-14.83,17.137-23.8-6.138-17.448-17.192-23.832c-11.5-6.612-26.623-9.932-41.735-9.932Z" transform="translate(-95 -69.459)" fill="url(#linear-gradient)"/>
        <g id="Group_1-2" data-name="Group 1" transform="translate(16.472 136.452)" opacity="0.67">
          <ellipse id="Ellipse_15" data-name="Ellipse 15" cx="44.581" cy="25.738" rx="44.581" ry="25.738" fill="#242993"/>
        </g>
        <path id="Path_160" data-name="Path 160" d="M211.28,210.81V198.7h-4.186a37.294,37.294,0,0,0-11.811-10.178c-21.324-12.313-55.89-12.313-77.214,0a37.248,37.248,0,0,0-11.8,10.178H102.08V210.81h0c0,8.063,5.335,16.134,16,22.291,21.315,12.3,55.89,12.3,77.205,0C205.981,226.944,211.28,218.873,211.28,210.81Z" transform="translate(-95.623 -68.019)" fill="url(#linear-gradient-2)"/>
        <ellipse id="Ellipse_16" data-name="Ellipse 16" cx="54.595" cy="31.52" rx="54.595" ry="31.52" transform="translate(6.457 99.149)" fill="#bcd5ff"/>
        <path id="Path_161" data-name="Path 161" d="M207.5,196.737V180.2h-3.858a34.366,34.366,0,0,0-10.945-9.394c-19.691-11.373-51.622-11.373-71.313,0a34.394,34.394,0,0,0-10.9,9.4H106.62v16.535h0c0,7.451,4.925,14.9,14.766,20.585,19.691,11.364,51.622,11.364,71.313,0C202.577,211.64,207.5,204.189,207.5,196.737Z" transform="translate(-96.022 -66.524)" fill="#242993"/>
        <g id="Group_2" data-name="Group 2" transform="translate(10.598 91.775)" opacity="0.51">
          <path id="Path_162" data-name="Path 162" d="M207.5,192.368V175.832h-3.858a34.594,34.594,0,0,0-10.945-9.394c-19.691-11.364-51.622-11.364-71.313,0a34.493,34.493,0,0,0-10.9,9.394H106.62v16.535h0c0,7.451,4.925,14.9,14.766,20.585,19.691,11.373,51.622,11.373,71.313,0C202.577,207.243,207.5,199.819,207.5,192.368Z" transform="translate(-106.62 -157.915)" fill="#4553c7"/>
        </g>
        <ellipse id="Ellipse_17" data-name="Ellipse 17" cx="50.418" cy="29.113" rx="50.418" ry="29.113" transform="translate(10.635 84.556)" fill="#bcd5ff"/>
        <g id="Group_3" data-name="Group 3" transform="translate(65.996 121.266)" opacity="0.51">
          <path id="Path_163" data-name="Path 163" d="M197.129,204.086c-8.664,11.036-20.065,16.937-29.769,20.065,11.2-.629,22.108-3.42,30.691-8.382,9.841-5.682,14.766-13.134,14.766-20.585V190.25a52.715,52.715,0,0,0-15.687,13.836Z" transform="translate(-167.36 -190.25)" fill="#5368d8"/>
        </g>
        <path id="Path_164" data-name="Path 164" d="M211.28,178.6V166.488h-4.186a37.294,37.294,0,0,0-11.811-10.178c-21.324-12.313-55.89-12.313-77.214,0a37.248,37.248,0,0,0-11.8,10.178H102.08V178.6h0c0,8.072,5.335,16.134,16,22.291,21.315,12.313,55.89,12.313,77.205,0C205.981,194.734,211.28,186.663,211.28,178.6Z" transform="translate(-95.623 -65.187)" fill="url(#linear-gradient-3)"/>
        <ellipse id="Ellipse_18" data-name="Ellipse 18" cx="54.595" cy="31.52" rx="54.595" ry="31.52" transform="translate(6.457 69.772)" fill="#bcd5ff"/>
        <path id="Path_165" data-name="Path 165" d="M207.5,163.857V147.322h-3.858a34.594,34.594,0,0,0-10.945-9.394c-19.691-11.373-51.622-11.373-71.313,0a34.494,34.494,0,0,0-10.9,9.394H106.62v16.535h0c0,7.451,4.925,14.9,14.766,20.585,19.691,11.373,51.622,11.373,71.313,0C202.577,178.76,207.5,171.309,207.5,163.857Z" transform="translate(-96.022 -63.632)" fill="#242993"/>
        <g id="Group_4" data-name="Group 4" transform="translate(10.598 61.988)" opacity="0.51">
          <path id="Path_166" data-name="Path 166" d="M207.5,159.68v-16.5h-3.858a34.494,34.494,0,0,0-10.945-9.4c-19.691-11.364-51.622-11.364-71.313,0a34.393,34.393,0,0,0-10.9,9.4H106.62v16.5h0c0,7.451,4.925,14.9,14.766,20.585,19.691,11.373,51.622,11.373,71.313,0C202.577,174.611,207.5,167.159,207.5,159.68Z" transform="translate(-106.62 -125.255)" fill="#4553c7"/>
        </g>
        <ellipse id="Ellipse_19" data-name="Ellipse 19" cx="50.418" cy="29.113" rx="50.418" ry="29.113" transform="translate(10.635 54.577)" fill="#bcd5ff"/>
        <g id="Group_5" data-name="Group 5" transform="translate(59.283 89.755)" opacity="0.51">
          <path id="Path_167" data-name="Path 167" d="M196.482,169.508c-10.78,13.681-25.82,19.509-36.482,21.944,13.471.264,27.088-2.545,37.394-8.473,9.841-5.691,14.766-13.143,14.766-20.594V155.7A52.844,52.844,0,0,0,196.482,169.508Z" transform="translate(-160 -155.7)" fill="#5368d8"/>
        </g>
        <path id="Path_168" data-name="Path 168" d="M211.28,145.721V133.609h-4.186a37.275,37.275,0,0,0-11.811-10.169c-21.324-12.313-55.89-12.313-77.214,0a37.393,37.393,0,0,0-11.8,10.178H102.08V145.73h0c0,8.072,5.335,16.134,16,22.291,21.315,12.313,55.89,12.313,77.205,0C205.981,161.855,211.28,153.793,211.28,145.721Z" transform="translate(-95.623 -62.296)" fill="url(#linear-gradient-4)"/>
        <ellipse id="Ellipse_20" data-name="Ellipse 20" cx="54.595" cy="31.52" rx="54.595" ry="31.52" transform="translate(6.457 39.793)" fill="#bcd5ff"/>
        <path id="Path_169" data-name="Path 169" d="M207.5,130.978V114.451h-3.858a34.494,34.494,0,0,0-10.945-9.4c-19.691-11.364-51.622-11.364-71.313,0a34.394,34.394,0,0,0-10.9,9.4H106.62v16.535h0c0,7.442,4.925,14.894,14.766,20.585,19.691,11.364,51.622,11.364,71.313,0C202.577,145.881,207.5,138.429,207.5,130.978Z" transform="translate(-96.022 -60.741)" fill="#242993"/>
        <g id="Group_6" data-name="Group 6" transform="translate(10.598 31.153)" opacity="0.51">
          <path id="Path_170" data-name="Path 170" d="M207.5,125.907V109.372h-3.858A34.594,34.594,0,0,0,192.7,99.977c-19.691-11.373-51.622-11.373-71.313,0a34.494,34.494,0,0,0-10.9,9.394H106.62v16.535h0c0,7.451,4.925,14.9,14.766,20.585,19.691,11.373,51.622,11.373,71.313,0C202.577,140.81,207.5,133.358,207.5,125.907Z" transform="translate(-106.62 -91.447)" fill="#4553c7"/>
        </g>
        <ellipse id="Ellipse_21" data-name="Ellipse 21" cx="50.418" cy="29.113" rx="50.418" ry="29.113" transform="translate(10.635 24.589)" fill="#bcd5ff"/>
        <path id="Path_171" data-name="Path 171" d="M211.28,112.853V100.741h-4.186a37.294,37.294,0,0,0-11.811-10.178c-21.324-12.267-55.881-12.267-77.214,0a37.248,37.248,0,0,0-11.8,10.178H102.08v12.112h0c0,8.063,5.335,16.134,16,22.291,21.315,12.3,55.89,12.3,77.205,0C205.981,128.988,211.28,120.916,211.28,112.853Z" transform="translate(-95.623 -59.407)" fill="url(#linear-gradient-5)"/>
        <ellipse id="Ellipse_22" data-name="Ellipse 22" cx="54.595" cy="31.52" rx="54.595" ry="31.52" transform="translate(6.457 9.805)" fill="#bcd5ff"/>
        <ellipse id="Ellipse_23" data-name="Ellipse 23" cx="54.595" cy="31.52" rx="54.595" ry="31.52" transform="translate(6.457 9.805)" fill="#bcd5ff"/>
        <g id="Group_7" data-name="Group 7" transform="translate(56.337 58.216)" opacity="0.51">
          <path id="Path_172" data-name="Path 172" d="M196.2,134.928C184.341,150,167.377,155.5,156.77,157.5c14.42.775,29.3-2.025,40.349-8.4,9.841-5.682,14.766-13.134,14.766-20.585v-7.4A52.844,52.844,0,0,0,196.2,134.928Z" transform="translate(-156.77 -121.12)" fill="#5368d8"/>
        </g>
        <path id="Path_173" data-name="Path 173" d="M211.28,112.853V100.741h-4.186a37.294,37.294,0,0,0-11.811-10.178c-21.324-12.267-55.881-12.267-77.214,0a37.248,37.248,0,0,0-11.8,10.178H102.08v12.112h0c0,8.063,5.335,16.134,16,22.291,21.315,12.3,55.89,12.3,77.205,0C205.981,128.988,211.28,120.916,211.28,112.853Z" transform="translate(-95.623 -59.407)" fill="url(#linear-gradient-5)"/>
        <ellipse id="Ellipse_24" data-name="Ellipse 24" cx="54.595" cy="31.52" rx="54.595" ry="31.52" transform="translate(6.457 9.805)" fill="#bcd5ff"/>
        <ellipse id="Ellipse_25" data-name="Ellipse 25" cx="54.595" cy="31.52" rx="54.595" ry="31.52" transform="translate(6.457 9.805)" fill="#bcd5ff"/>
        <path id="Path_174" data-name="Path 174" d="M195.594,123.328c-21.315,12.3-55.89,12.3-77.205,0-13.061-7.543-18.1-17.949-15.177-27.708-3.566,10.033,1.377,20.877,14.866,28.657,21.315,12.313,55.89,12.313,77.205,0,8.272-4.77,13.316-10.689,15.167-16.864C208.38,113.241,203.437,118.768,195.594,123.328Z" transform="translate(-95.624 -60.661)" fill="#fff"/>
        <path id="Path_175" data-name="Path 175" d="M195.594,156.2c-21.315,12.313-55.89,12.313-77.205,0-13.061-7.534-18.1-17.94-15.177-27.708-3.566,10.033,1.377,20.877,14.866,28.666,21.315,12.313,55.89,12.313,77.205,0,8.272-4.77,13.316-10.689,15.167-16.873C208.38,146.12,203.437,151.674,195.594,156.2Z" transform="translate(-95.624 -63.552)" fill="#fff"/>
        <path id="Path_176" data-name="Path 176" d="M195.594,189.078c-21.315,12.313-55.89,12.313-77.205,0-13.061-7.543-18.1-17.949-15.177-27.708-3.566,10.033,1.377,20.877,14.866,28.666,21.315,12.3,55.89,12.3,77.205,0,8.272-4.77,13.316-10.7,15.167-16.873C208.38,178.991,203.437,184.554,195.594,189.078Z" transform="translate(-95.624 -66.444)" fill="#fff"/>
        <path id="Path_177" data-name="Path 177" d="M195.594,221.959c-21.315,12.3-55.89,12.3-77.205,0-13.061-7.534-18.1-17.94-15.177-27.7-3.566,10.033,1.377,20.877,14.866,28.657,21.315,12.313,55.89,12.313,77.205,0,8.272-4.77,13.316-10.689,15.167-16.864C208.38,211.872,203.437,217.426,195.594,221.959Z" transform="translate(-95.624 -69.336)" fill="#fff"/>
        <g id="Group_8" data-name="Group 8" transform="translate(6.461 25.337)">
          <path id="Path_178" data-name="Path 178" d="M107.115,114.3h49.561V85.07H109.623C100.493,94.008,99.654,104.989,107.115,114.3Z" transform="translate(-102.084 -85.07)" opacity="0.78" fill="url(#linear-gradient-7)"/>
        </g>
        <path id="Path_179" data-name="Path 179" d="M187.274,97.81V91.6h-2.152a19.025,19.025,0,0,0-6.056-5.226c-10.945-6.321-28.7-6.321-39.647,0a19.026,19.026,0,0,0-6.056,5.226H131.21V97.81h0c0,4.15,2.736,8.291,8.208,11.446,10.945,6.321,28.693,6.321,39.647,0C184.538,106.1,187.274,101.96,187.274,97.81Z" transform="translate(-98.185 -59.431)" fill="url(#linear-gradient-4)"/>
        <ellipse id="Ellipse_26" data-name="Ellipse 26" cx="28.036" cy="16.18" rx="28.036" ry="16.18" transform="translate(33.016 15.979)" fill="#bcd5ff"/>
        <ellipse id="Ellipse_27" data-name="Ellipse 27" cx="28.036" cy="16.18" rx="28.036" ry="16.18" transform="translate(33.016 15.979)" fill="url(#linear-gradient-9)"/>
        <path id="Path_180" data-name="Path 180" d="M173.506,99.3c-7.369,4.259-19.326,4.259-26.7,0a11.729,11.729,0,0,1-4.752-4.56c-1.9-3.7,2.855-6.384,7.926-9.321,7.369-4.259,12.6-5.308,19.974-1.058,5.062,2.928,10.2,6.667,8.3,10.379a11.793,11.793,0,0,1-4.752,4.56Z" transform="translate(-99.101 -59.432)" fill="#242993"/>
        <path id="Path_181" data-name="Path 181" d="M146.777,90.02c7.369-4.259,19.326-4.259,26.7,0a11.747,11.747,0,0,1,4.743,4.56c1.906-3.7.328-7.88-4.743-10.808-7.369-4.259-19.326-4.259-26.7,0-5.071,2.928-6.649,7.1-4.743,10.808A11.683,11.683,0,0,1,146.777,90.02Z" transform="translate(-99.068 -59.338)" fill="url(#linear-gradient-10)"/>
        <g id="Group_9" data-name="Group 9" transform="translate(85.635 79.427)" opacity="0.51">
          <path id="Path_182" data-name="Path 182" d="M195.047,152.242c-3.648,1.45-6.384,1.058-6.138-.866s3.511-4.679,7.187-6.129,6.384-1.049,6.138.912S198.722,150.837,195.047,152.242Z" transform="translate(-188.893 -144.376)" fill="#677eea"/>
        </g>
        <g id="Group_10" data-name="Group 10" transform="translate(85.635 109.841)" opacity="0.51">
          <path id="Path_183" data-name="Path 183" d="M195.047,185.628c-3.648,1.45-6.384,1.058-6.138-.912s3.511-4.67,7.187-6.12,6.384-1.058,6.138.912S198.722,184.178,195.047,185.628Z" transform="translate(-188.893 -177.723)" fill="#677eea"/>
        </g>
        <g id="Group_11" data-name="Group 11" transform="translate(85.844 140.499)" opacity="0.51">
          <path id="Path_184" data-name="Path 184" d="M195.267,219.238c-3.648,1.441-6.384,1.058-6.129-.912s3.5-4.679,7.178-6.12,6.384-1.058,6.138.912S198.952,217.751,195.267,219.238Z" transform="translate(-189.122 -211.337)" fill="#677eea"/>
        </g>
        <g id="Group_12" data-name="Group 12" transform="translate(99.562 76.75)" opacity="0.51">
          <path id="Path_185" data-name="Path 185" d="M206.869,144.4a1.523,1.523,0,1,1,1-1.44,1.523,1.523,0,0,1-1,1.44Z" transform="translate(-204.162 -141.441)" fill="#677eea"/>
        </g>
        <g id="Group_13" data-name="Group 13" transform="translate(99.561 107.304)" opacity="0.51">
          <path id="Path_186" data-name="Path 186" d="M206.869,177.9a1.523,1.523,0,1,1,1-1.44,1.523,1.523,0,0,1-1,1.44Z" transform="translate(-204.162 -174.941)" fill="#677eea"/>
        </g>
        <g id="Group_14" data-name="Group 14" transform="translate(100.213 137.742)" opacity="0.51">
          <path id="Path_187" data-name="Path 187" d="M206.932,211.265a1.523,1.523,0,1,1,.711-2.308A1.742,1.742,0,0,1,206.932,211.265Z" transform="translate(-204.877 -208.315)" fill="#677eea"/>
        </g>
        <path id="Path_189" data-name="Path 189" d="M189.347,307.589a8.09,8.09,0,0,1-4-1.012L156.112,289.7a3.584,3.584,0,0,1-2.052-2.964,2.919,2.919,0,0,1,1.614-2.5l140.647-81.173a7.9,7.9,0,0,1,7.214.255l29.231,16.846a3.575,3.575,0,0,1,2.052,2.964,2.937,2.937,0,0,1-1.614,2.5L192.558,306.8h0A6.475,6.475,0,0,1,189.347,307.589Zm2.645-1.733ZM299.514,204.527a4.314,4.314,0,0,0-2.07.456L156.8,286.155c-.31.182-.492.392-.492.556a1.821,1.821,0,0,0,.912,1.021l29.231,16.873a5.746,5.746,0,0,0,4.971.255l140.647-81.172c.3-.173.492-.383.492-.547a1.82,1.82,0,0,0-.912-1.021L302.46,205.247a6.065,6.065,0,0,0-2.946-.721Z" transform="translate(-100.194 -70.045)" fill="url(#linear-gradient-11)"/>
        <path id="Path_190" data-name="Path 190" d="M276.111,151.137a41.635,41.635,0,0,0-10.306,8.692c-4.323-13.881-17.5-18.186-33.089-9.184-12.9,7.451-24.142,22.1-30.1,37.613a14.018,14.018,0,0,0-6.485,2.052c-8.418,4.861-15.24,16.681-15.24,26.395v.611a18.332,18.332,0,0,0-7.844,2.627c-10.771,6.211-19.5,21.324-19.5,33.746s8.728,17.466,19.5,11.255l103.062-59.484c13-7.506,23.531-25.747,23.531-40.75S289.108,143.631,276.111,151.137Z" transform="translate(-100.149 -65.085)" fill="url(#linear-gradient-12)"/>
        <path id="Path_191" data-name="Path 191" d="M276.111,151.14a37.569,37.569,0,0,0-6.193,4.56L258.4,149.042h0c-6.33-4.451-15.5-4.25-25.683,1.633-12.9,7.451-24.142,22.1-30.1,37.613a14.018,14.018,0,0,0-6.485,2.052c-8.418,4.861-15.24,16.681-15.24,26.395v.611a18.332,18.332,0,0,0-7.844,2.627c-10.771,6.211-19.5,21.324-19.5,33.746,0,6.165,2.152,10.5,5.627,12.559h0l.082.055h0l28.219,16.417,6.165-29.651,82.422-47.582c13-7.506,23.531-25.747,23.531-40.75S289.108,143.634,276.111,151.14Z" transform="translate(-100.149 -65.088)" fill="url(#radial-gradient)"/>
        <path id="Path_192" data-name="Path 192" d="M321.468,166.17l-28.593-16.608h0c-4.268-2.545-10.2-2.225-16.763,1.569a37.568,37.568,0,0,0-6.193,4.56L258.4,149.032h0c-6.33-4.451-15.5-4.25-25.683,1.633-12.9,7.451-24.142,22.1-30.1,37.613a14.018,14.018,0,0,0-6.485,2.052c-8.418,4.861-15.24,16.681-15.24,26.395v.611a18.332,18.332,0,0,0-7.844,2.627c-10.771,6.211-19.5,21.324-19.5,33.746,0,6.165,2.152,10.5,5.627,12.559h0l.082.055h0l28.219,16.417,6.165-29.651,82.422-47.582c10.534-6.083,19.445-19.226,22.446-31.976Z" transform="translate(-100.149 -65.087)" fill="url(#linear-gradient-13)"/>
        <path id="Path_193" data-name="Path 193" d="M307.181,169.148a41.827,41.827,0,0,0-10.306,8.692c-4.323-13.872-17.5-18.177-33.089-9.175-12.9,7.442-24.142,22.09-30.1,37.613a14.018,14.018,0,0,0-6.485,2.052c-8.418,4.861-15.24,16.672-15.24,26.395v.6a18.459,18.459,0,0,0-7.844,2.627c-10.771,6.22-19.5,21.333-19.5,33.746s8.728,17.466,19.5,11.255L307.181,223.47c13-7.506,23.531-25.747,23.531-40.75S320.151,161.651,307.181,169.148Z" transform="translate(-102.882 -66.67)" fill="url(#linear-gradient-14)"/>
        <path id="Path_194" data-name="Path 194" d="M307.631,177.958a41.827,41.827,0,0,1,10.306-8.692c7.953-4.56,14.985-4.086,19.244.438-4.168-5.226-11.528-6.056-19.919-1.213a41.7,41.7,0,0,0-10.033,8.363C307.385,177.219,307.513,177.584,307.631,177.958Z" transform="translate(-113.666 -66.788)" fill="#fff"/>
        <path id="Path_195" data-name="Path 195" d="M184.561,271.644c0-12.431,8.728-27.544,19.5-33.746a18.459,18.459,0,0,1,7.844-2.627c0-.2,0-.392,0-.6,0-9.722,6.822-21.534,15.24-26.395a14.018,14.018,0,0,1,6.485-2.052c5.947-15.5,17.192-30.171,30.1-37.613,11.811-6.822,22.236-6,28.474.839-6.147-7.543-16.9-8.683-29.186-1.614-12.9,7.442-24.133,22.09-30.1,37.613a14.018,14.018,0,0,0-6.494,2.052c-8.418,4.861-15.24,16.672-15.24,26.395v.6a18.369,18.369,0,0,0-7.844,2.627c-10.771,6.22-19.491,21.333-19.491,33.746,0,4.879,1.359,8.6,3.648,10.945C185.665,279.461,184.561,276.022,184.561,271.644Z" transform="translate(-102.814 -66.597)" fill="#fff"/>
      </g>
    </g>
  </g>
</svg>
