<svg xmlns="http://www.w3.org/2000/svg" width="350" height="350"><defs><clipPath id="a"><path d="M0 0h350v350H0z" data-name="Rectangle 2"/></clipPath></defs><g clip-path="url(#a)" data-name="SPRK_default_preset_name_custom – 1"><path fill="#fff" d="M0 0h350v350H0z"/><g clip-path="url(#a)" data-name="SPRK_default_preset_name_custom – 1"><path fill="#fff" d="M0 0h350v350H0z" data-name="Rectangle 1"/><g data-name="Group 1"><g data-name="6502421"><g data-name="Background Simple"><path fill="#8870db" d="M273.529 220.383c-15.715 17.88-40.045 34.363-64.59 32.443-37.072-2.895-51.599 22.84-110.007-2.977a126.3 126.3 0 0 1-24.187-13.917 105.5 105.5 0 0 1-10.487-8.84c-29.134-27.95-35.009-66.629-23.733-100.239C55.41 82.59 93.104 73.53 117.104 68.97s65.45-42.44 123.053-17.498a123 123 0 0 1 24.871 14.29c17.54 13.149 32.875 32.98 37.683 55.093q.558 2.48.938 5.022c5.124 32.983-8.69 70.129-30.12 94.506" data-name="Path 1"/></g></g></g><text font-family="SegoeUI, Segoe UI" font-size="20" letter-spacing=".02em" transform="translate(14.325 37)"><tspan x="0" y="0">mernfa.ir</tspan></text></g><g data-name="1"><g data-name="Group 3"><g data-name="Group 2"><path fill="#fd8087" d="M88.643 194.24h167.714a9.38 9.38 0 0 0 9.38-9.38V91.775a9.38 9.38 0 0 0-9.38-9.38H140.889l-5.363-16.064a9.38 9.38 0 0 0-8.9-6.409H88.643a9.38 9.38 0 0 0-9.38 9.38V184.86a9.38 9.38 0 0 0 9.38 9.38" data-name="Path 1"/><path fill="#fe646f" d="M198.218 88.804a7.04 7.04 0 0 1-6.674 4.808H79.263v91.247a9.38 9.38 0 0 0 9.38 9.38h167.714a9.38 9.38 0 0 0 9.38-9.38V91.775a9.38 9.38 0 0 0-9.38-9.38h-49.242a9.38 9.38 0 0 0-8.897 6.409" data-name="Path 2"/><path fill="#8ac9fe" d="M252.605 216.713H88.643a9.38 9.38 0 0 1-9.38-9.38v-93.085a9.38 9.38 0 0 1 9.38-9.38h115.468l5.364-16.064a9.38 9.38 0 0 1 8.9-6.409h34.234a9.38 9.38 0 0 1 9.38 9.38v115.558a9.38 9.38 0 0 1-9.384 9.38" data-name="Path 3"/><path fill="#60b7ff" d="M265.737 207.333a9.38 9.38 0 0 1-9.38 9.38H88.643a9.38 9.38 0 0 1-9.38-9.38V116.09h165.838a9.38 9.38 0 0 0 9.38-9.38V91.775a9.38 9.38 0 0 0-9.38-9.38h11.256a9.38 9.38 0 0 1 9.38 9.38Z" data-name="Path 4"/><path fill="#fed402" d="M88.643 239.187h163.962a9.38 9.38 0 0 0 9.38-9.38v-93.085a9.38 9.38 0 0 0-9.38-9.38H140.889l-5.364-16.064a9.38 9.38 0 0 0-8.9-6.409H88.643a9.38 9.38 0 0 0-9.38 9.38v115.558a9.38 9.38 0 0 0 9.38 9.38" data-name="Path 5"/><g data-name="Group 1"><path fill="#fac600" d="M256.357 127.343h-11.256a9.38 9.38 0 0 1 9.38 9.38v93.084a9.38 9.38 0 0 1-9.38 9.38h11.256a9.38 9.38 0 0 0 9.38-9.38v-93.085a9.38 9.38 0 0 0-9.38-9.379" data-name="Path 6"/></g><path fill="#efedef" d="M141.669 194.242h-40.763a3.75 3.75 0 0 0-3.752 3.752v19.717a3.75 3.75 0 0 0 3.752 3.752h40.763a3.75 3.75 0 0 0 3.752-3.752v-19.719a3.75 3.75 0 0 0-3.752-3.75" data-name="Path 7"/></g><path d="M265.737 107.15a2.814 2.814 0 0 0 2.814-2.814v-12.56a12.21 12.21 0 0 0-12.194-12.194h-77.725a2.814 2.814 0 1 0 0 5.628h29.462a12.3 12.3 0 0 0-1.288 2.7l-4.722 14.141H88.643a12.23 12.23 0 0 0-6.566 1.923V69.301a6.574 6.574 0 0 1 6.566-6.566h37.986a6.56 6.56 0 0 1 6.228 4.486l5.364 16.064a2.81 2.81 0 0 0 2.669 1.923h25.479a2.814 2.814 0 1 0 0-5.628h-23.452l-4.722-14.14a12.18 12.18 0 0 0-11.566-8.332H88.643a12.21 12.21 0 0 0-12.194 12.193v83.16a2.814 2.814 0 1 0 5.628 0v-38.212a6.573 6.573 0 0 1 6.566-6.566h37.986a6.56 6.56 0 0 1 6.228 4.486l5.364 16.064a2.81 2.81 0 0 0 2.669 1.923h115.467a6.574 6.574 0 0 1 6.566 6.566v93.084a6.574 6.574 0 0 1-6.566 6.566H88.643a6.574 6.574 0 0 1-6.566-6.566v-65.08a2.814 2.814 0 1 0-5.628 0v65.081a12.21 12.21 0 0 0 12.194 12.194h167.714a12.21 12.21 0 0 0 12.192-12.194V116.601a2.814 2.814 0 0 0-5.628 0v9.85a12.23 12.23 0 0 0-6.566-1.923H142.917l-4.722-14.141a12.3 12.3 0 0 0-1.288-2.7h67.2a2.81 2.81 0 0 0 2.669-1.923l5.368-16.063a6.56 6.56 0 0 1 6.228-4.486h37.986a6.574 6.574 0 0 1 6.566 6.566v12.56a2.814 2.814 0 0 0 2.814 2.814Z" data-name="Path 8"/><path d="M141.671 224.275a6.574 6.574 0 0 0 6.566-6.566v-19.717a6.574 6.574 0 0 0-6.566-6.566h-40.765a6.574 6.574 0 0 0-6.566 6.566v19.717a6.574 6.574 0 0 0 6.566 6.566Zm-41.7-6.566v-19.717a.94.94 0 0 1 .938-.938h40.762a.94.94 0 0 1 .938.938v19.717a.94.94 0 0 1-.938.938h-40.765a.94.94 0 0 1-.938-.938Z" data-name="Path 9"/><path d="M109.515 210.663h23.649a2.814 2.814 0 1 0 0-5.628h-23.649a2.814 2.814 0 0 0 0 5.628" data-name="Path 10"/></g></g><text data-name="Full Stack" font-family="SegoeUI-Bold, Segoe UI" font-size="35" font-weight="700" transform="translate(96 315)"><tspan x="0" y="0">Full</tspan><tspan y="0" font-family="BKoodakBold, B Koodak" font-weight="400"> </tspan><tspan y="0">Stack</tspan></text></g></svg>