<svg xmlns="http://www.w3.org/2000/svg" xmlns:xlink="http://www.w3.org/1999/xlink" width="350" height="350"><defs><linearGradient id="d" x1=".372" x2=".648" y1=".115" y2="1.071" gradientUnits="objectBoundingBox"><stop offset="0" stop-color="#eaf9fa"/><stop offset="1" stop-color="#b3dafe"/></linearGradient><linearGradient id="a" x1=".699" x2=".352" y1=".499" y2=".466" gradientUnits="objectBoundingBox"><stop offset="0" stop-color="#7bacdf" stop-opacity="0"/><stop offset="1" stop-color="#7bacdf"/></linearGradient><linearGradient xlink:href="#a" id="i" x1=".495" x2=".509" y1=".569" y2="1.049"/><linearGradient xlink:href="#a" id="j" x1=".673" x2=".957" y1=".498" y2=".489"/><linearGradient xlink:href="#a" id="k" x1=".279" x2=".158" y1=".386" y2=".258"/><linearGradient id="l" x1=".299" x2=".877" y1=".5" y2=".5" gradientUnits="objectBoundingBox"><stop offset="0" stop-color="#bbec6c"/><stop offset="1" stop-color="#81b823"/></linearGradient><linearGradient id="b" x1=".5" x2=".339" y1=".234" y2=".123" gradientUnits="objectBoundingBox"><stop offset="0" stop-color="#026841" stop-opacity="0"/><stop offset=".239" stop-color="#0a6644" stop-opacity=".239"/><stop offset=".611" stop-color="#20604d" stop-opacity=".612"/><stop offset="1" stop-color="#3e5959"/></linearGradient><linearGradient xlink:href="#b" id="m" x1=".671" x2=".996" y1=".5" y2=".491"/><linearGradient id="n" x1=".314" x2=".917" y1=".5" y2=".5" gradientUnits="objectBoundingBox"><stop offset="0" stop-color="#62dbfb"/><stop offset=".191" stop-color="#57d5fa"/><stop offset=".523" stop-color="#3bc5f7"/><stop offset=".954" stop-color="#0dabf2"/><stop offset="1" stop-color="#08a9f1"/></linearGradient><linearGradient id="c" x1=".328" x2=".148" y1=".5" y2=".5" gradientUnits="objectBoundingBox"><stop offset="0" stop-color="#0593fc" stop-opacity="0"/><stop offset=".683" stop-color="#0389fc" stop-opacity=".682"/><stop offset="1" stop-color="#0182fc"/></linearGradient><linearGradient xlink:href="#c" id="o" x1=".497" x2=".505" y1=".649" y2="1.037"/><linearGradient xlink:href="#c" id="p" x1=".51" x2=".881" y1=".496" y2=".465"/><linearGradient id="q" x1=".138" x2=".857" y1=".5" y2=".5" gradientUnits="objectBoundingBox"><stop offset="0" stop-color="#fef0ae"/><stop offset="1" stop-color="#fbc56d"/></linearGradient><linearGradient id="e" x1=".28" x2=".065" y1=".145" y2="-.126" gradientUnits="objectBoundingBox"><stop offset="0" stop-color="#dc8758" stop-opacity="0"/><stop offset=".215" stop-color="#dd8654" stop-opacity=".216"/><stop offset=".429" stop-color="#e28448" stop-opacity=".427"/><stop offset=".642" stop-color="#ea8034" stop-opacity=".643"/><stop offset=".854" stop-color="#f47b18" stop-opacity=".855"/><stop offset="1" stop-color="#fe7701"/></linearGradient><linearGradient xlink:href="#d" id="r" x1=".286" x2=".707" y1=".5" y2=".5"/><linearGradient xlink:href="#a" id="s" x1=".333" x2="1.137" y1=".5" y2=".5"/><linearGradient xlink:href="#a" id="t" x1=".223" x2=".963" y1=".176" y2="1.041"/><linearGradient xlink:href="#a" id="u" x1=".572" x2=".125" y1=".579" y2=".091"/><linearGradient xlink:href="#d" id="v" x1="-.029" x2=".912" y1=".5" y2=".5"/><linearGradient xlink:href="#a" id="w" x1=".5" x2=".5" y1=".687" y2="-.133"/><linearGradient xlink:href="#e" id="x" x1=".722" x2=".955" y1=".5" y2=".5"/><linearGradient id="f" x1="-.002" x2=".808" y1=".5" y2=".5" gradientUnits="objectBoundingBox"><stop offset="0" stop-color="#fd4755"/><stop offset=".336" stop-color="#e43f48"/><stop offset="1" stop-color="#a72b2b"/></linearGradient><linearGradient xlink:href="#f" id="y" x1=".85" x2=".19" y1=".85" y2=".19"/><linearGradient id="g" x1=".631" x2=".827" y1=".411" y2=".591" gradientUnits="objectBoundingBox"><stop offset="0" stop-color="#a72b2b" stop-opacity="0"/><stop offset="1" stop-color="#481f05"/></linearGradient><linearGradient xlink:href="#g" id="z" x1=".483" x2=".926" y1=".522" y2=".552"/><linearGradient xlink:href="#g" id="A" x1=".689" x2="1.046" y1=".496" y2=".493"/><clipPath id="h"><path d="M0 0h350v350H0z" data-name="Rectangle 2"/></clipPath></defs><g clip-path="url(#h)" data-name="SPRK_default_preset_name_custom – 1"><path fill="#fff" d="M0 0h350v350H0z"/><g clip-path="url(#h)" data-name="SPRK_default_preset_name_custom – 1"><path fill="#fff" d="M0 0h350v350H0z" data-name="Rectangle 1"/><g data-name="Group 1"><g data-name="6502421"><g data-name="Background Simple"><path fill="#e9e9e9" d="M277.764 255.383c-15.715 17.88-40.045 34.363-64.59 32.443-37.072-2.895-51.599 22.84-110.007-2.977a126.3 126.3 0 0 1-24.187-13.917 105.5 105.5 0 0 1-10.487-8.84c-29.134-27.95-35.009-66.629-23.733-100.239 14.885-44.263 52.579-53.324 76.579-57.883s65.45-42.44 123.053-17.498a123 123 0 0 1 24.871 14.29c17.54 13.149 32.875 32.98 37.683 55.093q.558 2.48.938 5.022c5.124 32.983-8.69 70.129-30.12 94.506" data-name="Path 1"/></g></g></g><text font-family="SegoeUI, Segoe UI" font-size="20" letter-spacing=".02em" transform="translate(14.325 37)"><tspan x="0" y="0">mernfa.ir</tspan></text></g><g data-name="1" transform="translate(52 42)"><path fill="url(#d)" d="M236.922 314.246c-68.817-25.813-142.4 17.807-211.372-5.7a24.9 24.9 0 0 1-16.655-26.008L19.7 171.884a10.98 10.98 0 0 1 13.436-9.593c65.4 14.964 126.039-39.688 191.377-25.658a18.42 18.42 0 0 1 14.45 16.62l11.563 150.685a10.135 10.135 0 0 1-13.604 10.308" data-name="Path 1" transform="translate(-4.559 -69.777)"/><path fill="url(#a)" d="M132.075 164.44c-32.578 10.368-65.12 21.243-98.937 13.506a10.98 10.98 0 0 0-13.438 9.592L8.895 298.193A24.894 24.894 0 0 0 25.55 324.2c34.739 11.838 70.646 6.649 106.525 1.879Z" data-name="Path 2" transform="translate(-4.559 -85.432)"/><path fill="url(#i)" d="M8.895 388.476a24.894 24.894 0 0 0 16.655 26.012c68.974 23.5 142.555-20.116 211.372 5.7a10.135 10.135 0 0 0 13.606-10.308l-5.5-71.658H13.8Z" data-name="Path 3" transform="translate(-4.559 -175.715)"/><path fill="url(#j)" d="M413.645 153.253a18.42 18.42 0 0 0-14.45-16.62c-18.366-3.944-36.361-2.461-54.194 1.377v168.275c22.48-1.424 44.78-.223 66.6 7.961a10.135 10.135 0 0 0 13.606-10.308l-11.563-150.684Z" data-name="Path 4" transform="translate(-179.239 -69.777)"/><path fill="url(#k)" d="M400.189 153.254a18.42 18.42 0 0 0-14.45-16.62c-22.646-4.863-44.728-1.473-66.639 4.408v37.878h83.059Z" data-name="Path 5" transform="translate(-165.783 -69.777)"/><path fill="url(#l)" d="m337.663 270.459-30.322-30.322a61.31 61.31 0 0 0-43.636-18.075 49.78 49.78 0 0 1-46.994-33.521l3.953-8.145c6.9-2.02 13.735-4.2 20.5-6.352 23.774-7.577 46.231-14.736 68.894-14.736a94 94 0 0 1 19.959 2.056 6.43 6.43 0 0 1 5 5.794l7.538 98.236Z" data-name="Path 6" transform="translate(-112.588 -82.765)"/><path fill="url(#b)" d="m337.663 270.459-30.322-30.322a61.31 61.31 0 0 0-43.636-18.075 49.78 49.78 0 0 1-46.994-33.521l3.953-8.145c6.9-2.02 13.735-4.2 20.5-6.352 23.774-7.577 46.231-14.736 68.894-14.736a94 94 0 0 1 19.959 2.056 6.43 6.43 0 0 1 5 5.794l7.538 98.236Z" data-name="Path 7" transform="translate(-112.588 -82.765)"/><path fill="url(#m)" d="m409.2 265.4-4.891 5.064-30.322-30.322A61.3 61.3 0 0 0 345 223.806v-60.52a142.4 142.4 0 0 1 31.711-3.978 94 94 0 0 1 19.959 2.056 6.43 6.43 0 0 1 5 5.794Z" data-name="Path 8" transform="translate(-179.238 -82.765)"/><path fill="url(#n)" d="M250.724 333.47a5.25 5.25 0 0 1-6.694 5.443c-13.811-3.967-28.762-5.907-45.384-5.907-19.406 0-38.9 2.6-57.762 5.112-18.906 2.518-36.765 4.9-54.576 4.9H86.3c-16.528 0-30.88-2.152-43.886-6.582a12.81 12.81 0 0 1-8.572-13.477l10.69-109.46a119.3 119.3 0 0 0 25.4 2.676c14.958 0 29.794-2.65 44.1-6.313l7.639 4.943a49.78 49.78 0 0 0 47.229 33.517 61.41 61.41 0 0 1 43.553 18.224l30.174 30.174 6.314 13.477Z" data-name="Path 9" transform="translate(-17.548 -109.027)"/><path fill="url(#c)" d="M250.724 333.47a5.25 5.25 0 0 1-6.694 5.443c-13.811-3.967-28.762-5.907-45.384-5.907-19.406 0-38.9 2.6-57.762 5.112-18.906 2.518-36.765 4.9-54.576 4.9H86.3c-16.528 0-30.88-2.152-43.886-6.582a12.81 12.81 0 0 1-8.572-13.477l10.69-109.46a119.3 119.3 0 0 0 25.4 2.676c14.958 0 29.794-2.65 44.1-6.313l7.639 4.943a49.78 49.78 0 0 0 47.229 33.517 61.41 61.41 0 0 1 43.553 18.224l30.174 30.174 6.314 13.477Z" data-name="Path 10" transform="translate(-17.548 -109.027)"/><path fill="url(#o)" d="M33.84 389.644a12.81 12.81 0 0 0 8.572 13.477c13.006 4.43 27.358 6.579 43.888 6.579h.01c17.811 0 35.67-2.378 54.576-4.9 18.858-2.513 38.356-5.112 57.762-5.112 16.622 0 31.573 1.941 45.384 5.907a5.25 5.25 0 0 0 6.694-5.443l-1.787-23.272-6.314-13.477-25.19-25.19H38.863Z" data-name="Path 11" transform="translate(-17.548 -175.716)"/><path fill="url(#p)" d="M412.415 376.95a5.25 5.25 0 0 1-6.694 5.443c-13.811-3.967-28.762-5.907-45.384-5.907-5.112 0-10.229.178-15.337.495v-83.434a61.3 61.3 0 0 1 28.991 16.331l30.324 30.322 6.313 13.477Z" data-name="Path 12" transform="translate(-179.239 -152.507)"/><path fill="url(#q)" d="m335.716 306.7-40.2-40.2a49.38 49.38 0 0 0-35.141-14.553A61.824 61.824 0 0 1 200.81 206.4q2.948-.757 5.881-1.571 2.861-.793 5.7-1.629a49.78 49.78 0 0 0 47.98 36.737 61.3 61.3 0 0 1 43.639 18.073l30.29 30.29Z" data-name="Path 13" transform="translate(-104.327 -105.568)"/><path fill="url(#e)" d="m321.5 290 40.2 40.2-1.413-18.4-30.293-30.294a61.3 61.3 0 0 0-43.636-18.075 49.54 49.54 0 0 1-35.536-15v5.411l19.478 19.485a61.6 61.6 0 0 0 16.053 2.121A49.39 49.39 0 0 1 321.5 290" data-name="Path 14" transform="translate(-130.308 -129.069)"/><path fill="url(#r)" d="M29.638 55.856A29.637 29.637 0 0 0 0 85.494V239.74a29.638 29.638 0 0 0 59.275 0V85.494a29.637 29.637 0 0 0-29.637-29.638" data-name="Path 15" transform="translate(0 -29.019)"/><path fill="url(#s)" d="M48 55.856a29.5 29.5 0 0 0-12.657 2.836v207.85a29.643 29.643 0 0 0 42.295-26.8V85.494A29.64 29.64 0 0 0 48 55.856" data-name="Path 16" transform="translate(-18.361 -29.019)"/><circle cx="29.638" cy="29.638" r="29.638" fill="url(#t)" data-name="Ellipse 1" transform="translate(0 181.083)"/><circle cx="29.638" cy="29.638" r="29.638" fill="url(#u)" data-name="Ellipse 2" transform="translate(0 181.083)"/><path fill="url(#v)" d="M80.6 397.115a14.47 14.47 0 0 1-3.516 14.762 32.11 32.11 0 0 1-22.892 9.4 33.3 33.3 0 0 1-6.441-.627 4.71 4.71 0 0 1-3.766-4.633v-37.888A29.664 29.664 0 0 1 80.6 397.115" data-name="Path 17" transform="translate(-22.852 -195.805)"/><path fill="url(#w)" d="M80.6 397.115a14.47 14.47 0 0 1-3.516 14.762 32.11 32.11 0 0 1-22.892 9.4 33.3 33.3 0 0 1-6.441-.627 4.71 4.71 0 0 1-3.766-4.633v-37.888A29.664 29.664 0 0 1 80.6 397.115" data-name="Path 18" transform="translate(-22.852 -195.805)"/><path fill="url(#x)" d="M378.921 298.555A61.25 61.25 0 0 0 345 281.239v12.2a49.37 49.37 0 0 1 25.426 13.609l40.2 40.2-1.413-18.4Z" data-name="Path 19" transform="translate(-179.238 -146.112)"/><path fill="url(#f)" d="M207.678 0a49.072 49.072 0 0 0-39.569 78.56l31.74 43.62a9.246 9.246 0 0 0 14.959 0l31.74-43.62A49.07 49.07 0 0 0 207.678 0m-.349 76.061a26.994 26.994 0 1 1 26.993-27 26.993 26.993 0 0 1-26.993 27.001Z" data-name="Path 20" transform="translate(-82.222)"/><path fill="url(#y)" d="M222.916 30a34.651 34.651 0 1 0 34.653 34.65A34.65 34.65 0 0 0 222.916 30m0 58.989a24.337 24.337 0 1 1 24.335-24.339 24.337 24.337 0 0 1-24.335 24.343Z" data-name="Path 21" transform="translate(-97.809 -15.588)"/><path fill="url(#g)" d="M231.666 91.51a24.335 24.335 0 1 1-46.6-9.813h-25.82A49.18 49.18 0 0 0 168.111 121l31.74 43.62a9.246 9.246 0 0 0 14.959 0L246.55 121a49 49 0 0 0 8.85-39.3h-25.8a24.25 24.25 0 0 1 2.066 9.814Z" data-name="Path 22" transform="translate(-82.223 -42.443)"/><path fill="url(#z)" d="M251.958 0a49.4 49.4 0 0 0-8.465.669v25.453a24.337 24.337 0 1 1 0 45.89V121.3l.637.876a9.246 9.246 0 0 0 14.959 0l31.74-43.62A49.07 49.07 0 0 0 251.958 0" data-name="Path 23" transform="translate(-126.502)"/><path fill="url(#A)" d="M251.958 0a49.4 49.4 0 0 0-8.465.669v25.453a24.337 24.337 0 1 1 0 45.89V121.3l.637.876a9.246 9.246 0 0 0 14.959 0l31.74-43.62A49.07 49.07 0 0 0 251.958 0" data-name="Path 24" transform="translate(-126.502)"/></g></g></svg>