<svg xmlns="http://www.w3.org/2000/svg" width="350" height="350"><defs><clipPath id="a"><path d="M0 0h350v350H0z" data-name="Rectangle 2"/></clipPath></defs><g clip-path="url(#a)" data-name="SPRK_default_preset_name_custom – 1"><path fill="#fff" d="M0 0h350v350H0z"/><g clip-path="url(#a)" data-name="SPRK_default_preset_name_custom – 1"><path fill="#fff" d="M0 0h350v350H0z" data-name="Rectangle 1"/><g data-name="Group 1"><g data-name="6502421"><g data-name="Background Simple"><path fill="#3bc9ee" d="M274.675 225.16c-16.11 18.375-40.988 35.37-65.982 33.542-37.751-2.753-52.694 23.65-112.055-2.426a126.8 126.8 0 0 1-24.563-14.099 106 106 0 0 1-10.633-8.982c-29.524-28.426-35.291-67.952-23.617-102.393 15.413-45.36 53.865-54.837 78.341-59.638s66.91-43.77 125.455-18.58a123.4 123.4 0 0 1 25.257 14.478c17.794 13.354 33.309 33.545 38.085 56.138q.554 2.534.923 5.13c5.037 33.708-9.243 71.777-31.211 96.83" data-name="Path 1"/></g></g></g><text font-family="SegoeUI, Segoe UI" font-size="20" letter-spacing=".02em" transform="translate(14.325 37)"><tspan x="0" y="0">mernfa.ir</tspan></text></g><g data-name="Group 9"><path fill="#fff" d="M273.562 96.617v137.924a13.29 13.29 0 0 1-13.289 13.289H89.727a13.29 13.29 0 0 1-13.289-13.289V96.617Z" data-name="Path 13"/><g data-name="Group 5"><path fill="#fff" d="M85.304 128.962a1.384 1.384 0 0 1-1.384-1.384v-3.654a1.385 1.385 0 0 1 2.769 0v3.654a1.384 1.384 0 0 1-1.385 1.384" data-name="Path 14"/></g><g data-name="Group 6"><path fill="#fff" d="M85.304 151.51a1.384 1.384 0 0 1-1.384-1.384v-15.5a1.41 1.41 0 0 1 1.384-1.412 1.36 1.36 0 0 1 1.384 1.357v15.56a1.384 1.384 0 0 1-1.384 1.379" data-name="Path 15"/></g><path fill="#5b4ff8" d="M273.566 96.616v-20.57a13.29 13.29 0 0 0-13.289-13.289H89.731a13.29 13.29 0 0 0-13.289 13.289v20.57Z" data-name="Path 16"/><g fill="#fff" data-name="Group 7"><path d="M176.085 80.224a6.91 6.91 0 0 1-6.911 6.911H96.085a6.911 6.911 0 1 1 0-13.821h73.091a6.91 6.91 0 0 1 6.909 6.91" data-name="Path 17"/><path d="M216.145 78.618a6.39 6.39 0 1 1-6.39-6.379 6.386 6.386 0 0 1 6.39 6.379" data-name="Path 18"/><path d="M238.487 78.618a6.39 6.39 0 1 1-6.39-6.379 6.385 6.385 0 0 1 6.39 6.379" data-name="Path 19"/><path d="M260.83 78.618a6.39 6.39 0 1 1-6.39-6.379 6.386 6.386 0 0 1 6.39 6.379" data-name="Path 20"/></g><path fill="#a1d51c" d="M155.2 167.391v53.869a7.09 7.09 0 0 1-7.088 7.088H98.945a7.09 7.09 0 0 1-7.088-7.088v-53.869a7.09 7.09 0 0 1 7.088-7.088h49.167a7.087 7.087 0 0 1 7.088 7.088" data-name="Path 21"/><g data-name="Group 8"><path d="M282.421 177.105a1.384 1.384 0 0 0-1.384 1.384v3.865a1.385 1.385 0 0 0 2.769 0v-3.865a1.384 1.384 0 0 0-1.385-1.384" data-name="Path 22"/><path d="M282.421 188.323a1.384 1.384 0 0 0-1.384 1.384v21.13a1.385 1.385 0 0 0 2.769 0v-21.13a1.384 1.384 0 0 0-1.385-1.384" data-name="Path 23"/><path d="M67.578 76.738a1.384 1.384 0 0 0-1.384 1.384v5.56a1.384 1.384 0 0 0 2.768 0v-5.559a1.384 1.384 0 0 0-1.384-1.385" data-name="Path 24"/><path d="M85.756 54.226a1.386 1.386 0 0 0-1.671-1.014 23.69 23.69 0 0 0-16.587 15.145 1.384 1.384 0 1 0 2.617.9 20.9 20.9 0 0 1 14.626-13.356 1.385 1.385 0 0 0 1.014-1.675Z" data-name="Path 25"/><path d="M260.276 61.373H89.73a14.69 14.69 0 0 0-14.673 14.673v158.495a14.69 14.69 0 0 0 14.673 14.673h170.547a14.69 14.69 0 0 0 14.673-14.673V76.046a14.69 14.69 0 0 0-14.674-14.673m0 185.073H89.73a11.92 11.92 0 0 1-11.9-11.9V98.001h194.352v136.54a11.92 11.92 0 0 1-11.906 11.905m11.9-151.213H77.826V76.046a11.92 11.92 0 0 1 11.9-11.9h170.55a11.92 11.92 0 0 1 11.9 11.9Z" data-name="Path 26"/><path d="M169.179 71.929H96.088a8.295 8.295 0 1 0 0 16.589h73.091a8.295 8.295 0 0 0 0-16.589m0 13.821H96.088a5.526 5.526 0 1 1 0-11.052h73.091a5.526 5.526 0 0 1 0 11.052" data-name="Path 27"/><path d="M209.756 70.855a7.769 7.769 0 1 0 7.774 7.763 7.78 7.78 0 0 0-7.774-7.763m0 12.769a5 5 0 1 1 5-5.006 5.01 5.01 0 0 1-5 5.006" data-name="Path 28"/><path d="M232.098 70.855a7.769 7.769 0 1 0 7.775 7.763 7.78 7.78 0 0 0-7.775-7.763m0 12.769a5 5 0 1 1 5.006-5.006 5.01 5.01 0 0 1-5.006 5.006" data-name="Path 29"/><path d="M254.441 70.855a7.769 7.769 0 1 0 7.775 7.763 7.78 7.78 0 0 0-7.775-7.763m0 12.769a5 5 0 1 1 5.006-5.006 5.01 5.01 0 0 1-5.006 5.006" data-name="Path 30"/><path d="M116.453 143.524h10.6a8.23 8.23 0 0 0 8.223-8.633 8.13 8.13 0 0 0-3.917-6.439 7.59 7.59 0 0 0 2.711-8.854 7.85 7.85 0 0 0-7.454-4.884h-10.164a1.384 1.384 0 0 0-1.384 1.384v26.04a1.385 1.385 0 0 0 1.385 1.386m10.6-2.769h-9.214v-10.9h8.769a5.755 5.755 0 0 1 5.9 5.167 5.464 5.464 0 0 1-5.457 5.733Zm-9.214-23.272h8.778a5.08 5.08 0 0 1 4.859 3.08 4.812 4.812 0 0 1-4.48 6.521h-9.162Z" data-name="Path 31"/><path d="M161.63 140.755h-13.954v-24.656a1.385 1.385 0 0 0-2.769 0v26.04a1.384 1.384 0 0 0 1.384 1.384h15.338a1.385 1.385 0 1 0 0-2.769Z" data-name="Path 32"/><path d="M201.448 129.12a14.4 14.4 0 1 0-14.4 14.4 14.42 14.42 0 0 0 14.4-14.4m-26.041 0a11.636 11.636 0 1 1 11.636 11.636 11.65 11.65 0 0 1-11.636-11.636" data-name="Path 33"/><path d="M219.224 142.083a14.26 14.26 0 0 0 15.186-1.737 1.38 1.38 0 0 0 .521-1.083v-7.521a1.384 1.384 0 0 0-1.384-1.384h-7.749a1.384 1.384 0 1 0 0 2.768h6.365v5.452a11.33 11.33 0 0 1-11.737 1.014 11.616 11.616 0 0 1 0-20.94 11.36 11.36 0 0 1 12.255 1.41 1.384 1.384 0 1 0 1.726-2.165 14.374 14.374 0 1 0-15.186 24.19Z" data-name="Path 34"/><path d="M148.112 158.919H98.945a8.48 8.48 0 0 0-8.472 8.472v53.869a8.48 8.48 0 0 0 8.472 8.472h49.167a8.48 8.48 0 0 0 8.472-8.472v-53.869a8.48 8.48 0 0 0-8.472-8.472m5.7 62.341a5.71 5.71 0 0 1-5.7 5.7H98.945a5.71 5.71 0 0 1-5.7-5.7v-53.869a5.71 5.71 0 0 1 5.7-5.7h49.167a5.71 5.71 0 0 1 5.7 5.7Z" data-name="Path 35"/><path d="M258.142 162.217h-74a1.384 1.384 0 0 0 0 2.768h74a1.384 1.384 0 1 0 0-2.768" data-name="Path 36"/><path d="M258.142 182.7h-74a1.384 1.384 0 0 0 0 2.768h74a1.384 1.384 0 1 0 0-2.768" data-name="Path 37"/><path d="M258.142 203.182h-74a1.384 1.384 0 0 0 0 2.768h74a1.384 1.384 0 1 0 0-2.768" data-name="Path 38"/><path d="M258.142 223.664h-74a1.384 1.384 0 0 0 0 2.768h74a1.384 1.384 0 1 0 0-2.768" data-name="Path 39"/></g></g><text font-family="SegoeUI-Bold, Segoe UI" font-size="40" font-weight="700" transform="translate(96 314)"><tspan x="0" y="0">Backend</tspan></text></g></svg>