<svg xmlns="http://www.w3.org/2000/svg" width="350" height="350"><defs><radialGradient id="b" cx=".5" cy=".5" r=".5" gradientUnits="objectBoundingBox"><stop offset="0"/><stop offset="1" stop-color="#6400b5"/></radialGradient><linearGradient id="c" x1=".5" x2=".5" y1="1" gradientUnits="objectBoundingBox"><stop offset="0" stop-color="#9345ff"/><stop offset="0" stop-color="#5e00fa"/><stop offset="1" stop-color="#fff"/></linearGradient><clipPath id="a"><path d="M0 0h350v350H0z" data-name="Rectangle 2"/></clipPath></defs><g clip-path="url(#a)" data-name="SPRK_default_preset_name_custom – 1"><path fill="#fff" d="M0 0h350v350H0z"/><g clip-path="url(#a)" data-name="SPRK_default_preset_name_custom – 1"><path fill="#fff" d="M0 0h350v350H0z" data-name="Rectangle 1"/><g data-name="Group 1"><g data-name="6502421"><g data-name="Background Simple"><path fill="url(#b)" d="M281.886 138.351c-2.962 26.879-14.848 58.077-38.934 72.293-36.375 21.479-33.11 54.891-104.28 68.961a143.52 143.52 0 0 1-31.574 2.823 119.866 119.866 0 0 1-15.519-1.386c-45.327-7.007-76.011-39.159-87.435-77.778-15.013-50.887 14.147-83.893 33.5-103.782S70.862 17.327 140.711 2.973A139.667 139.667 0 0 1 173.166.052c24.89.8 52.085 9.245 70.976 26.682q2.136 1.944 4.146 4.061c26.273 27.343 37.64 70.905 33.598 107.556Z" data-name="Path 1" transform="rotate(35.025 104.594 211.323)"/></g></g></g><text font-family="SegoeUI, Segoe UI" font-size="20" letter-spacing=".02em" transform="translate(14.325 37)"><tspan x="0" y="0">mernfa.ir</tspan></text></g><text fill="#fff" data-name="reset password" font-family="NotoSans-Bold, Noto Sans" font-size="27" font-weight="700" transform="translate(175 253)"><tspan x="-102.601" y="0">reset password</tspan></text><path fill="url(#c)" fill-rule="evenodd" d="M110.581 35.651a2.171 2.171 0 0 1 3.051-.373 65.6 65.6 0 0 1 9.783 9.438 2.175 2.175 0 0 1-3.33 2.8 61.463 61.463 0 0 0-9.131-8.814 2.168 2.168 0 0 1-.373-3.051Zm16.932 58.856a2.172 2.172 0 0 0 3.051-.365l3.831-4.876a60.976 60.976 0 0 1-6.346 24.961h4.822a65.323 65.323 0 0 0 5.871-24.779l3.688 4.694a2.172 2.172 0 1 0 3.416-2.685l-7.613-9.69a2.174 2.174 0 0 0-3.443-.035l-7.641 9.725a2.172 2.172 0 0 0 .365 3.05ZM58.105 27.45a2.271 2.271 0 0 0 .517-.063 61.226 61.226 0 0 1 11.824-1.672 2.176 2.176 0 1 0-.187-4.349A66.1 66.1 0 0 0 57.6 23.158a2.177 2.177 0 0 0 .5 4.292Zm74.242 43.637a2.176 2.176 0 0 0 4.2-1.125 66.184 66.184 0 0 0-4.864-12.728 2.175 2.175 0 1 0-3.881 1.964 61.6 61.6 0 0 1 4.54 11.889ZM87.985 27.468a61.725 61.725 0 0 1 11.13 3.962 2.175 2.175 0 0 0 1.845-3.94 65.994 65.994 0 0 0-11.919-4.242 2.175 2.175 0 0 0-1.056 4.22Zm-7.968 120.4a61.945 61.945 0 0 1-21.968-1.487 60.856 60.856 0 0 1-14.11-5.513 2.168 2.168 0 1 0-2.074 3.807 65.338 65.338 0 0 0 31.278 7.925 66.042 66.042 0 0 0 11.431-.993 20.319 20.319 0 0 1-4.557-3.74ZM31.77 121.951a2.175 2.175 0 0 0-4.319.52l.738 6.153a60.911 60.911 0 0 1-16.342-41.672A61.538 61.538 0 0 1 42.469 33.87a2.175 2.175 0 1 0-2.181-3.764A65.632 65.632 0 0 0 7.5 86.952a65.245 65.245 0 0 0 17.49 44.617l-5.92-.712a2.175 2.175 0 1 0-.518 4.32l12.278 1.474a2.176 2.176 0 0 0 2.421-2.419l-1.482-12.282Zm130.179 12.4a15.817 15.817 0 0 1-15.771 15.771h-32.94L99.206 167.2v-17.08H94.9a15.771 15.771 0 0 1 0-31.541h51.282a15.817 15.817 0 0 1 15.771 15.771Zm-58.42 0 1.814-1.047a2.166 2.166 0 1 0-2.159-3.756l-1.812 1.046V128.5a2.175 2.175 0 1 0-4.351 0v2.093l-1.812-1.046a2.166 2.166 0 1 0-2.159 3.756l1.814 1.047-1.812 1.05a2.166 2.166 0 1 0 2.159 3.756l1.812-1.046v2.09a2.175 2.175 0 1 0 4.351 0v-2.093l1.812 1.046a2.166 2.166 0 1 0 2.159-3.756Zm21.34 0 1.814-1.047a2.166 2.166 0 1 0-2.159-3.756l-1.812 1.046V128.5a2.175 2.175 0 1 0-4.351 0v2.093l-1.812-1.046a2.166 2.166 0 1 0-2.159 3.756l1.814 1.047-1.814 1.047a2.166 2.166 0 1 0 2.159 3.756l1.812-1.046v2.093a2.175 2.175 0 1 0 4.351 0v-2.093l1.812 1.046a2.166 2.166 0 1 0 2.159-3.756Zm21.34 0 1.814-1.047a2.166 2.166 0 1 0-2.159-3.756l-1.812 1.046V128.5a2.175 2.175 0 1 0-4.351 0v2.093l-1.812-1.046a2.166 2.166 0 1 0-2.159 3.756l1.814 1.047-1.814 1.047a2.166 2.166 0 1 0 2.159 3.756l1.812-1.046v2.093a2.175 2.175 0 1 0 4.351 0v-2.093l1.812 1.046a2.166 2.166 0 1 0 2.159-3.756Zm-106.215-14.78v-41.29a6.124 6.124 0 0 1 6.106-6.107h4.71V61.123a22.332 22.332 0 1 1 44.663 0v11.051h4.711a6.124 6.124 0 0 1 6.106 6.106v35.946H94.9a20.174 20.174 0 0 0-18.148 11.45H46.1a6.124 6.124 0 0 1-6.106-6.105Zm40.418-27.442a7.269 7.269 0 1 0-10.646 6.439v11.048a3.376 3.376 0 1 0 6.752 0V98.567a7.268 7.268 0 0 0 3.893-6.439ZM60.634 72.174h25.018V61.123a12.509 12.509 0 1 0-25.018 0Z" data-name="Path 1" transform="translate(90.277 56.801)"/></g></svg>