<svg xmlns="http://www.w3.org/2000/svg" xmlns:xlink="http://www.w3.org/1999/xlink" width="350" height="350" viewBox="0 0 350 350">
  <defs>
    <clipPath id="clip-path">
      <rect id="Rectangle_2" data-name="Rectangle 2" width="350" height="350"/>
    </clipPath>
  </defs>
  <g id="SPRK_default_preset_name_custom_1" data-name="SPRK_default_preset_name_custom – 1" clip-path="url(#clip-path)">
    <rect width="350" height="350" fill="#fff"/>
    <g id="SPRK_default_preset_name_custom_1-2" data-name="SPRK_default_preset_name_custom – 1" clip-path="url(#clip-path)">
      <rect id="Rectangle_1" data-name="Rectangle 1" width="350" height="350" fill="#fff"/>
      <g id="Group_1" data-name="Group 1" transform="translate(-21.905 -21.76)">
        <g id="_6502421" data-name="6502421" transform="translate(0 0)">
          <g id="Background_Simple" data-name="Background Simple" transform="translate(0 0)">
            <path id="Path_1" data-name="Path 1" d="M281.886,138.351c-2.962,26.879-14.848,58.077-38.934,72.293-36.375,21.479-33.11,54.891-104.28,68.961a143.52,143.52,0,0,1-31.574,2.823,119.866,119.866,0,0,1-15.519-1.386c-45.327-7.007-76.011-39.159-87.435-77.778-15.013-50.887,14.147-83.893,33.5-103.782S70.862,17.327,140.711,2.973A139.667,139.667,0,0,1,173.166.052c24.89.8,52.085,9.245,70.976,26.682q2.136,1.944,4.146,4.061C274.561,58.138,285.928,101.7,281.886,138.351Z" transform="translate(162.132 0) rotate(35.025)" fill="#f3f3f3"/>
          </g>
        </g>
      </g>
      <text id="mernfa.ir" transform="translate(14.325 37)" font-size="20" font-family="SegoeUI, Segoe UI" letter-spacing="0.02em"><tspan x="0" y="0">mernfa.ir</tspan></text>
    </g>
    <g id="Group_3" data-name="Group 3" transform="translate(134.808 -11)">
      <g id="search-icon" transform="translate(91.077 237.769)">
        <path id="Path_12" data-name="Path 12" d="M362.7,360.111a1.83,1.83,0,1,1-2.588,2.588l-5.891-5.891a15.406,15.406,0,0,0,2.588-2.588Z" transform="translate(-332.613 -332.613)" fill="#1390ff"/>
        <path id="Path_13" data-name="Path 13" d="M314,311.41l2.611,2.611a15.408,15.408,0,0,1-2.588,2.588L311.41,314h0A11.669,11.669,0,0,0,314,311.41Z" transform="translate(-292.415 -292.415)" fill="#fff5cd"/>
        <path id="Path_14" data-name="Path 14" d="M33.179,21.59a11.527,11.527,0,0,1-2.207,6.8,11.668,11.668,0,0,1-2.587,2.587,11.586,11.586,0,1,1,4.794-9.383Z" transform="translate(-9.39 -9.39)" fill="#1390ff"/>
        <path id="Path_15" data-name="Path 15" d="M59.15,50A9.15,9.15,0,1,1,50,59.15,9.16,9.16,0,0,1,59.15,50Z" transform="translate(-46.95 -46.95)" fill="#fff"/>
        <path id="Path_16" data-name="Path 16" d="M30.516,27.066l-8.142-8.142A12.09,12.09,0,0,0,24.4,12.2,12.2,12.2,0,1,0,12.2,24.4a12.091,12.091,0,0,0,6.724-2.025l2.251,2.251h0l5.89,5.89a2.44,2.44,0,1,0,3.45-3.45Zm-10.6-5.424a12.24,12.24,0,0,0,1.725-1.725l1.731,1.731a14.806,14.806,0,0,1-1.725,1.725ZM1.22,12.2a10.978,10.978,0,1,1,17.417,8.889h0A10.974,10.974,0,0,1,1.22,12.2ZM29.654,29.654a1.219,1.219,0,0,1-1.725,0l-5.416-5.416a16.029,16.029,0,0,0,1.725-1.725l5.417,5.417a1.219,1.219,0,0,1,0,1.725Z"/>
        <path id="Path_17" data-name="Path 17" d="M59.519,49.76a9.76,9.76,0,1,0-9.76,9.76A9.771,9.771,0,0,0,59.519,49.76ZM49.76,58.3a8.54,8.54,0,1,1,8.54-8.54A8.549,8.549,0,0,1,49.76,58.3Z" transform="translate(-37.56 -37.56)"/>
      </g>
      <g id="menu" transform="translate(60.077 150.824)">
        <path id="Path_19" data-name="Path 19" d="M16.385,28.539a2.231,2.231,0,0,1,2.231-2.231H32a2.231,2.231,0,1,1,0,4.462H18.616A2.231,2.231,0,0,1,16.385,28.539ZM3,6.231A2.231,2.231,0,0,1,5.231,4H32a2.231,2.231,0,0,1,0,4.462H5.231A2.231,2.231,0,0,1,3,6.231ZM3,17.385a2.231,2.231,0,0,1,2.231-2.231H32a2.231,2.231,0,0,1,0,4.462H5.231A2.231,2.231,0,0,1,3,17.385Z" transform="translate(23 44.099)" fill="#1390ff" stroke="#000" stroke-width="1.5" fill-rule="evenodd"/>
      </g>
    </g>
    <g id="accordion" transform="translate(108 172)">
      <g id="Group_1-2" data-name="Group 1" transform="translate(-32 12)">
        <g id="Rectangle_3" data-name="Rectangle 3" transform="translate(0 0)" fill="#fff" stroke="#1390ff" stroke-width="3">
          <rect width="108" height="34" rx="3" stroke="none"/>
          <rect x="1.5" y="1.5" width="105" height="31" rx="1.5" fill="none"/>
        </g>
        <path id="Path_22" data-name="Path 22" d="M31.681,65.7,28.4,69.5,25.11,65.7a2.874,2.874,0,1,0-4.351,3.757l5.026,5.82a3.447,3.447,0,0,0,5.22,0l5.026-5.82A2.874,2.874,0,1,0,31.681,65.7Z" transform="translate(-10.246 -53.53)" fill="#1390ff" stroke="#000" stroke-width="1.5"/>
      </g>
      <g id="Group_2" data-name="Group 2" transform="translate(-32 52)">
        <g id="Rectangle_3-2" data-name="Rectangle 3" transform="translate(0 0)" fill="#fff" stroke="#1390ff" stroke-width="3">
          <rect width="108" height="34" rx="3" stroke="none"/>
          <rect x="1.5" y="1.5" width="105" height="31" rx="1.5" fill="none"/>
        </g>
        <path id="Path_22-2" data-name="Path 22" d="M31.708,65.7l-3.293,3.813L25.122,65.7a2.881,2.881,0,1,0-4.361,3.765L25.8,75.3a3.454,3.454,0,0,0,5.232,0l5.038-5.833A2.881,2.881,0,1,0,31.707,65.7Z" transform="translate(-10.223 -53.583)" fill="#1390ff" stroke="#000" stroke-width="1.5"/>
      </g>
    </g>
    <text id="Tailwind_mini_project_1" data-name="Tailwind
mini project 1" transform="translate(175 113)" fill="#00a8ff" stroke="#000" stroke-width="1" font-size="29" font-family="NotoSans-Bold, Noto Sans" font-weight="700"><tspan x="-60.981" y="0">Tailwind</tspan><tspan x="-99.475" y="39">mini project 1</tspan></text>
  </g>
</svg>
