<svg xmlns="http://www.w3.org/2000/svg" width="350" height="350"><defs><radialGradient id="b" cx=".5" cy=".5" r=".5" gradientUnits="objectBoundingBox"><stop offset="0" stop-color="#c4e3ff"/><stop offset="1" stop-color="#34a5df"/></radialGradient><clipPath id="a"><path d="M0 0h350v350H0z" data-name="Rectangle 2"/></clipPath></defs><g clip-path="url(#a)" data-name="SPRK_default_preset_name_custom – 1"><path fill="#fff" d="M0 0h350v350H0z"/><g clip-path="url(#a)" data-name="SPRK_default_preset_name_custom – 1"><path fill="#fff" d="M0 0h350v350H0z" data-name="Rectangle 1"/><g data-name="Group 1"><g data-name="6502421"><g data-name="Background Simple"><path fill="url(#b)" d="M281.886 138.351c-2.962 26.879-14.848 58.077-38.934 72.293-36.375 21.479-33.11 54.891-104.28 68.961a143.5 143.5 0 0 1-31.574 2.823 120 120 0 0 1-15.519-1.386c-45.327-7.007-76.011-39.159-87.435-77.778-15.013-50.887 14.147-83.893 33.5-103.782S70.862 17.327 140.711 2.973A139.7 139.7 0 0 1 173.166.052c24.89.8 52.085 9.245 70.976 26.682q2.136 1.944 4.146 4.061c26.273 27.343 37.64 70.905 33.598 107.556" data-name="Path 1" transform="rotate(35.025 104.594 211.323)"/></g></g></g><text font-family="SegoeUI, Segoe UI" font-size="20" letter-spacing=".02em" transform="translate(14.325 37)"><tspan x="0" y="0">mernfa.ir</tspan></text></g><g data-name="Group 2"><path fill="#3178c6" d="M208.691 131h71.618a8.69 8.69 0 0 1 8.691 8.691v71.618a8.69 8.69 0 0 1-8.691 8.691h-71.618a8.69 8.69 0 0 1-8.691-8.691v-71.618a8.69 8.69 0 0 1 8.691-8.691" data-name="Path 1"/><path fill="#3178c6" d="M208.691 131h71.618a8.69 8.69 0 0 1 8.691 8.691v71.618a8.69 8.69 0 0 1-8.691 8.691h-71.618a8.69 8.69 0 0 1-8.691-8.691v-71.618a8.69 8.69 0 0 1 8.691-8.691" data-name="Path 2"/><path fill="#fff" fill-rule="evenodd" d="M255.093 201.822v8.7a18.4 18.4 0 0 0 5.019 1.632 33 33 0 0 0 6.107.544c3.688 0 7.726-.528 10.882-2.57a11.187 11.187 0 0 0 1.85-16.384c-2.856-2.971-6.869-4.176-10.474-5.942-1.806-.885-4.3-2.258-4.3-4.582a2.93 2.93 0 0 1 .463-1.618c1.24-1.932 3.993-2.325 6.094-2.325a17.8 17.8 0 0 1 7.114 1.523 13 13 0 0 1 2.135 1.2v-8.129a21.3 21.3 0 0 0-4.339-1.129 35.4 35.4 0 0 0-5.4-.367 25 25 0 0 0-5.876.666 15 15 0 0 0-4.883 2.08 10.4 10.4 0 0 0-3.332 3.6 10.56 10.56 0 0 0-1.224 5.235 10.15 10.15 0 0 0 2.244 6.635 17.1 17.1 0 0 0 6.815 4.65 33 33 0 0 1 6.026 2.91 4.66 4.66 0 0 1 2.435 3.7 3.36 3.36 0 0 1-1.646 2.815 9.27 9.27 0 0 1-4.965 1.129 16.5 16.5 0 0 1-5.6-.993 16.7 16.7 0 0 1-5.145-2.98m-14.629-21.44h11.163v-7.141h-31.115v7.141h11.109v31.8h8.843Z" data-name="Path 3"/><text data-name="+" font-family="NotoSans-Bold, Noto Sans" font-size="35" font-weight="700" transform="translate(181 189)"><tspan x="-9.98" y="0">+</tspan></text><text font-family="SegoeUI-Bold, Segoe UI" font-size="50" font-weight="700" transform="translate(45 196)"><tspan x="0" y="0">Next</tspan></text></g></g></svg>